<svg xmlns="http://www.w3.org/2000/svg" viewBox="0 0 119 86.52"><defs><style>.cls-1{fill:#fff;}.cls-2{fill:#499c2d;}.cls-3{fill:#184287;}.cls-4{fill:#e40521;}.cls-5{fill:#1d1d1b;}</style></defs><title>arauco_estacion</title><g id="Capa_1" data-name="Capa 1"><path class="cls-1" d="M92.45,49.87A32.45,32.45,0,1,1,60,17.52,32.4,32.4,0,0,1,92.45,49.87" transform="translate(-0.5 -17.52)"/><path class="cls-2" d="M89.64,53.21c-.48,0-1,0-1.44,0A21.81,21.81,0,0,0,66.38,74.91a22.33,22.33,0,0,0,.36,3.92,29.8,29.8,0,0,0,22.9-25.62" transform="translate(-0.5 -17.52)"/><path class="cls-2" d="M32.08,53.16c-.58,0-1.15,0-1.71.07A29.79,29.79,0,0,0,53.52,78.89,21.72,21.72,0,0,0,32.08,53.16" transform="translate(-0.5 -17.52)"/><path class="cls-3" d="M32.08,50a25.09,25.09,0,0,1,7,1A21,21,0,0,1,81,51,24.92,24.92,0,0,1,88.19,50c.55,0,1.09,0,1.64.06,0-.06,0-.12,0-.17a29.83,29.83,0,0,0-59.66,0c0,.06,0,.13,0,.19.63,0,1.26-.07,1.9-.07" transform="translate(-0.5 -17.52)"/><path class="cls-4" d="M63.18,74.91A25,25,0,0,1,77.82,52.22a17.82,17.82,0,0,0-35.63-.12,25,25,0,0,1,14.9,22.81,25.5,25.5,0,0,1-.41,4.5A31.72,31.72,0,0,0,60,79.6a29.82,29.82,0,0,0,3.58-.21,25.09,25.09,0,0,1-.4-4.47" transform="translate(-0.5 -17.52)"/></g><g id="Capa_2" data-name="Capa 2"><path class="cls-5" d="M28.51,99.14V97.9c0-2.85-1.22-4.06-4.16-4.06a8.62,8.62,0,0,0-3.35.73l.07,2.15a5.06,5.06,0,0,1,3-1c1.48,0,2.17.52,2.17,2.08H24.83a7.7,7.7,0,0,0-3.24.56,2.83,2.83,0,0,0-1.64,2.75c0,1.84,1.66,2.87,3.36,2.87a3.44,3.44,0,0,0,3-1.67h0a13.55,13.55,0,0,0,.11,1.44h2.22c-.06-.74-.1-1.42-.11-2.16s0-1.44,0-2.41m-2.82,2.1a2.12,2.12,0,0,1-1.76.86c-.9,0-1.59-.35-1.59-1.18,0-1.48,1.67-1.67,2.79-1.67h1.09a3.19,3.19,0,0,1-.53,2m10.7-2.46c0,1.24-.39,3.21-2.21,3.21-1.62,0-1.63-1.59-1.63-2.78V94.06H30v6.09c0,2.17,1,3.78,3.28,3.78a4,4,0,0,0,3.17-1.54h0v1.31H38.9V94.06H36.39ZM45.16,102c-1.76,0-2.61-1.37-2.61-3.15s1-3.06,2.55-3.06a3.79,3.79,0,0,1,1.71.36l.23-2a8.09,8.09,0,0,0-2.44-.32c-3,0-4.67,2.21-4.67,5s1.6,5.09,4.76,5.09a8.19,8.19,0,0,0,2.5-.32l-.11-2.09a5.25,5.25,0,0,1-1.93.46m71.72-14a2.66,2.66,0,1,0,2.63,2.66A2.65,2.65,0,0,0,116.87,88m0,4.81a2.15,2.15,0,1,1,2-2.15,2,2,0,0,1-2,2.15m-11.44-2.29h-1.48l-1.75,2.71h.87ZM5.6,90.63.5,103.71H3.22l1.14-3,4.57-2.06H5.11L7,93.26H7l1.9,5.39,1.85,5.06h2.91L8.56,90.63Zm14.35,3.29a2.67,2.67,0,0,0-.77-.08,3,3,0,0,0-2.65,2.42h0v-2.2H14.27v9.65h2.51v-3.54c0-1.39,0-3.93,2-3.93a2.61,2.61,0,0,1,1.12.2ZM96,103.81h1.18V94.22H96ZM103.29,94c-3.1,0-4.48,2.41-4.48,5s1.38,5,4.48,5,4.47-2.41,4.47-5-1.37-5-4.47-5m0,9c-2.07,0-3.18-1.79-3.18-4s1.11-4,3.18-4,3.17,1.79,3.17,4-1.11,4-3.17,4M92.54,95a5.43,5.43,0,0,1,2.05.49l.09-1.13A7,7,0,0,0,92.37,94c-2.83,0-4.74,2.07-4.74,5,0,2.67,1.5,5,4.59,5a7.17,7.17,0,0,0,2.46-.34l-.11-1.11a6.16,6.16,0,0,1-2.16.43c-2.16,0-3.48-1.82-3.48-4s1.3-4,3.61-4m21-1a3,3,0,0,0-3.1,1.94h0V94.22h-1.14c.07.77.07,1.52.07,2.25v7.33h1.18v-5.3c0-1.6.68-3.5,2.84-3.5,1.63,0,2.27,1.17,2.27,3v5.83h1.18V97.68c0-2.11-.9-3.69-3.27-3.69m-61.2-.15a4.83,4.83,0,0,0-5,5.11,4.76,4.76,0,0,0,5,5,4.76,4.76,0,0,0,5-5,4.83,4.83,0,0,0-5-5.11m0,8.15c-1.91,0-2.42-1.74-2.42-3.34,0-1.44.79-2.86,2.42-2.86s2.43,1.39,2.43,2.86S54.27,102,52.35,102m33.84-4.42c0-2.5-1-3.57-3.36-3.57a7.57,7.57,0,0,0-2.82.66V95.8A5.11,5.11,0,0,1,82.82,95c1.6,0,2.18.83,2.18,2.46V98h-.23c-2.48,0-5.9.15-5.9,3.37,0,.86.43,2.71,3.16,2.71a3.37,3.37,0,0,0,3-1.77h0v1.54h1.16a13.71,13.71,0,0,1-.09-2Zm-1.18,2c0,1-.06,3.46-2.84,3.46-1.09,0-2-.47-2-1.73,0-2.1,2.44-2.32,4.49-2.32H85ZM118.07,90c0-.64-.39-.88-1.11-.88h-1.11v3h.55v-1.3h.34l.77,1.3h.58l-.81-1.32a.75.75,0,0,0,.79-.81m-1.66.4v-.86h.5c.29,0,.61.06.61.42s-.28.45-.61.45ZM67.83,96.61c0-1.22.85-1.6,2.06-1.6a5.58,5.58,0,0,1,2.12.45l.11-1A7.48,7.48,0,0,0,69.76,94c-1.58,0-3.12.72-3.12,2.61,0,2.78,4.6,2.43,4.6,4.7,0,1.09-1,1.71-2.12,1.71a5.64,5.64,0,0,1-2.5-.6l-.12,1.16a7.22,7.22,0,0,0,2.69.45c1.45,0,3.35-.7,3.35-2.73,0-3.14-4.72-2.91-4.72-4.7m-7.78,1h4.87V96.5H60V91.82h5.13V90.69H58.75v13.12H65.4v-1.13H60Zm17.2,5.4c-1,0-1.28-.71-1.28-1.58v-6.2h2.18v-1H76V91.5l-1.18.41v2.31H72.9v1h1.88v5.6c0,1.75.07,3.2,2.18,3.2a4.41,4.41,0,0,0,1.45-.26l-.08-1a2.7,2.7,0,0,1-1.09.23" transform="translate(-0.5 -17.52)"/></g></svg>