<?xml version="1.0" encoding="utf-8"?>
<!-- Generator: Adobe Illustrator 21.0.2, SVG Export Plug-In . SVG Version: 6.00 Build 0)  -->
<svg version="1.1" xmlns="http://www.w3.org/2000/svg" xmlns:xlink="http://www.w3.org/1999/xlink" x="0px" y="0px"
	 viewBox="0 0 114 89.5" style="enable-background:new 0 0 114 89.5;" xml:space="preserve">
<style type="text/css">
	.st0{fill:#FFFFFF;}
	.st1{fill:#499C2D;}
	.st2{fill:#184287;}
	.st3{fill:#E40521;}
	.st4{fill:#1D1D1B;}
</style>
<g id="Capa_1">
	<title>arauco_maipu</title>
	<g id="Capa_1-2">
		<path class="st0" d="M89,32.7c0.1,17.8-14.2,32.1-31.9,32.2S25,50.7,25,32.9c-0.1-17.7,14.2-32,31.9-32.1H57
			C74.7,0.8,89,15.1,89,32.7L89,32.7L89,32.7"/>
		<path class="st1" d="M86.2,36.1h-1.4c-11.9,0-21.5,9.6-21.5,21.4c0,1.3,0.1,2.6,0.4,3.9C75.8,58.6,84.9,48.4,86.2,36.1"/>
		<path class="st1" d="M29.4,36c-0.6,0-1.1,0-1.7,0.1c1.5,12.4,10.6,22.6,22.8,25.4c2.2-11.7-5.4-22.9-17.1-25.1
			C32.1,36.2,30.7,36,29.4,36"/>
		<path class="st2" d="M29.4,32.9c2.4,0,4.6,0.3,6.9,1c0.7-11.5,10.6-20.1,22-19.5c10.5,0.7,18.8,9,19.5,19.5c2.3-0.7,4.7-1,7.1-1
			c0.5,0,1.1,0,1.6,0.1v-0.2C86.4,16.5,73.3,3.3,57,3.3S27.6,16.5,27.6,32.7v0.2C28.2,33,28.8,32.9,29.4,32.9"/>
		<path class="st3" d="M60.2,57.5c0-9.7,5.6-18.4,14.4-22.4c-0.2-9.7-8.2-17.5-18-17.3c-9.4,0.2-17,7.7-17.3,17.1
			c8.9,4,14.7,12.7,14.7,22.5c0,1.5-0.1,3-0.4,4.4c1.1,0.1,2.2,0.2,3.3,0.2c1.2,0,2.4-0.1,3.6-0.2C60.3,60.5,60.2,59,60.2,57.5"/>
	</g>
	<path class="st4" d="M30.3,80.9v-1.3c0-2.9-1.2-4.1-4.2-4.1c-1.2,0-2.3,0.3-3.4,0.7l0.1,2.2c0.9-0.7,1.9-1,3-1
		c1.5,0,2.2,0.5,2.2,2.1h-1.4c-1.1,0-2.2,0.1-3.3,0.6c-1.1,0.5-1.7,1.6-1.7,2.8c0,1.9,1.7,2.9,3.4,2.9c1.2,0,2.4-0.6,3-1.7l0,0
		c0,0.5,0.1,1,0.1,1.5h2.3c-0.1-0.8-0.1-1.4-0.1-2.2C30.3,82.6,30.4,81.9,30.3,80.9 M27.5,83c-0.4,0.6-1.1,0.9-1.8,0.9
		c-0.9,0-1.6-0.4-1.6-1.2c0-1.5,1.7-1.7,2.8-1.7H28C28.1,81.7,27.9,82.4,27.5,83 M47.2,83.8c-1.8,0-2.6-1.4-2.6-3.2s1-3.1,2.6-3.1
		c0.6,0,1.2,0.1,1.7,0.4l0.2-2c-0.8-0.3-1.7-0.4-2.5-0.4c-3,0-4.7,2.2-4.7,5c0,3,1.6,5.2,4.8,5.2c0.9,0,1.7-0.1,2.5-0.3l-0.1-2.1
		C48.5,83.6,47.8,83.7,47.2,83.8 M38.3,80.5c0,1.2-0.4,3.2-2.2,3.2c-1.6,0-1.6-1.6-1.6-2.8v-5.2h-2.6v6.1c0,2.2,1,3.9,3.3,3.9
		c1.3,0,2.4-0.6,3.2-1.6l0,0v1.3h2.4v-9.7h-2.5L38.3,80.5z M104.8,72.4h-1.5l-1.6,2.6h0.9L104.8,72.4z M21.6,75.6
		c-0.3-0.1-0.5-0.1-0.8-0.1c-1.3,0.1-2.4,1.1-2.7,2.4l0,0v-2.2h-2.2v9.7h2.5V82c0-1.4,0-4,2.1-4c0.4,0,0.8,0.1,1.1,0.2L21.6,75.6z
		 M7.2,72.3L2,85.5h2.7l1.2-3l4.6-2.1H6.7L8.6,75l0,0l1.9,5.4l1.9,5.1h2.9l-5.1-13.2H7.2z M109.4,69.8c-1.5,0-2.7,1.2-2.7,2.6
		c0,1.5,1.2,2.7,2.6,2.7c1.5,0,2.7-1.2,2.7-2.6l0,0C112,71,110.8,69.8,109.4,69.8 M109.4,74.6c-1.2,0.1-2.2-0.8-2.3-2
		c-0.1-1.2,0.8-2.2,2-2.3c1.2-0.1,2.2,0.8,2.3,2c0,0.1,0,0.1,0,0.2C111.4,73.6,110.5,74.5,109.4,74.6
		C109.4,74.5,109.4,74.5,109.4,74.6 M106.5,75.9h-1.2v5.4c0,1.6-0.7,3.5-2.8,3.5c-1.6,0-2.3-1.2-2.3-3V76H99v6.1
		c0,2.1,0.9,3.7,3.3,3.7c1.4,0.1,2.6-0.7,3.1-1.9l0,0v1.7h1.1c-0.1-0.8-0.1-1.5-0.1-2.3L106.5,75.9z M93.3,75.8
		c-1.3,0-2.5,0.7-3.1,1.9l0,0l0.1-1.7h-1.2v13.5h1.2v-5.6l0,0c0.5,1.2,1.7,2,3,1.9c2.6,0,3.9-2.2,3.9-5
		C97.2,77.9,96.1,75.8,93.3,75.8 M93.1,84.8c-2.1,0-2.8-2.3-2.8-4s0.7-4,2.8-4c2.3,0,2.8,2.1,2.8,4C95.9,82.6,95.3,84.8,93.1,84.8
		 M110.5,71.8c0-0.6-0.4-0.9-1.1-0.9h-1.1v3h0.5v-1.3h0.3l0.8,1.3h0.5l-0.8-1.3C110.2,72.6,110.5,72.3,110.5,71.8
		C110.6,71.9,110.6,71.8,110.5,71.8 M108.9,72.2v-0.9h0.5c0.3,0,0.6,0.1,0.6,0.4s-0.3,0.5-0.6,0.5H108.9z M67.8,84L63,72.4h-2v13.2
		h1.3V73.7l0,0l4.9,11.8h1.1l4.8-11.8l0,0v11.8h1.3V72.4h-1.9L67.8,84z M83.5,79.4c0-2.5-1-3.6-3.4-3.6c-1,0-1.9,0.3-2.8,0.7v1.1
		c0.8-0.5,1.8-0.8,2.8-0.8c1.6,0,2.2,0.8,2.2,2.5v0.5h-0.2c-2.5,0-5.9,0.2-5.9,3.4c0,0.9,0.4,2.7,3.2,2.7c1.3,0,2.4-0.7,3-1.8l0,0
		v1.5h1.2c-0.1-0.7-0.1-1.3-0.1-2L83.5,79.4z M82.3,81.3c0,1-0.1,3.5-2.8,3.5c-1.1,0-2-0.5-2-1.7c0-2.1,2.4-2.3,4.5-2.3h0.3V81.3z
		 M54.3,75.5c-2.7-0.1-5,2-5.1,4.6c0,0.2,0,0.3,0,0.5c-0.1,2.7,1.9,4.9,4.6,5c0.2,0,0.3,0,0.5,0c2.7,0.1,4.9-1.9,5.1-4.6
		c0-0.1,0-0.3,0-0.4c0.2-2.7-1.8-5-4.5-5.2C54.7,75.5,54.5,75.5,54.3,75.5 M54.3,83.7c-1.9,0-2.4-1.8-2.4-3.4c0-1.5,0.8-2.9,2.4-2.9
		s2.5,1.4,2.5,2.9C56.8,81.9,56.3,83.7,54.3,83.7"/>
</g>
<g id="Capa_2">
	<rect x="85.7" y="76" class="st4" width="1.2" height="9.6"/>
	<rect x="85.7" y="72.8" class="st4" width="1.2" height="1.6"/>
</g>
</svg>
