<?xml version="1.0" encoding="utf-8"?>
<!-- Generator: Adobe Illustrator 21.0.2, SVG Export Plug-In . SVG Version: 6.00 Build 0)  -->
<svg version="1.1" id="Capa_1" xmlns="http://www.w3.org/2000/svg" xmlns:xlink="http://www.w3.org/1999/xlink" x="0px" y="0px"
	 viewBox="0 0 119 86.5" style="enable-background:new 0 0 119 86.5;" xml:space="preserve">
<style type="text/css">
	.st0{fill:#FFFFFF;}
	.st1{fill:#499C2D;}
	.st2{fill:#184287;}
	.st3{fill:#E40521;}
	.st4{fill:#1D1D1B;}
</style>
<title>arauco_estacion</title>
<g id="Capa_1_1_">
	<path class="st0" d="M91.9,32.3C92,50.3,77.5,64.8,59.6,64.9C41.7,65,27.1,50.5,27.1,32.6C27,14.6,41.5,0.1,59.4,0c0,0,0.1,0,0.1,0
		C77.4,0,91.9,14.5,91.9,32.3C91.9,32.3,91.9,32.3,91.9,32.3"/>
	<path class="st1" d="M89.1,35.7c-0.5,0-1,0-1.4,0c-12,0-21.8,9.7-21.8,21.7c0,1.3,0.1,2.6,0.4,3.9C78.5,58.5,87.7,48.2,89.1,35.7"
		/>
	<path class="st1" d="M31.6,35.6c-0.6,0-1.1,0-1.7,0.1C31.3,48.3,40.6,58.6,53,61.4c2.2-11.8-5.5-23.1-17.3-25.4
		C34.3,35.8,33,35.6,31.6,35.6"/>
	<path class="st2" d="M31.6,32.5c2.4,0,4.7,0.3,7,1c0.7-11.6,10.7-20.4,22.3-19.7c10.6,0.7,19,9.1,19.7,19.7c2.3-0.7,4.8-1,7.2-1
		c0.6,0,1.1,0,1.6,0.1c0-0.1,0-0.1,0-0.2C89.3,15.9,76,2.5,59.5,2.5C43,2.5,29.7,15.9,29.7,32.4c0,0.1,0,0.1,0,0.2
		C30.3,32.6,30.9,32.5,31.6,32.5"/>
	<path class="st3" d="M62.7,57.4c0-9.8,5.7-18.6,14.6-22.7C77.1,24.9,69,17,59.1,17.2c-9.5,0.2-17.2,7.8-17.5,17.3
		c9,4,14.9,12.9,14.9,22.8c0,1.5-0.1,3-0.4,4.5c1.1,0.1,2.2,0.2,3.3,0.2c1.2,0,2.4-0.1,3.6-0.2C62.8,60.4,62.7,58.9,62.7,57.4"/>
</g>
<g id="Capa_2">
	<path class="st4" d="M28,81.6v-1.2c0-2.9-1.2-4.1-4.2-4.1c-1.2,0-2.3,0.3-3.4,0.7l0.1,2.2c0.9-0.6,1.9-1,3-1c1.5,0,2.2,0.5,2.2,2.1
		h-1.4c-1.1,0-2.2,0.1-3.2,0.6c-1.1,0.5-1.7,1.6-1.6,2.8c0,1.8,1.7,2.9,3.4,2.9c1.2,0,2.4-0.6,3-1.7l0,0c0,0.5,0,1,0.1,1.4h2.2
		c-0.1-0.7-0.1-1.4-0.1-2.2S28,82.6,28,81.6 M25.2,83.8c-0.4,0.6-1.1,0.9-1.8,0.9c-0.9,0-1.6-0.4-1.6-1.2c0-1.5,1.7-1.7,2.8-1.7h1.1
		C25.8,82.5,25.6,83.2,25.2,83.8 M35.9,81.3c0,1.2-0.4,3.2-2.2,3.2c-1.6,0-1.6-1.6-1.6-2.8v-5.2h-2.6v6.1c0,2.2,1,3.8,3.3,3.8
		c1.2,0,2.4-0.6,3.2-1.5l0,0v1.3h2.5v-9.6h-2.5L35.9,81.3z M44.7,84.5c-1.8,0-2.6-1.4-2.6-3.1s1-3.1,2.5-3.1c0.6,0,1.2,0.1,1.7,0.4
		l0.2-2c-0.8-0.2-1.6-0.3-2.4-0.3c-3,0-4.7,2.2-4.7,5c0,2.8,1.6,5.1,4.8,5.1c0.8,0,1.7-0.1,2.5-0.3L46.6,84
		C46,84.3,45.3,84.4,44.7,84.5 M116.4,70.4c-1.5,0-2.7,1.2-2.7,2.6c0,1.5,1.2,2.7,2.6,2.7s2.7-1.2,2.7-2.6c0,0,0,0,0,0
		C119,71.7,117.8,70.5,116.4,70.4 M116.4,75.3c-1.2,0.1-2.2-0.8-2.3-2s0.8-2.2,2-2.3s2.2,0.8,2.3,2c0,0,0,0.1,0,0.1
		c0.1,1.1-0.7,2.1-1.8,2.1C116.5,75.3,116.4,75.3,116.4,75.3 M104.9,73h-1.5l-1.8,2.7h0.9L104.9,73z M5.1,73.1L0,86.2h2.7l1.1-3
		l4.6-2.1H4.6l1.9-5.4l0,0l1.9,5.4l1.9,5.1h2.9L8.1,73.1H5.1z M19.5,76.4c-0.3-0.1-0.5-0.1-0.8-0.1c-1.3,0.1-2.4,1.1-2.6,2.4l0,0
		v-2.2h-2.3v9.7h2.5v-3.5c0-1.4,0-3.9,2-3.9c0.4,0,0.8,0.1,1.1,0.2L19.5,76.4z M95.5,86.3h1.2v-9.6h-1.2V86.3z M102.8,76.5
		c-3.1,0-4.5,2.4-4.5,5s1.4,5,4.5,5s4.5-2.4,4.5-5S105.9,76.5,102.8,76.5 M102.8,85.5c-2.1,0-3.2-1.8-3.2-4c0-2.2,1.1-4,3.2-4
		s3.2,1.8,3.2,4C106,83.7,104.8,85.5,102.8,85.5 M92,77.5c0.7,0,1.4,0.2,2.1,0.5l0.1-1.1c-0.7-0.2-1.5-0.4-2.3-0.4
		c-2.8,0-4.7,2.1-4.7,5c0,2.7,1.5,5,4.6,5c0.8,0,1.7-0.1,2.5-0.3L94.1,85c-0.7,0.3-1.4,0.4-2.2,0.4c-2.2,0-3.5-1.8-3.5-4
		C88.4,79.3,89.7,77.5,92,77.5 M113,76.5c-1.4-0.1-2.6,0.7-3.1,1.9l0,0v-1.7h-1.1c0.1,0.8,0.1,1.5,0.1,2.2v7.3h1.2V81
		c0-1.6,0.7-3.5,2.8-3.5c1.6,0,2.3,1.2,2.3,3v5.8h1.2v-6.1C116.3,78.1,115.4,76.5,113,76.5 M51.9,76.3c-2.7-0.1-4.9,2-5,4.6
		c0,0.2,0,0.3,0,0.5c-0.1,2.6,1.9,4.9,4.5,5c0.2,0,0.3,0,0.5,0c2.6,0.1,4.9-1.9,5-4.5c0-0.2,0-0.3,0-0.5c0.2-2.7-1.9-4.9-4.5-5.1
		C52.2,76.3,52,76.3,51.9,76.3 M51.9,84.5c-1.9,0-2.4-1.7-2.4-3.3c0-1.4,0.8-2.9,2.4-2.9s2.4,1.4,2.4,2.9S53.8,84.5,51.9,84.5
		 M85.7,80.1c0-2.5-1-3.6-3.4-3.6c-1,0-1.9,0.3-2.8,0.7v1.1c0.8-0.5,1.8-0.8,2.8-0.8c1.6,0,2.2,0.8,2.2,2.5v0.5h-0.2
		c-2.5,0-5.9,0.2-5.9,3.4c0,0.9,0.4,2.7,3.2,2.7c1.3,0,2.4-0.7,3-1.8l0,0v1.5h1.2c-0.1-0.7-0.1-1.3-0.1-2L85.7,80.1z M84.5,82.1
		c0,1-0.1,3.5-2.8,3.5c-1.1,0-2-0.5-2-1.7c0-2.1,2.4-2.3,4.5-2.3h0.3L84.5,82.1z M117.6,72.5c0-0.6-0.4-0.9-1.1-0.9h-1.1v3h0.6v-1.3
		h0.3l0.8,1.3h0.6l-0.8-1.3C117.2,73.3,117.5,73,117.6,72.5C117.6,72.5,117.6,72.5,117.6,72.5 M115.9,72.9V72h0.5
		c0.3,0,0.6,0.1,0.6,0.4s-0.3,0.4-0.6,0.4L115.9,72.9z M67.3,79.1c0-1.2,0.8-1.6,2.1-1.6c0.7,0,1.4,0.2,2.1,0.4l0.1-1
		c-0.8-0.3-1.6-0.4-2.4-0.5c-1.6,0-3.1,0.7-3.1,2.6c0,2.8,4.6,2.4,4.6,4.7c0,1.1-1,1.7-2.1,1.7c-0.9,0-1.7-0.2-2.5-0.6L66,86.1
		c0.9,0.3,1.8,0.5,2.7,0.4c1.4,0,3.3-0.7,3.3-2.7C72,80.6,67.3,80.9,67.3,79.1 M59.5,80.1h4.9V79h-4.9v-4.7h5.1v-1.1h-6.4v13.1h6.7
		v-1.1h-5.4L59.5,80.1z M76.7,85.5c-1,0-1.3-0.7-1.3-1.6v-6.2h2.2v-1h-2.1V74l-1.2,0.4v2.3h-1.9v1h1.9v5.6c0,1.8,0.1,3.2,2.2,3.2
		c0.5,0,1-0.1,1.4-0.3l-0.1-1C77.5,85.4,77.1,85.5,76.7,85.5"/>
</g>
<rect x="95.5" y="73.5" class="st4" width="1.2" height="1.6"/>
</svg>
