<svg xmlns="http://www.w3.org/2000/svg" viewBox="0 0 119 85.99"><defs><style>.cls-1{fill:#fff;}.cls-2{fill:#499c2d;}.cls-3{fill:#184287;}.cls-4{fill:#e40521;}.cls-5{fill:#1d1d1b;}</style></defs><title>arauco_coronel</title><g id="Capa_1" data-name="Capa 1"><path class="cls-1" d="M92.45,49.87A32.45,32.45,0,1,1,60,17.52,32.4,32.4,0,0,1,92.45,49.87" transform="translate(-0.5 -17.52)"/><path class="cls-2" d="M89.64,53.21c-.48,0-1,0-1.44,0A21.81,21.81,0,0,0,66.38,74.91a22.33,22.33,0,0,0,.36,3.92,29.8,29.8,0,0,0,22.9-25.62" transform="translate(-0.5 -17.52)"/><path class="cls-2" d="M32.08,53.16c-.58,0-1.15,0-1.71.07A29.79,29.79,0,0,0,53.52,78.89,21.72,21.72,0,0,0,32.08,53.16" transform="translate(-0.5 -17.52)"/><path class="cls-3" d="M32.08,50a25.09,25.09,0,0,1,7,1A21,21,0,0,1,81,51,24.92,24.92,0,0,1,88.19,50c.55,0,1.09,0,1.64.06,0-.06,0-.12,0-.17a29.83,29.83,0,0,0-59.66,0c0,.06,0,.13,0,.19.63,0,1.26-.07,1.9-.07" transform="translate(-0.5 -17.52)"/><path class="cls-4" d="M63.18,74.91A25,25,0,0,1,77.82,52.22a17.82,17.82,0,0,0-35.63-.12,25,25,0,0,1,14.9,22.81,25.5,25.5,0,0,1-.41,4.5A31.72,31.72,0,0,0,60,79.6a29.82,29.82,0,0,0,3.58-.21,25.09,25.09,0,0,1-.4-4.47" transform="translate(-0.5 -17.52)"/></g><g id="Capa_7" data-name="Capa 7"><path class="cls-5" d="M19.6,93.59a2.7,2.7,0,0,0-.76-.07,2.9,2.9,0,0,0-2.59,2.37h0V93.73H14v9.48h2.47V99.73c0-1.36,0-3.86,2-3.86a2.53,2.53,0,0,1,1.1.2ZM5.5,90.37l-5,12.84H3.16l1.13-2.95,4.49-2H5l1.85-5.29h0l1.85,5.29,1.82,5h2.85l-5-12.84Zm38.86,11.15c-1.73,0-2.56-1.35-2.56-3.09s1-3,2.51-3a3.7,3.7,0,0,1,1.67.35l.22-2a8.09,8.09,0,0,0-2.39-.31c-3,0-4.58,2.17-4.58,4.91s1.56,5,4.67,5a8,8,0,0,0,2.47-.31l-.11-2a5.25,5.25,0,0,1-1.9.45m7.07-8a4.74,4.74,0,0,0-5,5,4.68,4.68,0,0,0,5,4.9,4.68,4.68,0,0,0,5-4.9,4.74,4.74,0,0,0-5-5m0,8c-1.88,0-2.38-1.71-2.38-3.28s.77-2.81,2.38-2.81,2.39,1.36,2.39,2.81-.5,3.28-2.39,3.28M28,98.72V97.5c0-2.8-1.19-4-4.08-4a8.51,8.51,0,0,0-3.3.72l.08,2.12a5,5,0,0,1,2.92-1c1.45,0,2.14.51,2.14,2H24.4a7.54,7.54,0,0,0-3.18.55,2.78,2.78,0,0,0-1.62,2.7c0,1.81,1.64,2.82,3.31,2.82a3.39,3.39,0,0,0,2.93-1.64h0a12.23,12.23,0,0,0,.11,1.42h2.17c-.05-.74-.09-1.4-.11-2.12s0-1.42,0-2.37m-2.76,2.06a2.09,2.09,0,0,1-1.73.85c-.88,0-1.57-.35-1.57-1.16,0-1.46,1.64-1.64,2.74-1.64h1.07a3.12,3.12,0,0,1-.52,1.95m10.51-2.41c0,1.21-.38,3.15-2.17,3.15C32,101.52,32,100,32,98.79V93.73H29.52v6c0,2.13,1,3.72,3.22,3.72a3.94,3.94,0,0,0,3.11-1.51h0v1.29h2.34V93.73H35.75Z" transform="translate(-0.5 -17.52)"/><path class="cls-5" d="M67.39,91.88a6.65,6.65,0,0,0-2.87-.55c-3.33,0-5.2,2.35-5.2,5.53s1.82,5.53,5.2,5.53a6.35,6.35,0,0,0,2.87-.55l.07,1.1a6.93,6.93,0,0,1-2.94.55c-4,0-6.47-2.67-6.47-6.64s2.5-6.64,6.47-6.64a8.31,8.31,0,0,1,2.94.48Z" transform="translate(-0.5 -17.52)"/><path class="cls-5" d="M73,93.69c3,0,4.38,2.35,4.38,4.91S76,103.5,73,103.5s-4.38-2.35-4.38-4.91S70,93.69,73,93.69m0,8.83c2,0,3.11-1.75,3.11-3.92S75,94.68,73,94.68s-3.11,1.75-3.11,3.92S71,102.51,73,102.51" transform="translate(-0.5 -17.52)"/><path class="cls-5" d="M78.91,96a16.8,16.8,0,0,0-.07-2.1H80v1.8h0a2.78,2.78,0,0,1,2.41-2,3.45,3.45,0,0,1,.81.11V95a3,3,0,0,0-.85-.11c-1.84,0-2.34,2.06-2.34,3.75v4.63H78.91Z" transform="translate(-0.5 -17.52)"/><path class="cls-5" d="M87.72,93.69c3,0,4.38,2.35,4.38,4.91s-1.34,4.91-4.38,4.91-4.38-2.35-4.38-4.91,1.34-4.91,4.38-4.91m0,8.83c2,0,3.11-1.75,3.11-3.92s-1.08-3.92-3.11-3.92-3.11,1.75-3.11,3.92,1.08,3.92,3.11,3.92" transform="translate(-0.5 -17.52)"/><path class="cls-5" d="M93.64,96.11c0-.72,0-1.45-.07-2.21h1.12v1.67h0a3,3,0,0,1,3-1.89c2.32,0,3.2,1.54,3.2,3.6v6H99.8v-5.7c0-1.77-.62-2.91-2.23-2.91-2.11,0-2.78,1.86-2.78,3.42v5.19H93.64Z" transform="translate(-0.5 -17.52)"/><path class="cls-5" d="M109.51,103a7.68,7.68,0,0,1-2.72.51c-3.11,0-4.27-2.1-4.27-4.91s1.58-4.91,4-4.91c2.65,0,3.73,2.13,3.73,4.65v.59h-6.42c0,2,1.07,3.59,3.09,3.59a6,6,0,0,0,2.63-.7Zm-.57-5.06c0-1.64-.66-3.25-2.39-3.25s-2.76,1.71-2.76,3.25Z" transform="translate(-0.5 -17.52)"/><rect class="cls-5" x="111.27" y="71.98" width="1.16" height="13.79"/><path class="cls-5" d="M118.11,89.72c0-.61-.37-.85-1.07-.85H116v2.91h.53V90.52h.33l.75,1.25h.55l-.78-1.28a.72.72,0,0,0,.75-.78m-1.6.39v-.83H117c.28,0,.59.06.59.4s-.28.43-.59.43Z" transform="translate(-0.5 -17.52)"/><path class="cls-5" d="M117,87.76a2.57,2.57,0,1,0,2.54,2.57A2.56,2.56,0,0,0,117,87.76m0,4.65a2.08,2.08,0,1,1,1.92-2.08A2,2,0,0,1,117,92.41" transform="translate(-0.5 -17.52)"/></g></svg>