<svg xmlns="http://www.w3.org/2000/svg" viewBox="0 0 119 101.43"><defs><style>.cls-1{fill:#fff;}.cls-2{fill:#499c2d;}.cls-3{fill:#184287;}.cls-4{fill:#e40521;}.cls-5{fill:#1d1d1b;}</style></defs><title>arauco_premium_outlet</title><g id="Capa_1" data-name="Capa 1"><path class="cls-1" d="M92.45,49.87A32.45,32.45,0,1,1,60,17.52,32.4,32.4,0,0,1,92.45,49.87" transform="translate(-0.5 -17.52)"/><path class="cls-2" d="M89.64,53.21c-.48,0-1,0-1.44,0A21.81,21.81,0,0,0,66.38,74.91a22.33,22.33,0,0,0,.36,3.92,29.8,29.8,0,0,0,22.9-25.62" transform="translate(-0.5 -17.52)"/><path class="cls-2" d="M32.08,53.16c-.58,0-1.15,0-1.71.07A29.79,29.79,0,0,0,53.52,78.89,21.72,21.72,0,0,0,32.08,53.16" transform="translate(-0.5 -17.52)"/><path class="cls-3" d="M32.08,50a25.09,25.09,0,0,1,7,1A21,21,0,0,1,81,51,24.92,24.92,0,0,1,88.19,50c.55,0,1.09,0,1.64.06,0-.06,0-.12,0-.17a29.83,29.83,0,0,0-59.66,0c0,.06,0,.13,0,.19.63,0,1.26-.07,1.9-.07" transform="translate(-0.5 -17.52)"/><path class="cls-4" d="M63.18,74.91A25,25,0,0,1,77.82,52.22a17.82,17.82,0,0,0-35.63-.12,25,25,0,0,1,14.9,22.81,25.5,25.5,0,0,1-.41,4.5A31.72,31.72,0,0,0,60,79.6a29.82,29.82,0,0,0,3.58-.21,25.09,25.09,0,0,1-.4-4.47" transform="translate(-0.5 -17.52)"/></g><g id="Capa_8" data-name="Capa 8"><path class="cls-5" d="M35.22,100.2h6.28l1.34,3.34h1.28L39.17,91.09H37.78l-5.1,12.45h1.2Zm3.17-7.94,2.7,6.87H35.68ZM34.7,109.36A3.15,3.15,0,0,0,31.84,111a2.69,2.69,0,0,0-2.7-1.62,3.23,3.23,0,0,0-2.72,1.49h0v-1.28H24.16v9.16h2.38v-4.44c0-1.19.19-3.08,1.77-3.08,1.37,0,1.37,1.21,1.37,2.06v5.46h2.38v-4.44c0-1.19.19-3.08,1.77-3.08,1.37,0,1.37,1.21,1.37,2.06v5.46h2.38v-5.78c0-2-.64-3.59-2.89-3.59m-31.05-3H.5v12.41H3V114H4c2.66,0,4.78-1.05,4.78-3.94s-2.47-3.76-5.17-3.76m.22,5.74H3v-3.78h.87c1.28,0,2.36.5,2.36,1.93s-1.11,1.85-2.36,1.85m97.21,6.67h2.38v-12.5h-2.38Zm-82.21-9.37c-2.84,0-4.25,2.19-4.25,4.84,0,3,1.76,4.75,4.79,4.75a6.31,6.31,0,0,0,3.14-.73v-1.94a6.19,6.19,0,0,1-3,.93,2.4,2.4,0,0,1-2.61-2.31h6.32c0-3.2-1-5.53-4.35-5.53m-2,3.9A2.08,2.08,0,0,1,19,111.1c1.33,0,1.87,1,1.93,2.15Zm82.38,3.84c-.9,0-1.12-.73-1.12-1.51v-4.27h2.11v-1.75H98.16V107l-2.38.76v1.83H94v1.75h1.76V116a2.69,2.69,0,0,0,2.89,3,6.35,6.35,0,0,0,1.76-.21l-.07-1.88a2.17,2.17,0,0,1-1.09.25m-84.34-7.66a2.36,2.36,0,0,0-.73-.08,2.81,2.81,0,0,0-2.51,2.29h0v-2.08H9.55v9.16h2.38v-3.36c0-1.31,0-3.73,1.94-3.73a2.42,2.42,0,0,1,1.06.19Zm24.33-.86h2.38V106.3H39.26Zm21.79-4.82A2.88,2.88,0,0,0,64,101.92h0v1.62h1.09c-.07-.73-.07-1.45-.07-2.14v-7H63.93v5c0,1.52-.65,3.32-2.7,3.32-1.55,0-2.16-1.11-2.16-2.82V94.44H57.95v5.82c0,2,.86,3.5,3.11,3.5m16.72,2.35c-3.94,0-6.08,2.58-6.08,6.38s2.1,6.45,6.08,6.45,6.08-2.7,6.08-6.45-2.19-6.38-6.08-6.38m0,10.88c-2.54,0-3.49-2.25-3.49-4.49s1-4.43,3.49-4.43,3.48,2.24,3.48,4.43S80.31,117,77.78,117m-.22-13.23c2.95,0,4.25-2.28,4.25-4.77s-1.3-4.77-4.25-4.77S73.31,96.51,73.31,99s1.3,4.77,4.25,4.77m0-8.57c2,0,3,1.7,3,3.8s-1.05,3.8-3,3.8-3-1.7-3-3.8,1.05-3.8,3-3.8m-25.34,8.57a3.22,3.22,0,0,0,2.89-1.68h0v1.47h1.11a13.33,13.33,0,0,1-.09-1.91v-4c0-2.37-.95-3.39-3.2-3.39a7.05,7.05,0,0,0-2.67.63v1.09A4.83,4.83,0,0,1,53,95.19c1.52,0,2.07.79,2.07,2.34V98h-.21c-2.36,0-5.6.14-5.6,3.19,0,.82.41,2.57,3,2.57m2.5-4.8H55v.55c0,1-.05,3.29-2.69,3.29-1,0-1.89-.45-1.89-1.64,0-2,2.32-2.19,4.26-2.19m-9.85,4.59H46V99c0-1.64.48-3.64,2.27-3.64a3,3,0,0,1,.82.1V94.33a3.24,3.24,0,0,0-.78-.11,2.7,2.7,0,0,0-2.34,2h0V94.44H44.79a15.55,15.55,0,0,1,.08,2Zm63.86,5.82c-2.85,0-4.25,2.19-4.25,4.84,0,3,1.76,4.75,4.78,4.75a6.34,6.34,0,0,0,3.15-.73v-1.94a6.19,6.19,0,0,1-3,.93,2.39,2.39,0,0,1-2.61-2.31h6.32c0-3.2-1-5.53-4.35-5.53m-2,3.9a2.07,2.07,0,0,1,2.11-2.15c1.33,0,1.87,1,1.94,2.15Zm12.67,3.59a2.13,2.13,0,0,1-1.08.25c-.9,0-1.12-.73-1.12-1.51v-4.27h2.12v-1.75h-2.12V107l-2.38.76v1.83h-1.76v1.75h1.76V116a2.69,2.69,0,0,0,2.9,3,6.43,6.43,0,0,0,1.76-.21ZM73,103.43l-.1-1a5.86,5.86,0,0,1-2.05.41c-2.05,0-3.3-1.73-3.3-3.8s1.23-3.8,3.42-3.8a5.2,5.2,0,0,1,2,.46L73,94.58a6.72,6.72,0,0,0-2.19-.36c-2.7,0-4.49,2-4.49,4.77,0,2.53,1.42,4.77,4.35,4.77a6.65,6.65,0,0,0,2.34-.33M85.93,94c0-.48-.3-.67-.84-.67h-.85V95.6h.42v-1h.25l.59,1h.44l-.61-1a.57.57,0,0,0,.6-.61m-1.27.3v-.65H85c.22,0,.46,0,.46.32s-.22.33-.47.33Zm6.39,19.76c0,1.17-.38,3-2.1,3-1.53,0-1.55-1.51-1.55-2.63v-4.89H85v5.78c0,2.06.94,3.59,3.11,3.59a3.84,3.84,0,0,0,3-1.45h0v1.24h2.26v-9.16H91.05ZM87,94.47a2,2,0,1,0-2,2,2,2,0,0,0,2-2m-2,1.62a1.62,1.62,0,1,1,1.52-1.62A1.54,1.54,0,0,1,85,96.09M41.54,109.57H39.16v9.16h2.38Zm17.08,3.7v5.46H61v-4.44c0-1.19.19-3.08,1.78-3.08,1.37,0,1.37,1.21,1.37,2.06v5.46h2.38v-5.78c0-2-.64-3.59-2.89-3.59A3.16,3.16,0,0,0,60.76,111a2.68,2.68,0,0,0-2.7-1.62,3.23,3.23,0,0,0-2.72,1.49h0v-1.28H53.09v9.16h2.38v-4.44c0-1.19.2-3.08,1.78-3.08,1.37,0,1.37,1.21,1.37,2.06m-7.06,5.46v-9.16H49.18v4.48c0,1.17-.37,3-2.09,3-1.53,0-1.55-1.51-1.55-2.63v-4.89H43.16v5.78c0,2.06.94,3.59,3.11,3.59a3.83,3.83,0,0,0,3-1.45h0v1.24Z" transform="translate(-0.5 -17.52)"/></g></svg>