<svg xmlns="http://www.w3.org/2000/svg" viewBox="0 0 119 86.33"><defs><style>.cls-1{fill:#fff;}.cls-2{fill:#499c2d;}.cls-3{fill:#184287;}.cls-4{fill:#e40521;}.cls-5{fill:#1d1d1b;}</style></defs><title>arauco_san_antonio</title><g id="Capa_1" data-name="Capa 1"><path class="cls-1" d="M92.45,49.87A32.45,32.45,0,1,1,60,17.52,32.4,32.4,0,0,1,92.45,49.87" transform="translate(-0.5 -17.52)"/><path class="cls-2" d="M89.64,53.21c-.48,0-1,0-1.44,0A21.81,21.81,0,0,0,66.38,74.91a22.33,22.33,0,0,0,.36,3.92,29.8,29.8,0,0,0,22.9-25.62" transform="translate(-0.5 -17.52)"/><path class="cls-2" d="M32.08,53.16c-.58,0-1.15,0-1.71.07A29.79,29.79,0,0,0,53.52,78.89,21.72,21.72,0,0,0,32.08,53.16" transform="translate(-0.5 -17.52)"/><path class="cls-3" d="M32.08,50a25.09,25.09,0,0,1,7,1A21,21,0,0,1,81,51,24.92,24.92,0,0,1,88.19,50c.55,0,1.09,0,1.64.06,0-.06,0-.12,0-.17a29.83,29.83,0,0,0-59.66,0c0,.06,0,.13,0,.19.63,0,1.26-.07,1.9-.07" transform="translate(-0.5 -17.52)"/><path class="cls-4" d="M63.18,74.91A25,25,0,0,1,77.82,52.22a17.82,17.82,0,0,0-35.63-.12,25,25,0,0,1,14.9,22.81,25.5,25.5,0,0,1-.41,4.5A31.72,31.72,0,0,0,60,79.6a29.82,29.82,0,0,0,3.58-.21,25.09,25.09,0,0,1-.4-4.47" transform="translate(-0.5 -17.52)"/></g><g id="Capa_5" data-name="Capa 5"><path class="cls-5" d="M48.46,95.58c0-1.37,1.2-1.83,2.3-1.83a4.32,4.32,0,0,1,1.94.4l.17-1a6.38,6.38,0,0,0-2.09-.35c-1.88,0-3.37,1.07-3.37,2.78,0,2.79,4.88,3,4.88,5.14a2.13,2.13,0,0,1-2.4,2.18,4.19,4.19,0,0,1-2.35-.63l-.11,1.08a6.07,6.07,0,0,0,2.41.46c1.65,0,3.49-.85,3.49-3,0-3.11-4.88-3.12-4.88-5.26M23.34,99.91v-1c0-2.32-1-3.32-3.39-3.32a7,7,0,0,0-2.73.6l.06,1.76a4.08,4.08,0,0,1,2.43-.85c1.2,0,1.77.42,1.77,1.69H20.34a6.19,6.19,0,0,0-2.65.46,2.3,2.3,0,0,0-1.34,2.24,2.51,2.51,0,0,0,2.75,2.34,2.81,2.81,0,0,0,2.43-1.36h0a9,9,0,0,0,.09,1.17h1.8c0-.61-.08-1.16-.09-1.76s0-1.17,0-2M21,101.62a1.74,1.74,0,0,1-1.43.7c-.73,0-1.3-.29-1.3-1,0-1.21,1.36-1.36,2.28-1.36h.89a2.62,2.62,0,0,1-.43,1.62m21.74-6a3.94,3.94,0,0,0-4.11,4.17,3.89,3.89,0,0,0,4.11,4.07,3.89,3.89,0,0,0,4.12-4.07,3.94,3.94,0,0,0-4.12-4.17m0,6.65c-1.56,0-2-1.42-2-2.72a2,2,0,1,1,4,0c0,1.32-.42,2.72-2,2.72M4.65,93,.5,103.64H2.71l.93-2.44,3.72-1.68H4.26l1.54-4.4h0l1.54,4.4,1.51,4.12h2.37L7.07,93Zm25.11,6.65c0,1-.32,2.61-1.8,2.61-1.31,0-1.33-1.3-1.33-2.26v-4.2h-2v5c0,1.77.81,3.08,2.67,3.08a3.28,3.28,0,0,0,2.58-1.25h0v1.07h1.94V95.77h-2Zm-13.41-4a2.18,2.18,0,0,0-.63-.06,2.41,2.41,0,0,0-2.15,2h0V95.77H11.73v7.87h2v-2.89c0-1.13,0-3.2,1.66-3.2a2.11,2.11,0,0,1,.92.17Zm20.56,6.59c-1.43,0-2.12-1.11-2.12-2.57s.81-2.5,2.08-2.5a3.07,3.07,0,0,1,1.39.3l.18-1.62a6.55,6.55,0,0,0-2-.26c-2.46,0-3.8,1.8-3.8,4.08s1.29,4.15,3.88,4.15a6.72,6.72,0,0,0,2-.26l-.09-1.7a4.3,4.3,0,0,1-1.58.37m80.46-11.45a2.16,2.16,0,1,0,2.13,2.16,2.15,2.15,0,0,0-2.13-2.16m0,3.9A1.75,1.75,0,1,1,119,92.95a1.65,1.65,0,0,1-1.61,1.74m-9.48,9h1V95.89h-1ZM108.82,93h-1v1.28h1Zm9.51-.56c0-.51-.31-.71-.9-.71h-.9v2.45H117V93.11h.27l.63,1.05h.46l-.66-1.07a.61.61,0,0,0,.64-.66m-1.35.33v-.7h.4c.23,0,.49,0,.49.34s-.23.36-.5.36Zm-3.22,2.94c-2.52,0-3.63,2-3.63,4.07s1.11,4.08,3.63,4.08,3.63-2,3.63-4.08-1.11-4.07-3.63-4.07m0,7.32c-1.68,0-2.58-1.45-2.58-3.25s.9-3.25,2.58-3.25,2.58,1.45,2.58,3.25-.9,3.25-2.58,3.25M103.35,95.7a2.46,2.46,0,0,0-2.52,1.57h0V95.89h-.93c.06.62.06,1.23.06,1.83v5.95h1v-4.3c0-1.3.55-2.84,2.3-2.84,1.33,0,1.85.94,1.85,2.41v4.73h1v-5c0-1.71-.73-3-2.65-3M90.07,103c-.78,0-1-.58-1-1.28v-5H90.8v-.82H89V93.67l-1,.34v1.88H86.54v.82h1.53v4.55c0,1.42.06,2.59,1.77,2.59a3.5,3.5,0,0,0,1.18-.21l-.06-.8a2.19,2.19,0,0,1-.88.18m5-7.32c-2.52,0-3.63,2-3.63,4.07s1.11,4.08,3.63,4.08,3.63-2,3.63-4.08S97.54,95.7,95,95.7M95,103c-1.68,0-2.58-1.45-2.58-3.25s.9-3.25,2.58-3.25S97.6,98,97.6,99.77,96.7,103,95,103M73.21,93l-4.36,10.65h1L71,100.81h5.37l1.14,2.85h1.1L74.4,93Zm-1.8,6.88L73.73,94,76,99.9ZM65.33,95.7a2.46,2.46,0,0,0-2.52,1.57h0V95.89h-.93c.06.62.06,1.23.06,1.83v5.95h1v-4.3c0-1.3.55-2.84,2.3-2.84,1.33,0,1.85.94,1.85,2.41v4.73h1v-5c0-1.71-.73-3-2.65-3m17.59,0a2.47,2.47,0,0,0-2.52,1.57h0V95.89h-.93c.06.62.06,1.23.06,1.83v5.95h1v-4.3c0-1.3.55-2.84,2.3-2.84,1.33,0,1.84.94,1.84,2.41v4.73h1v-5c0-1.71-.73-3-2.65-3M60.15,98.6c0-2-.81-2.9-2.73-2.9a6.11,6.11,0,0,0-2.29.53v.93a4.12,4.12,0,0,1,2.29-.64c1.3,0,1.77.67,1.77,2v.4H59c-2,0-4.79.12-4.79,2.73,0,.7.35,2.2,2.56,2.2a2.74,2.74,0,0,0,2.47-1.44h0v1.25h.95a10.84,10.84,0,0,1-.08-1.63Zm-1,1.61c0,.84,0,2.81-2.3,2.81-.88,0-1.62-.38-1.62-1.4,0-1.71,2-1.88,3.65-1.88h.27Z" transform="translate(-0.5 -17.52)"/></g></svg>