<svg xmlns="http://www.w3.org/2000/svg" viewBox="0 0 119 88.51"><defs><style>.cls-1{fill:#fff;}.cls-2{fill:#499c2d;}.cls-3{fill:#184287;}.cls-4{fill:#e40521;}.cls-5{fill:#1d1d1b;}</style></defs><title>arauco_quilicura</title><g id="Capa_1" data-name="Capa 1"><path class="cls-1" d="M92.45,49.87A32.45,32.45,0,1,1,60,17.52,32.4,32.4,0,0,1,92.45,49.87" transform="translate(-0.5 -17.52)"/><path class="cls-2" d="M89.64,53.21c-.48,0-1,0-1.44,0A21.81,21.81,0,0,0,66.38,74.91a22.33,22.33,0,0,0,.36,3.92,29.8,29.8,0,0,0,22.9-25.62" transform="translate(-0.5 -17.52)"/><path class="cls-2" d="M32.08,53.16c-.58,0-1.15,0-1.71.07A29.79,29.79,0,0,0,53.52,78.89,21.72,21.72,0,0,0,32.08,53.16" transform="translate(-0.5 -17.52)"/><path class="cls-3" d="M32.08,50a25.09,25.09,0,0,1,7,1A21,21,0,0,1,81,51,24.92,24.92,0,0,1,88.19,50c.55,0,1.09,0,1.64.06,0-.06,0-.12,0-.17a29.83,29.83,0,0,0-59.66,0c0,.06,0,.13,0,.19.63,0,1.26-.07,1.9-.07" transform="translate(-0.5 -17.52)"/><path class="cls-4" d="M63.18,74.91A25,25,0,0,1,77.82,52.22a17.82,17.82,0,0,0-35.63-.12,25,25,0,0,1,14.9,22.81,25.5,25.5,0,0,1-.41,4.5A31.72,31.72,0,0,0,60,79.6a29.82,29.82,0,0,0,3.58-.21,25.09,25.09,0,0,1-.4-4.47" transform="translate(-0.5 -17.52)"/></g><g id="Capa_4" data-name="Capa 4"><path class="cls-5" d="M27.53,99.28v-1.2c0-2.75-1.18-3.92-4-3.92a8.36,8.36,0,0,0-3.24.7l.07,2.08a4.9,4.9,0,0,1,2.88-1c1.42,0,2.1.51,2.1,2H24a7.4,7.4,0,0,0-3.13.54,2.73,2.73,0,0,0-1.59,2.66c0,1.77,1.61,2.77,3.25,2.77a3.32,3.32,0,0,0,2.87-1.61h0a12.2,12.2,0,0,0,.11,1.4h2.13c-.05-.73-.09-1.38-.11-2.08s0-1.39,0-2.33m-2.72,2a2,2,0,0,1-1.69.83c-.87,0-1.54-.34-1.54-1.14,0-1.43,1.61-1.61,2.7-1.61h1.05a3,3,0,0,1-.51,1.92m25.73-7.14a4.66,4.66,0,0,0-4.86,4.93,4.59,4.59,0,0,0,4.86,4.81,4.6,4.6,0,0,0,4.88-4.81,4.66,4.66,0,0,0-4.88-4.93m0,7.87c-1.84,0-2.33-1.68-2.33-3.22S49,96,50.55,96s2.35,1.34,2.35,2.77S52.41,102,50.55,102m-45.13-11L.5,103.69H3.12l1.1-2.9,4.42-2H4.95L6.77,93.6h0l1.83,5.21,1.78,4.88h2.8l-5-12.62Zm13.85,3.16a2.71,2.71,0,0,0-.74-.07A2.85,2.85,0,0,0,16,96.5h0V94.38H13.79v9.32h2.42v-3.42c0-1.34,0-3.8,2-3.8a2.48,2.48,0,0,1,1.09.2Zm15.87,4.7c0,1.2-.38,3.1-2.13,3.1-1.56,0-1.57-1.54-1.57-2.68v-5H29v5.88c0,2.1,1,3.65,3.16,3.65a3.89,3.89,0,0,0,3.06-1.48h0v1.27h2.3V94.38H35.14ZM43.6,102c-1.7,0-2.51-1.32-2.51-3s1-2.94,2.46-2.94a3.68,3.68,0,0,1,1.65.34l.22-1.91a7.8,7.8,0,0,0-2.36-.31c-2.91,0-4.5,2.14-4.5,4.82,0,2.84,1.54,4.92,4.59,4.92a7.94,7.94,0,0,0,2.43-.31l-.11-2a5.1,5.1,0,0,1-1.87.44m32.73-7.51H75.2v5.07c0,1.53-.65,3.34-2.72,3.34-1.57,0-2.17-1.11-2.17-2.84V94.52H69.18v5.86c0,2,.86,3.52,3.13,3.52a2.91,2.91,0,0,0,3-1.86h0v1.64h1.1c-.07-.73-.07-1.45-.07-2.16Zm-8.91,2.9c0-3.4-1.74-6.49-5.52-6.49S56.34,94,56.38,97.42c0,3.85,1.91,6.49,5.52,6.49a4.5,4.5,0,0,0,.52,0c.18,0,.34,0,.51-.07L65.15,106h1.66l-2.64-2.55c2.13-.86,3.22-3.11,3.26-6.06m-5.52,5.41c-2.95,0-4.28-2.75-4.28-5.41S58.95,92,61.9,92s4.28,2.75,4.28,5.41-1.33,5.41-4.28,5.41M117,97.72c0-2.39-1-3.42-3.22-3.42a7.2,7.2,0,0,0-2.7.63V96a4.87,4.87,0,0,1,2.7-.75c1.53,0,2.08.79,2.08,2.35v.47h-.21c-2.37,0-5.65.15-5.65,3.22,0,.83.42,2.59,3,2.59a3.22,3.22,0,0,0,2.91-1.69h0v1.47h1.11a12.86,12.86,0,0,1-.09-1.92Zm-1.13,1.91c0,1-.05,3.31-2.71,3.31-1,0-1.91-.45-1.91-1.65,0-2,2.34-2.21,4.3-2.21h.32Zm-9.42-3.34h0V94.52h-1.13a16.29,16.29,0,0,1,.07,2v7.12h1.13V99.16c0-1.65.48-3.67,2.28-3.67a3,3,0,0,1,.83.11V94.41a3.14,3.14,0,0,0-.79-.11,2.71,2.71,0,0,0-2.35,2m11.68-5.84c0-.61-.37-.84-1.05-.84H116v2.88h.53V91.23h.32l.74,1.24h.55l-.77-1.26a.72.72,0,0,0,.75-.78m-1.59.39V90H117c.27,0,.58.05.58.4s-.27.43-.59.43ZM117,88.5A2.55,2.55,0,1,0,119.5,91,2.54,2.54,0,0,0,117,88.5m0,4.6a2.06,2.06,0,1,1,1.9-2.05A1.94,1.94,0,0,1,117,93.1m-13.85,1.42H102v5.07c0,1.53-.65,3.34-2.71,3.34-1.56,0-2.17-1.11-2.17-2.84V94.52H96v5.86c0,2,.86,3.52,3.13,3.52a2.92,2.92,0,0,0,3-1.86h0v1.64h1.1c-.07-.73-.07-1.45-.07-2.16ZM85.27,92.66h1.14V91.15H85.27Zm7.37,2.62a5.13,5.13,0,0,1,2,.47l.09-1.08a7,7,0,0,0-2.21-.36c-2.72,0-4.53,2-4.53,4.8,0,2.55,1.44,4.8,4.39,4.8a6.82,6.82,0,0,0,2.35-.33l-.11-1.06a5.89,5.89,0,0,1-2.07.42c-2.07,0-3.33-1.75-3.33-3.83,0-2.23,1.24-3.83,3.45-3.83m-14.09,8.41h1.13V94.52H78.55Zm3.36,0H83V90.2H81.91ZM79.63,91.15H78.5v1.51h1.13Zm5.64,12.54H86.4V94.52H85.27Z" transform="translate(-0.5 -17.52)"/></g></svg>