<svg xmlns="http://www.w3.org/2000/svg" viewBox="0 0 119 86.94"><defs><style>.cls-1{fill:#fff;}.cls-2{fill:#499c2d;}.cls-3{fill:#184287;}.cls-4{fill:#e40521;}.cls-5{fill:#1d1d1b;}</style></defs><title>arauco_chillan</title><g id="Capa_1" data-name="Capa 1"><path class="cls-1" d="M92.45,49.87A32.45,32.45,0,1,1,60,17.52,32.4,32.4,0,0,1,92.45,49.87" transform="translate(-0.5 -17.52)"/><path class="cls-2" d="M89.64,53.21c-.48,0-1,0-1.44,0A21.81,21.81,0,0,0,66.38,74.91a22.33,22.33,0,0,0,.36,3.92,29.8,29.8,0,0,0,22.9-25.62" transform="translate(-0.5 -17.52)"/><path class="cls-2" d="M32.08,53.16c-.58,0-1.15,0-1.71.07A29.79,29.79,0,0,0,53.52,78.89,21.72,21.72,0,0,0,32.08,53.16" transform="translate(-0.5 -17.52)"/><path class="cls-3" d="M32.08,50a25.09,25.09,0,0,1,7,1A21,21,0,0,1,81,51,24.92,24.92,0,0,1,88.19,50c.55,0,1.09,0,1.64.06,0-.06,0-.12,0-.17a29.83,29.83,0,0,0-59.66,0c0,.06,0,.13,0,.19.63,0,1.26-.07,1.9-.07" transform="translate(-0.5 -17.52)"/><path class="cls-4" d="M63.18,74.91A25,25,0,0,1,77.82,52.22a17.82,17.82,0,0,0-35.63-.12,25,25,0,0,1,14.9,22.81,25.5,25.5,0,0,1-.41,4.5A31.72,31.72,0,0,0,60,79.6a29.82,29.82,0,0,0,3.58-.21,25.09,25.09,0,0,1-.4-4.47" transform="translate(-0.5 -17.52)"/></g><g id="Capa_6" data-name="Capa 6"><path class="cls-5" d="M30.82,99.25V97.91c0-3.08-1.32-4.4-4.5-4.4a9.38,9.38,0,0,0-3.64.79l.09,2.33A5.46,5.46,0,0,1,26,95.5c1.6,0,2.36.57,2.36,2.25h-1.5a8.3,8.3,0,0,0-3.51.61,3.07,3.07,0,0,0-1.78,3c0,2,1.81,3.1,3.65,3.1a3.74,3.74,0,0,0,3.23-1.8h0a13.11,13.11,0,0,0,.12,1.56H31c-.06-.81-.1-1.54-.12-2.34s0-1.56,0-2.61m-3,2.27a2.3,2.3,0,0,1-1.9.93c-1,0-1.73-.38-1.73-1.28,0-1.61,1.8-1.8,3-1.8h1.18a3.45,3.45,0,0,1-.57,2.15m21.07.82c-1.9,0-2.82-1.48-2.82-3.41s1.08-3.31,2.76-3.31a4.08,4.08,0,0,1,1.84.39l.24-2.15a8.89,8.89,0,0,0-2.64-.34c-3.27,0-5,2.39-5,5.41,0,3.18,1.72,5.52,5.15,5.52a8.87,8.87,0,0,0,2.72-.35l-.12-2.25a5.78,5.78,0,0,1-2.09.49m-9.49-3.47c0,1.34-.42,3.47-2.39,3.47-1.75,0-1.77-1.73-1.77-3V93.76H32.48v6.59c0,2.35,1.07,4.1,3.55,4.1a4.35,4.35,0,0,0,3.43-1.66h0v1.42h2.58V93.76H39.35Zm-17.8-5.28a3,3,0,0,0-.83-.08,3.2,3.2,0,0,0-2.86,2.62h0V93.76H15.4V104.2h2.72v-3.84c0-1.5,0-4.26,2.21-4.26a2.79,2.79,0,0,1,1.22.22Zm35.09-.08A5.23,5.23,0,0,0,51.18,99a5.16,5.16,0,0,0,5.46,5.4A5.16,5.16,0,0,0,62.11,99a5.23,5.23,0,0,0-5.47-5.53m0,8.82c-2.07,0-2.62-1.89-2.62-3.61,0-1.56.85-3.1,2.62-3.1s2.63,1.5,2.63,3.1-.55,3.61-2.63,3.61m48-12.39H103l-1.76,2.75h.94ZM6,90,.5,104.2H3.43L4.67,101l4.95-2.23H5.49l2-5.83h0l2,5.83,2,5.48h3.14L9.22,90ZM95.1,104.21h1.29V88.87H95.1ZM113,93.54a3.31,3.31,0,0,0-3.38,2.11h0V93.78h-1.25c.08.84.08,1.66.08,2.46v8h1.29V98.44c0-1.74.74-3.8,3.09-3.8,1.78,0,2.48,1.27,2.48,3.23v6.34h1.29V97.54c0-2.29-1-4-3.56-4M91.27,104.21h1.29V88.87H91.27Zm-3.83,0h1.29V93.78H87.45Zm18.63-6.79c0-2.72-1.08-3.88-3.66-3.88a8.27,8.27,0,0,0-3.07.71V95.5a5.56,5.56,0,0,1,3.07-.86c1.74,0,2.37.9,2.37,2.68v.53h-.25c-2.7,0-6.42.16-6.42,3.66,0,.94.47,2.95,3.44,2.95a3.67,3.67,0,0,0,3.31-1.92h0v1.68h1.27a14.71,14.71,0,0,1-.1-2.19Zm-1.29,2.17c0,1.12-.06,3.76-3.09,3.76-1.18,0-2.17-.51-2.17-1.88,0-2.29,2.66-2.51,4.89-2.51h.37ZM81.38,93.54a3.54,3.54,0,0,0-3.25,2h0V88.87H76.8v15.34h1.29V98.63c0-1.82.8-4,3.09-4,2.12,0,2.47,1.55,2.47,3.35v6.22h1.29V98c0-2.58-.76-4.44-3.56-4.44M70.62,90.92a7.41,7.41,0,0,1,3.19.62l.08-1.31a9.21,9.21,0,0,0-3.27-.53c-4.42,0-7.2,3-7.2,7.38s2.7,7.38,7.2,7.38a7.77,7.77,0,0,0,3.27-.61l-.08-1.23a7.08,7.08,0,0,1-3.19.61c-3.76,0-5.79-2.56-5.79-6.16s2.09-6.16,5.79-6.16M88.73,90H87.44V91.7h1.29Zm29.21-.68c0-.69-.42-1-1.2-1h-1.21v3.28h.6V90.21h.37l.84,1.41H118l-.88-1.44a.81.81,0,0,0,.85-.88m-1.8.44v-.94h.54c.31,0,.66.06.66.45s-.31.49-.66.49Zm.51-2.65A2.9,2.9,0,1,0,119.5,90a2.89,2.89,0,0,0-2.86-2.89m0,5.23A2.34,2.34,0,1,1,118.8,90a2.22,2.22,0,0,1-2.16,2.34" transform="translate(-0.5 -17.52)"/></g></svg>