<?xml version="1.0" encoding="utf-8"?>
<!-- Generator: Adobe Illustrator 21.0.2, SVG Export Plug-In . SVG Version: 6.00 Build 0)  -->
<svg version="1.1" xmlns="http://www.w3.org/2000/svg" xmlns:xlink="http://www.w3.org/1999/xlink" x="0px" y="0px"
	 viewBox="0 0 120 120" style="enable-background:new 0 0 120 120;" xml:space="preserve">
<style type="text/css">
	.st0{fill:#FFFFFF;}
	.st1{fill:#499C2D;}
	.st2{fill:#184287;}
	.st3{fill:#E40521;}
	.st4{fill:#1D1D1C;}
	.st5{display:none;}
	.st6{display:inline;}
	.st7{fill:#1D1D1B;}
	.st8{fill:#499B2D;}
	.st9{fill:#E30521;}
	.st10{fill:#184286;}
	.st11{fill:none;}
</style>
<g id="parque_arauco">
	<g>
		<path class="st0" d="M92.4,42.6c0,18.8-15.2,34-34,34c-18.8,0-34-15.2-34-34c0-18.8,15.2-34,34-34C77.2,8.7,92.4,23.9,92.4,42.6"
			/>
		<path class="st1" d="M89.4,46.1c-0.5,0-1-0.1-1.5-0.1c-12.6,0-22.8,10.2-22.8,22.8c0,1.4,0.1,2.8,0.4,4.1
			C78.2,70.1,88,59.4,89.4,46.1"/>
		<path class="st2" d="M29.2,42.7c2.5,0,5,0.4,7.3,1c0.8-11.4,10.3-20.4,21.9-20.4c11.6,0,21.2,9.1,22,20.5c2.4-0.7,4.9-1.1,7.6-1.1
			c0.6,0,1.1,0,1.7,0.1c0-0.1,0-0.1,0-0.2c0-17.2-14-31.2-31.2-31.2c-17.3,0-31.2,14-31.2,31.2c0,0.1,0,0.1,0,0.2
			C27.8,42.8,28.5,42.7,29.2,42.7"/>
		<path class="st3" d="M61.7,68.9c0-10.6,6.3-19.7,15.3-23.8c-0.1-10.2-8.4-18.4-18.6-18.4C48.2,26.7,40,34.9,39.8,45
			c9.2,4.1,15.6,13.3,15.6,24c0,1.6-0.1,3.2-0.4,4.7c1.1,0.1,2.3,0.2,3.5,0.2c1.3,0,2.5-0.1,3.8-0.2C61.9,72.1,61.7,70.5,61.7,68.9"
			/>
		<path class="st1" d="M29.2,46.1c-0.6,0-1.2,0-1.8,0.1c1.5,13.3,11.4,24.1,24.3,26.9c0.3-1.4,0.4-2.7,0.4-4.2
			C52,56.3,41.8,46.1,29.2,46.1"/>
		<path class="st4" d="M0,81h3.6c2.7,0,4.5,1.4,4.5,4.2c0,2.7-2.1,4.2-4.7,4.2h-2v6.4H0V81z M1.4,88.1h1c2.2,0,4.2-0.3,4.2-2.9
			c0-1.9-1-2.9-2.9-2.9H1.4V88.1z"/>
		<path class="st4" d="M15.4,94L15.4,94c-0.6,1.3-2.1,2-3.4,2c-3,0-3.5-2.1-3.5-3.1c0-3.6,3.8-3.8,6.6-3.8h0.3v-0.5
			c0-1.8-0.7-2.8-2.4-2.8c-1.1,0-2.2,0.3-3.1,0.9v-1.3c0.8-0.4,2.2-0.7,3.1-0.7c2.6,0,3.7,1.2,3.7,4v4.8c0,0.9,0,1.5,0.1,2.3h-1.3
			V94z M15.3,90.3h-0.4c-2.3,0-5,0.2-5,2.6c0,1.4,1,2,2.2,2c3.1,0,3.2-2.7,3.2-3.9V90.3z"/>
		<path class="st4" d="M18.7,87.4c0-1.2,0-1.6-0.1-2.4h1.3V87h0c0.5-1.2,1.4-2.3,2.7-2.3c0.3,0,0.7,0.1,0.9,0.1v1.4
			c-0.3-0.1-0.6-0.1-1-0.1c-2.1,0-2.7,2.4-2.7,4.3v5.3h-1.3V87.4z"/>
		<path class="st4" d="M32.7,100.2h-1.3v-6.3h0C30.7,95.3,29.7,96,28,96c-2.9,0-4.4-2.5-4.4-5.7c0-3.3,1.3-5.7,4.4-5.7
			c2.3,0,3.1,1.6,3.3,2h0v-1.8h1.3V100.2z M28.2,94.9c2.3,0,3.2-2.5,3.2-4.5c0-2-0.8-4.5-3.2-4.5c-2.5,0-3.2,2.4-3.2,4.5
			C25.1,92.4,25.7,94.9,28.2,94.9"/>
		<path class="st4" d="M43.2,93.2c0,0.8,0,1.7,0.1,2.5H42v-1.9h0c-0.4,1-1.2,2.2-3.5,2.2c-2.6,0-3.6-1.8-3.6-4.2v-6.9h1.3v6.6
			c0,2,0.7,3.4,2.5,3.4c2.4,0,3.2-2.1,3.2-3.9v-6h1.3V93.2z"/>
		<path class="st4" d="M52.6,95.4c-0.9,0.4-2.1,0.6-3.1,0.6c-3.5,0-4.9-2.4-4.9-5.7c0-3.3,1.8-5.7,4.5-5.7c3,0,4.2,2.5,4.2,5.4v0.7
			h-7.3c0,2.3,1.2,4.1,3.5,4.1c1,0,2.4-0.4,3-0.8V95.4z M51.9,89.6c0-1.9-0.8-3.7-2.7-3.7c-1.9,0-3.1,2-3.1,3.7H51.9z"/>
		<path class="st4" d="M59.1,81l3.3,0l5.7,14.8h-3.2L62.8,90l-5.1,2.3l-1.3,3.4h-3L59.1,81z M60.7,83.9L60.7,83.9L58.5,90h4.3
			L60.7,83.9z"/>
		<path class="st4" d="M68.8,84.8h2.5v2.5h0c0.1-1,1.3-2.7,3-2.7c0.3,0,0.6,0,0.9,0.1v2.9c-0.3-0.1-0.8-0.2-1.3-0.2
			c-2.3,0-2.3,2.9-2.3,4.4v4h-2.8V84.8z"/>
		<path class="st4" d="M76.3,85.4c1.1-0.5,2.6-0.8,3.8-0.8c3.3,0,4.6,1.4,4.6,4.6v1.4c0,1.1,0,1.9,0,2.7c0,0.8,0.1,1.6,0.1,2.4h-2.5
			c-0.1-0.6-0.1-1.3-0.1-1.6h0c-0.7,1.2-2.1,1.9-3.3,1.9c-1.9,0-3.8-1.2-3.8-3.2c0-1.6,0.8-2.6,1.8-3.1c1.1-0.5,2.5-0.6,3.6-0.6h1.6
			c0-1.8-0.8-2.4-2.4-2.4c-1.2,0-2.4,0.5-3.3,1.2L76.3,85.4z M79.6,93.9c0.9,0,1.5-0.4,2-1c0.5-0.6,0.6-1.4,0.6-2.2h-1.2
			c-1.3,0-3.1,0.2-3.1,1.9C77.8,93.5,78.6,93.9,79.6,93.9"/>
		<path class="st4" d="M96.3,95.7h-2.7v-1.5h0c-0.9,1.1-2.1,1.7-3.5,1.7c-2.6,0-3.7-1.8-3.7-4.3v-6.9h2.8v5.8c0,1.3,0,3.1,1.8,3.1
			c2,0,2.5-2.2,2.5-3.6v-5.3h2.8V95.7z"/>
		<path class="st4" d="M105.2,87.2c-0.5-0.2-1.1-0.4-1.9-0.4c-1.7,0-2.8,1.4-2.8,3.5c0,2,0.9,3.6,2.9,3.6c0.8,0,1.7-0.3,2.2-0.5
			l0.1,2.4c-0.8,0.3-1.7,0.4-2.8,0.4c-3.5,0-5.3-2.4-5.3-5.8c0-3.2,1.8-5.7,5.2-5.7c1.1,0,1.9,0.1,2.7,0.4L105.2,87.2z"/>
		<path class="st4" d="M111.3,84.6c3.2,0,5.7,2.2,5.7,5.8c0,3.1-2.1,5.6-5.7,5.6c-3.6,0-5.6-2.5-5.6-5.6
			C105.7,86.8,108.2,84.6,111.3,84.6 M111.3,93.8c2.2,0,2.7-1.9,2.7-3.8c0-1.7-0.9-3.2-2.7-3.2c-1.8,0-2.7,1.6-2.7,3.2
			C108.6,91.8,109.2,93.8,111.3,93.8"/>
		<path class="st4" d="M114.2,81c0-1.6,1.3-3,2.9-3c1.6,0,2.9,1.3,2.9,3c0,1.6-1.3,3-2.9,3C115.5,83.9,114.2,82.6,114.2,81
			 M119.3,81c0-1.4-1-2.4-2.2-2.4c-1.2,0-2.2,1-2.2,2.4c0,1.4,1,2.4,2.2,2.4C118.3,83.4,119.3,82.4,119.3,81 M116,79.3h1.2
			c0.8,0,1.2,0.3,1.2,1c0,0.6-0.3,0.9-0.9,0.9l0.9,1.5h-0.6l-0.9-1.4h-0.4v1.4H116V79.3z M116.6,80.7h0.5c0.4,0,0.7-0.1,0.7-0.5
			c0-0.4-0.4-0.5-0.7-0.5h-0.5V80.7z"/>
		<polygon class="st4" points="6.4,109.4 5.5,109.4 5.5,103.5 3.5,107.5 3,107.5 1.1,103.5 1.1,109.4 0.2,109.4 0.2,102.5 
			1.5,102.5 3.3,106.4 5.1,102.5 6.4,102.5 		"/>
		<path class="st4" d="M12.5,109.4h-0.9v-0.6c-0.3,0.2-0.6,0.4-0.8,0.5c-0.3,0.1-0.6,0.2-0.9,0.2c-0.5,0-1-0.2-1.3-0.5
			c-0.3-0.3-0.5-0.8-0.5-1.5v-3.4H9v3c0,0.3,0,0.5,0,0.7c0,0.2,0.1,0.3,0.2,0.5c0.1,0.1,0.2,0.2,0.3,0.3c0.1,0.1,0.3,0.1,0.6,0.1
			c0.2,0,0.5-0.1,0.7-0.2c0.3-0.1,0.5-0.3,0.7-0.5v-3.9h0.9V109.4z"/>
		<path class="st4" d="M18,109.1c-0.3,0.1-0.6,0.2-0.8,0.3c-0.3,0.1-0.5,0.1-0.8,0.1c-0.4,0-0.7-0.1-1-0.2c-0.3-0.1-0.6-0.3-0.8-0.5
			c-0.2-0.2-0.4-0.5-0.5-0.8c-0.1-0.3-0.2-0.7-0.2-1.2c0-0.8,0.2-1.5,0.7-2c0.5-0.5,1.1-0.7,1.8-0.7c0.3,0,0.6,0,0.9,0.1
			c0.3,0.1,0.5,0.2,0.8,0.3v1h0c-0.3-0.2-0.5-0.4-0.8-0.5c-0.3-0.1-0.6-0.2-0.8-0.2c-0.5,0-0.9,0.2-1.2,0.5
			c-0.3,0.3-0.4,0.8-0.4,1.5c0,0.6,0.1,1.1,0.4,1.4c0.3,0.3,0.7,0.5,1.2,0.5c0.2,0,0.4,0,0.5-0.1c0.2,0,0.3-0.1,0.5-0.2
			c0.1-0.1,0.2-0.1,0.4-0.2c0.1-0.1,0.2-0.1,0.3-0.2h0V109.1z"/>
		<path class="st4" d="M23.4,109.4h-0.9v-3c0-0.2,0-0.5,0-0.7c0-0.2-0.1-0.4-0.2-0.5c-0.1-0.1-0.2-0.2-0.3-0.3
			c-0.1-0.1-0.3-0.1-0.6-0.1c-0.2,0-0.5,0.1-0.7,0.2c-0.3,0.1-0.5,0.3-0.7,0.4v3.9h-0.9v-7.2H20v2.6c0.3-0.2,0.6-0.4,0.8-0.5
			c0.3-0.1,0.6-0.2,0.9-0.2c0.6,0,1,0.2,1.3,0.5c0.3,0.3,0.4,0.8,0.4,1.5V109.4z"/>
		<path class="st4" d="M29.5,106.8c0,0.8-0.2,1.5-0.6,2c-0.4,0.5-1,0.7-1.7,0.7c-0.7,0-1.3-0.2-1.7-0.7c-0.4-0.5-0.6-1.2-0.6-2
			c0-0.8,0.2-1.5,0.6-2c0.4-0.5,1-0.7,1.7-0.7c0.7,0,1.3,0.2,1.7,0.7C29.3,105.3,29.5,106,29.5,106.8 M28.6,106.8
			c0-0.7-0.1-1.2-0.4-1.5c-0.3-0.3-0.6-0.5-1.1-0.5c-0.5,0-0.8,0.2-1.1,0.5c-0.3,0.3-0.4,0.8-0.4,1.5c0,0.6,0.1,1.1,0.4,1.5
			c0.3,0.3,0.6,0.5,1.1,0.5c0.5,0,0.8-0.2,1.1-0.5C28.5,108,28.6,107.5,28.6,106.8"/>
		<path class="st4" d="M41.8,109.4h-0.9v-3c0-0.2,0-0.4,0-0.6c0-0.2-0.1-0.4-0.1-0.5c-0.1-0.1-0.2-0.2-0.3-0.3
			c-0.1-0.1-0.3-0.1-0.6-0.1c-0.2,0-0.5,0.1-0.7,0.2c-0.2,0.1-0.5,0.3-0.7,0.5c0,0.1,0,0.2,0,0.2c0,0.1,0,0.2,0,0.3v3.3h-0.9v-3
			c0-0.2,0-0.4,0-0.6c0-0.2-0.1-0.4-0.1-0.5c-0.1-0.1-0.2-0.2-0.3-0.3c-0.1-0.1-0.3-0.1-0.6-0.1c-0.2,0-0.5,0.1-0.7,0.2
			c-0.2,0.1-0.5,0.3-0.7,0.4v3.9h-0.9v-5.2h0.9v0.6c0.3-0.2,0.5-0.4,0.8-0.5c0.3-0.1,0.6-0.2,0.9-0.2c0.4,0,0.7,0.1,0.9,0.2
			c0.2,0.1,0.4,0.4,0.5,0.6c0.4-0.3,0.7-0.5,1-0.6c0.3-0.1,0.6-0.2,0.9-0.2c0.6,0,1,0.2,1.3,0.5c0.3,0.3,0.4,0.8,0.4,1.4V109.4z"/>
		<path class="st4" d="M47.5,109.4h-0.9v-0.6c-0.1,0.1-0.2,0.1-0.3,0.2c-0.1,0.1-0.3,0.2-0.4,0.2c-0.1,0.1-0.3,0.1-0.5,0.2
			c-0.2,0-0.4,0.1-0.7,0.1c-0.5,0-0.9-0.2-1.2-0.5c-0.3-0.3-0.5-0.7-0.5-1.2c0-0.4,0.1-0.7,0.3-1c0.2-0.2,0.4-0.4,0.7-0.6
			c0.3-0.1,0.7-0.2,1.1-0.3c0.4-0.1,0.9-0.1,1.4-0.1v-0.1c0-0.2,0-0.4-0.1-0.5c-0.1-0.1-0.2-0.2-0.3-0.3c-0.1-0.1-0.3-0.1-0.4-0.1
			c-0.2,0-0.4,0-0.5,0c-0.2,0-0.5,0-0.8,0.1c-0.3,0.1-0.6,0.2-0.9,0.3h0v-0.9c0.2,0,0.4-0.1,0.7-0.2c0.3-0.1,0.6-0.1,1-0.1
			c0.4,0,0.7,0,0.9,0.1c0.3,0.1,0.5,0.2,0.7,0.3c0.2,0.1,0.3,0.3,0.4,0.5c0.1,0.2,0.2,0.5,0.2,0.8V109.4z M46.6,108.2v-1.4
			c-0.3,0-0.6,0-0.9,0.1c-0.4,0-0.6,0.1-0.9,0.1c-0.3,0.1-0.5,0.2-0.6,0.3c-0.2,0.2-0.2,0.4-0.2,0.6c0,0.3,0.1,0.5,0.3,0.7
			c0.2,0.2,0.5,0.2,0.8,0.2c0.3,0,0.6-0.1,0.8-0.2C46.2,108.5,46.4,108.3,46.6,108.2 M46.9,101.7l-1.3,1.7H45l0.8-1.7H46.9z"/>
		<path class="st4" d="M52.9,107.9c0,0.5-0.2,0.9-0.6,1.2c-0.4,0.3-0.9,0.5-1.6,0.5c-0.4,0-0.7,0-1.1-0.1c-0.3-0.1-0.6-0.2-0.8-0.3
			v-1h0c0.3,0.2,0.6,0.4,0.9,0.5c0.3,0.1,0.7,0.2,1,0.2c0.4,0,0.7-0.1,0.9-0.2c0.2-0.1,0.3-0.3,0.3-0.6c0-0.2-0.1-0.4-0.2-0.5
			c-0.1-0.1-0.3-0.2-0.7-0.3c-0.1,0-0.3-0.1-0.5-0.1c-0.2,0-0.4-0.1-0.5-0.1c-0.5-0.1-0.8-0.3-1-0.5c-0.2-0.2-0.3-0.5-0.3-0.9
			c0-0.2,0-0.4,0.1-0.6c0.1-0.2,0.2-0.4,0.4-0.5c0.2-0.1,0.4-0.3,0.7-0.3c0.3-0.1,0.6-0.1,0.9-0.1c0.3,0,0.6,0,0.9,0.1
			c0.3,0.1,0.6,0.2,0.8,0.3v0.9h0c-0.2-0.2-0.5-0.3-0.8-0.4c-0.3-0.1-0.6-0.2-0.9-0.2c-0.3,0-0.6,0.1-0.8,0.2
			c-0.2,0.1-0.3,0.3-0.3,0.5c0,0.2,0.1,0.4,0.2,0.5c0.1,0.1,0.3,0.2,0.6,0.3c0.2,0,0.3,0.1,0.5,0.1c0.2,0,0.4,0.1,0.5,0.1
			c0.4,0.1,0.7,0.3,0.9,0.5C52.8,107.3,52.9,107.6,52.9,107.9"/>
		<path class="st4" d="M61.7,111.3h-0.9v-2.5c-0.3,0.2-0.5,0.4-0.8,0.5c-0.3,0.1-0.6,0.2-0.9,0.2c-0.6,0-1.1-0.2-1.5-0.7
			c-0.4-0.5-0.5-1.1-0.5-2c0-0.4,0.1-0.8,0.2-1.2c0.1-0.3,0.3-0.6,0.5-0.9c0.2-0.2,0.4-0.4,0.7-0.5c0.3-0.1,0.6-0.2,0.9-0.2
			c0.3,0,0.5,0,0.7,0.1c0.2,0.1,0.4,0.2,0.7,0.3l0.1-0.2h0.8V111.3z M60.8,108.1v-2.9c-0.2-0.1-0.5-0.2-0.6-0.2
			c-0.2,0-0.4-0.1-0.6-0.1c-0.5,0-0.9,0.2-1.2,0.5c-0.3,0.3-0.4,0.8-0.4,1.4c0,0.6,0.1,1.1,0.3,1.4c0.2,0.3,0.5,0.5,1,0.5
			c0.3,0,0.5-0.1,0.8-0.2C60.3,108.4,60.6,108.3,60.8,108.1"/>
		<path class="st4" d="M67.7,109.4h-0.9v-0.6c-0.3,0.2-0.6,0.4-0.8,0.5c-0.3,0.1-0.6,0.2-0.9,0.2c-0.5,0-1-0.2-1.3-0.5
			c-0.3-0.3-0.5-0.8-0.5-1.5v-3.4h0.9v3c0,0.3,0,0.5,0,0.7c0,0.2,0.1,0.3,0.2,0.5c0.1,0.1,0.2,0.2,0.3,0.3c0.1,0.1,0.3,0.1,0.6,0.1
			c0.2,0,0.5-0.1,0.7-0.2c0.3-0.1,0.5-0.3,0.8-0.5v-3.9h0.9V109.4z"/>
		<path class="st4" d="M73.7,106.9h-3.8c0,0.3,0,0.6,0.1,0.8c0.1,0.2,0.2,0.4,0.4,0.6c0.2,0.2,0.4,0.3,0.6,0.3
			c0.2,0.1,0.5,0.1,0.7,0.1c0.4,0,0.7-0.1,1.1-0.2c0.4-0.1,0.6-0.3,0.8-0.4h0v1c-0.3,0.1-0.6,0.2-0.9,0.3c-0.3,0.1-0.6,0.1-1,0.1
			c-0.9,0-1.5-0.2-2-0.7c-0.5-0.5-0.7-1.1-0.7-2c0-0.8,0.2-1.5,0.7-2c0.5-0.5,1.1-0.7,1.8-0.7c0.7,0,1.2,0.2,1.6,0.6
			c0.4,0.4,0.6,1,0.6,1.7V106.9z M72.9,106.3c0-0.5-0.1-0.8-0.3-1.1c-0.2-0.3-0.6-0.4-1-0.4c-0.5,0-0.8,0.1-1.1,0.4
			c-0.3,0.3-0.4,0.6-0.5,1H72.9z"/>
		<path class="st4" d="M82.2,109.1c-0.3,0.1-0.6,0.2-0.8,0.3c-0.3,0.1-0.5,0.1-0.8,0.1c-0.4,0-0.7-0.1-1-0.2
			c-0.3-0.1-0.6-0.3-0.8-0.5c-0.2-0.2-0.4-0.5-0.5-0.8c-0.1-0.3-0.2-0.7-0.2-1.2c0-0.8,0.2-1.5,0.7-2c0.5-0.5,1.1-0.7,1.8-0.7
			c0.3,0,0.6,0,0.9,0.1c0.3,0.1,0.5,0.2,0.8,0.3v1h0c-0.3-0.2-0.5-0.4-0.8-0.5c-0.3-0.1-0.6-0.2-0.8-0.2c-0.5,0-0.9,0.2-1.2,0.5
			c-0.3,0.3-0.4,0.8-0.4,1.5c0,0.6,0.1,1.1,0.4,1.4c0.3,0.3,0.7,0.5,1.2,0.5c0.2,0,0.4,0,0.5-0.1c0.2,0,0.3-0.1,0.5-0.2
			c0.1-0.1,0.2-0.1,0.4-0.2c0.1-0.1,0.2-0.1,0.3-0.2h0V109.1z"/>
		<path class="st4" d="M87.7,106.8c0,0.8-0.2,1.5-0.6,2c-0.4,0.5-1,0.7-1.7,0.7c-0.7,0-1.3-0.2-1.7-0.7c-0.4-0.5-0.6-1.2-0.6-2
			c0-0.8,0.2-1.5,0.6-2c0.4-0.5,1-0.7,1.7-0.7c0.7,0,1.3,0.2,1.7,0.7C87.5,105.3,87.7,106,87.7,106.8 M86.8,106.8
			c0-0.7-0.1-1.2-0.4-1.5c-0.3-0.3-0.6-0.5-1.1-0.5c-0.5,0-0.8,0.2-1.1,0.5c-0.3,0.3-0.4,0.8-0.4,1.5c0,0.6,0.1,1.1,0.4,1.5
			c0.3,0.3,0.6,0.5,1.1,0.5c0.5,0,0.8-0.2,1.1-0.5C86.7,108,86.8,107.5,86.8,106.8"/>
		<path class="st4" d="M96.7,109.4h-0.9v-3c0-0.2,0-0.4,0-0.6c0-0.2-0.1-0.4-0.1-0.5c-0.1-0.1-0.2-0.2-0.3-0.3
			c-0.1-0.1-0.3-0.1-0.6-0.1c-0.2,0-0.5,0.1-0.7,0.2c-0.2,0.1-0.5,0.3-0.7,0.5c0,0.1,0,0.2,0,0.2c0,0.1,0,0.2,0,0.3v3.3h-0.9v-3
			c0-0.2,0-0.4,0-0.6c0-0.2-0.1-0.4-0.1-0.5c-0.1-0.1-0.2-0.2-0.3-0.3c-0.1-0.1-0.3-0.1-0.6-0.1c-0.2,0-0.5,0.1-0.7,0.2
			c-0.2,0.1-0.5,0.3-0.7,0.4v3.9h-0.9v-5.2H90v0.6c0.3-0.2,0.5-0.4,0.8-0.5c0.3-0.1,0.6-0.2,0.9-0.2c0.3,0,0.6,0.1,0.9,0.2
			c0.2,0.1,0.4,0.4,0.5,0.6c0.4-0.3,0.7-0.5,1-0.6c0.3-0.1,0.6-0.2,0.9-0.2c0.6,0,1,0.2,1.3,0.5c0.3,0.3,0.4,0.8,0.4,1.4V109.4z"/>
		<path class="st4" d="M102.9,106.8c0,0.4-0.1,0.8-0.2,1.2c-0.1,0.3-0.3,0.6-0.5,0.9c-0.2,0.2-0.4,0.4-0.7,0.5
			c-0.3,0.1-0.6,0.2-0.9,0.2c-0.3,0-0.5,0-0.7-0.1c-0.2-0.1-0.4-0.2-0.7-0.3v2.2h-0.9v-7.1h0.9v0.5c0.2-0.2,0.5-0.4,0.8-0.5
			c0.3-0.1,0.6-0.2,0.9-0.2c0.6,0,1.1,0.2,1.5,0.7C102.7,105.3,102.9,105.9,102.9,106.8 M102,106.8c0-0.6-0.1-1.1-0.3-1.4
			c-0.2-0.3-0.5-0.5-1-0.5c-0.2,0-0.5,0.1-0.8,0.2c-0.3,0.1-0.5,0.2-0.7,0.4v2.9c0.2,0.1,0.5,0.2,0.6,0.2c0.2,0,0.4,0.1,0.6,0.1
			c0.5,0,0.9-0.2,1.1-0.5C101.9,107.9,102,107.4,102,106.8"/>
		<path class="st4" d="M107.5,105.2L107.5,105.2c-0.2,0-0.3-0.1-0.4-0.1c-0.1,0-0.3,0-0.4,0c-0.3,0-0.5,0.1-0.8,0.2
			c-0.2,0.1-0.5,0.3-0.7,0.5v3.7h-0.9v-5.2h0.9v0.8c0.3-0.3,0.7-0.5,0.9-0.6c0.3-0.1,0.5-0.2,0.8-0.2c0.2,0,0.3,0,0.3,0
			c0.1,0,0.2,0,0.3,0V105.2z"/>
		<path class="st4" d="M112.2,109.4h-0.9v-0.6c-0.1,0.1-0.2,0.1-0.3,0.2c-0.1,0.1-0.3,0.2-0.4,0.2c-0.1,0.1-0.3,0.1-0.5,0.2
			c-0.2,0-0.4,0.1-0.7,0.1c-0.5,0-0.9-0.2-1.2-0.5c-0.3-0.3-0.5-0.7-0.5-1.2c0-0.4,0.1-0.7,0.3-1c0.2-0.2,0.4-0.4,0.7-0.6
			c0.3-0.1,0.7-0.2,1.1-0.3c0.4-0.1,0.9-0.1,1.4-0.1v-0.1c0-0.2,0-0.4-0.1-0.5c-0.1-0.1-0.2-0.2-0.3-0.3c-0.1-0.1-0.3-0.1-0.4-0.1
			c-0.2,0-0.4,0-0.5,0c-0.2,0-0.5,0-0.8,0.1c-0.3,0.1-0.6,0.1-0.9,0.3h0v-0.9c0.2,0,0.4-0.1,0.7-0.2c0.3-0.1,0.6-0.1,0.9-0.1
			c0.4,0,0.7,0,1,0.1c0.3,0.1,0.5,0.2,0.7,0.3c0.2,0.1,0.3,0.3,0.4,0.6c0.1,0.2,0.2,0.5,0.2,0.8V109.4z M111.3,108.2v-1.4
			c-0.3,0-0.6,0-0.9,0.1c-0.4,0-0.6,0.1-0.9,0.1c-0.3,0.1-0.5,0.2-0.6,0.3c-0.2,0.2-0.2,0.4-0.2,0.6c0,0.3,0.1,0.5,0.3,0.7
			c0.2,0.2,0.5,0.2,0.8,0.2c0.3,0,0.6-0.1,0.8-0.2C110.8,108.5,111.1,108.3,111.3,108.2"/>
		<path class="st4" d="M117.1,105.2L117.1,105.2c-0.2,0-0.3-0.1-0.4-0.1c-0.1,0-0.3,0-0.4,0c-0.3,0-0.5,0.1-0.8,0.2
			c-0.3,0.1-0.5,0.3-0.7,0.5v3.7h-0.9v-5.2h0.9v0.8c0.3-0.3,0.7-0.5,0.9-0.6c0.3-0.1,0.5-0.2,0.8-0.2c0.2,0,0.3,0,0.3,0
			c0.1,0,0.2,0,0.3,0V105.2z"/>
	</g>
</g>
<g id="arauco_maipu" class="st5">
	<g class="st6">
		<path class="st7" d="M33.3,92.8v-1.3c0-2.9-1.2-4.1-4.2-4.1c-1.1,0-2.4,0.3-3.4,0.7l0.1,2.2c0.9-0.6,1.9-1.1,3-1.1
			c1.5,0,2.2,0.5,2.2,2.1h-1.4c-1.1,0-2.3,0.1-3.3,0.6c-1,0.5-1.7,1.3-1.7,2.8c0,1.9,1.7,2.9,3.4,2.9c1.2,0,2.4-0.6,3-1.7h0
			c0,0.3,0,0.9,0.1,1.5h2.2c-0.1-0.8-0.1-1.4-0.1-2.2C33.3,94.5,33.3,93.7,33.3,92.8 M30.4,94.9c-0.4,0.5-1,0.9-1.8,0.9
			c-0.9,0-1.6-0.4-1.6-1.2c0-1.5,1.7-1.7,2.8-1.7H31C31,93.6,30.9,94.3,30.4,94.9 M50.1,95.6c-1.8,0-2.6-1.4-2.6-3.2
			c0-1.8,1-3.1,2.6-3.1c0.8,0,1.3,0.2,1.7,0.4l0.2-2c-0.7-0.2-1.4-0.3-2.5-0.3c-3,0-4.7,2.2-4.7,5c0,3,1.6,5.1,4.8,5.1
			c1,0,1.8-0.1,2.5-0.3L52,95.2C51.6,95.4,50.8,95.6,50.1,95.6 M41.2,92.4c0,1.2-0.4,3.2-2.2,3.2c-1.6,0-1.6-1.6-1.6-2.8v-5.2h-2.5
			v6.1c0,2.2,1,3.8,3.3,3.8c1.3,0,2.4-0.6,3.2-1.6h0v1.3h2.4v-9.7h-2.5V92.4z M107.8,84.2h-1.5l-1.6,2.6h0.9L107.8,84.2z M24.6,87.5
			c-0.3-0.1-0.5-0.1-0.8-0.1c-1.5,0-2.6,1.5-2.7,2.4h0v-2.2h-2.2v9.7h2.5v-3.6c0-1.4,0-4,2.1-4c0.5,0,0.9,0.1,1.1,0.2V87.5z
			 M10.1,84.2L5,97.4h2.7l1.2-3l4.6-2.1H9.7l1.9-5.4h0l1.9,5.4l1.9,5.1h2.9l-5.2-13.2H10.1z M112.4,81.6c-1.5,0-2.6,1.2-2.6,2.7
			c0,1.5,1.2,2.7,2.6,2.7c1.4,0,2.6-1.2,2.6-2.7C115,82.8,113.8,81.6,112.4,81.6 M112.4,86.4c-1.1,0-2-0.9-2-2.1
			c0-1.2,0.9-2.1,2-2.1c1.1,0,2,0.9,2,2.1C114.4,85.5,113.5,86.4,112.4,86.4 M109.5,87.8h-1.2v5.3c0,1.6-0.7,3.5-2.8,3.5
			c-1.6,0-2.3-1.2-2.3-3v-5.8H102V94c0,2.1,0.9,3.7,3.3,3.7c2,0,2.7-1.1,3.1-1.9h0v1.7h1.1c-0.1-0.8-0.1-1.5-0.1-2.3V87.8z
			 M96.3,87.6c-2,0-2.8,1.4-3.1,2h0l0.1-1.7h-1.2v13.5h1.2v-5.6h0c0.6,1.2,1.5,1.9,3,1.9c2.6,0,3.9-2.2,3.9-5
			C100.2,89.7,99.1,87.6,96.3,87.6 M96.1,96.6c-2.1,0-2.8-2.3-2.8-4c0-1.7,0.7-4,2.8-4c2.3,0,2.8,2.1,2.8,4
			C98.9,94.5,98.3,96.6,96.1,96.6 M113.6,83.7c0-0.6-0.4-0.9-1.1-0.9h-1.1v3h0.6v-1.3h0.3l0.8,1.3h0.6l-0.8-1.3
			C113.3,84.4,113.6,84.2,113.6,83.7 M111.9,84.1v-0.9h0.5c0.3,0,0.6,0.1,0.6,0.4c0,0.4-0.3,0.4-0.6,0.4H111.9z M88.7,97.4h1.2v-9.6
			h-1.2V97.4z M70.8,95.8L66,84.3h-2v13.1h1.3V85.6h0l4.9,11.8h1.1l4.8-11.8h0v11.8h1.3V84.3h-1.9L70.8,95.8z M86.5,91.2
			c0-2.5-1-3.6-3.4-3.6c-0.8,0-2.1,0.3-2.8,0.7v1.1c0.9-0.6,1.8-0.8,2.8-0.8c1.6,0,2.2,0.8,2.2,2.5v0.5h-0.2c-2.5,0-5.9,0.2-5.9,3.4
			c0,0.9,0.4,2.7,3.2,2.7c1.2,0,2.5-0.6,3-1.8h0v1.5h1.2c-0.1-0.7-0.1-1.2-0.1-2V91.2z M85.3,93.2c0,1-0.1,3.5-2.8,3.5
			c-1.1,0-2-0.5-2-1.7c0-2.1,2.4-2.3,4.5-2.3h0.3V93.2z M57.3,87.4c-2.9,0-5.1,2-5.1,5.2c0,2.8,1.9,5,5.1,5c3.2,0,5.1-2.2,5.1-5
			C62.5,89.4,60.2,87.4,57.3,87.4 M57.3,95.6c-1.9,0-2.4-1.8-2.4-3.4c0-1.5,0.8-2.9,2.4-2.9c1.7,0,2.5,1.4,2.5,2.9
			C59.8,93.9,59.3,95.6,57.3,95.6"/>
		<rect x="89" y="84.3" class="st7" width="1.2" height="1.6"/>
		<g>
			<path class="st0" d="M88.1,49.3C88.1,66.2,74.3,80,57.3,80c-17,0-30.8-13.7-30.8-30.7c0-16.9,13.8-30.7,30.8-30.7
				C74.3,18.6,88.1,32.4,88.1,49.3"/>
			<path class="st1" d="M85.4,52.5c-0.5,0-0.9,0-1.4,0c-11.4,0-20.7,9.2-20.7,20.6c0,1.3,0.1,2.5,0.3,3.7
				C75.2,74.1,84.1,64.4,85.4,52.5"/>
			<path class="st1" d="M30.9,52.4c-0.6,0-1.1,0-1.6,0.1c1.4,12,10.3,21.8,22,24.3c0.2-1.2,0.4-2.5,0.4-3.8
				C51.5,61.7,42.3,52.4,30.9,52.4"/>
			<path class="st2" d="M30.9,49.4c2.3,0,4.5,0.3,6.6,0.9c0.7-10.3,9.4-18.4,19.9-18.4c10.5,0,19.2,8.2,19.9,18.5
				c2.2-0.7,4.5-1,6.9-1c0.5,0,1,0,1.6,0.1c0-0.1,0-0.1,0-0.2c0-15.6-12.7-28.2-28.3-28.2c-15.6,0-28.3,12.6-28.3,28.2
				c0,0.1,0,0.1,0,0.2C29.7,49.4,30.3,49.4,30.9,49.4"/>
			<path class="st3" d="M60.3,73c0-9.5,5.7-17.8,13.9-21.5c-0.1-9.2-7.7-16.6-16.9-16.6c-9.2,0-16.7,7.4-16.9,16.5
				c8.3,3.7,14.1,12,14.1,21.6c0,1.5-0.1,2.9-0.4,4.3c1,0.1,2.1,0.2,3.1,0.2c1.2,0,2.3-0.1,3.4-0.2C60.5,75.9,60.3,74.5,60.3,73"/>
		</g>
	</g>
</g>
<g id="arauco_estacion" class="st5">
	<g class="st6">
		<path class="st7" d="M117.6,101.2v-1.3c0-3-1.3-4.3-4.4-4.3c-1.1,0-2.5,0.3-3.5,0.8l0.1,2.3c0.9-0.7,2-1.1,3.1-1.1
			c1.6,0,2.3,0.6,2.3,2.2h-1.5c-1.1,0-2.4,0.1-3.4,0.6c-1,0.5-1.7,1.4-1.7,2.9c0,1.9,1.8,3,3.5,3c1.2,0,2.5-0.6,3.1-1.8h0
			c0,0.3,0,1,0.1,1.5h2.3c-0.1-0.8-0.1-1.5-0.1-2.3C117.7,103,117.6,102.2,117.6,101.2 M114.7,103.4c-0.4,0.6-1,0.9-1.9,0.9
			c-0.9,0-1.7-0.4-1.7-1.2c0-1.6,1.8-1.8,2.9-1.8h1.1C115.2,102.1,115.1,102.8,114.7,103.4 M126,100.8c0,1.3-0.4,3.4-2.3,3.4
			c-1.7,0-1.7-1.7-1.7-2.9v-5.4h-2.7v6.4c0,2.3,1,4,3.5,4c1.4,0,2.5-0.6,3.3-1.6h0v1.4h2.5V95.8H126V100.8z M135.2,104.2
			c-1.9,0-2.8-1.4-2.8-3.3c0-1.9,1-3.2,2.7-3.2c0.8,0,1.3,0.2,1.8,0.4l0.2-2.1c-0.7-0.2-1.5-0.3-2.6-0.3c-3.2,0-4.9,2.3-4.9,5.3
			c0,3.1,1.7,5.4,5,5.4c1.1,0,1.9-0.1,2.6-0.3l-0.1-2.2C136.8,103.9,136,104.2,135.2,104.2 M210.9,89.4c-1.5,0-2.8,1.3-2.8,2.8
			c0,1.6,1.2,2.8,2.8,2.8c1.5,0,2.8-1.3,2.8-2.8C213.7,90.7,212.4,89.4,210.9,89.4 M210.9,94.5c-1.2,0-2.1-1-2.1-2.3
			c0-1.3,0.9-2.3,2.1-2.3c1.2,0,2.1,0.9,2.1,2.3C213,93.5,212.1,94.5,210.9,94.5 M198.8,92.1h-1.6l-1.8,2.9h0.9L198.8,92.1z
			 M93.5,92.2L88.1,106H91l1.2-3.2l4.8-2.2h-4l2-5.7h0l2,5.7l2,5.3h3.1l-5.4-13.8H93.5z M108.6,95.7c-0.3-0.1-0.6-0.1-0.8-0.1
			c-1.6,0-2.7,1.6-2.8,2.5h0v-2.3h-2.4V106h2.7v-3.7c0-1.5,0-4.1,2.2-4.1c0.5,0,0.9,0.1,1.2,0.2V95.7z M188.9,106.1h1.2V96h-1.2
			V106.1z M196.6,95.8c-3.3,0-4.7,2.5-4.7,5.3c0,2.8,1.5,5.3,4.7,5.3c3.3,0,4.7-2.5,4.7-5.3C201.3,98.3,199.9,95.8,196.6,95.8
			 M196.6,105.3c-2.2,0-3.4-1.9-3.4-4.2c0-2.3,1.2-4.2,3.4-4.2c2.2,0,3.4,1.9,3.4,4.2C199.9,103.4,198.8,105.3,196.6,105.3
			 M185.2,96.8c0.7,0,1.5,0.2,2.2,0.5l0.1-1.2c-0.4-0.1-1.2-0.4-2.4-0.4c-3,0-5,2.2-5,5.3c0,2.8,1.6,5.3,4.8,5.3
			c1,0,1.7-0.1,2.6-0.4l-0.1-1.2c-0.8,0.3-1.5,0.5-2.3,0.5c-2.3,0-3.7-1.9-3.7-4.2C181.4,98.6,182.8,96.8,185.2,96.8 M207.4,95.8
			c-2.1,0-2.9,1.1-3.3,2h0V96h-1.2c0.1,0.8,0.1,1.6,0.1,2.4v7.7h1.2v-5.6c0-1.7,0.7-3.7,3-3.7c1.7,0,2.4,1.2,2.4,3.1v6.2h1.2v-6.5
			C210.9,97.4,209.9,95.8,207.4,95.8 M142.8,95.6c-3,0-5.3,2-5.3,5.4c0,2.9,2,5.3,5.3,5.3c3.4,0,5.3-2.3,5.3-5.3
			C148.1,97.6,145.8,95.6,142.8,95.6 M142.8,104.2c-2,0-2.6-1.8-2.6-3.5c0-1.5,0.8-3,2.6-3c1.7,0,2.6,1.5,2.6,3
			C145.4,102.4,144.8,104.2,142.8,104.2 M178.5,99.5c0-2.6-1.1-3.8-3.5-3.8c-0.9,0-2.2,0.3-3,0.7v1.2c0.9-0.6,1.9-0.8,3-0.8
			c1.7,0,2.3,0.9,2.3,2.6v0.5H177c-2.6,0-6.2,0.2-6.2,3.6c0,0.9,0.5,2.9,3.3,2.9c1.2,0,2.7-0.7,3.2-1.9h0v1.6h1.2
			c-0.1-0.7-0.1-1.3-0.1-2.1V99.5z M177.3,101.6c0,1.1-0.1,3.7-3,3.7c-1.2,0-2.1-0.5-2.1-1.8c0-2.2,2.6-2.4,4.7-2.4h0.4V101.6z
			 M212.2,91.6c0-0.7-0.4-0.9-1.2-0.9h-1.2v3.2h0.6v-1.4h0.4l0.8,1.4h0.6l-0.9-1.4C211.9,92.4,212.2,92.1,212.2,91.6 M210.4,92v-0.9
			h0.5c0.3,0,0.6,0.1,0.6,0.4c0,0.4-0.3,0.5-0.6,0.5H210.4z M159.1,98.5c0-1.3,0.9-1.7,2.2-1.7c0.7,0,1.6,0.2,2.2,0.5l0.1-1.1
			c-0.9-0.3-2-0.5-2.5-0.5c-1.7,0-3.3,0.8-3.3,2.8c0,2.9,4.9,2.6,4.9,5c0,1.1-1.1,1.8-2.2,1.8c-1,0-1.9-0.3-2.6-0.6l-0.1,1.2
			c0.9,0.4,1.9,0.5,2.8,0.5c1.5,0,3.5-0.7,3.5-2.9C164.1,100.2,159.1,100.4,159.1,98.5 M150.9,99.6h5.1v-1.2h-5.1v-4.9h5.4v-1.2
			h-6.8v13.8h7v-1.2h-5.7V99.6z M169.1,105.3c-1,0-1.3-0.8-1.3-1.7v-6.5h2.3V96h-2.3v-2.9l-1.2,0.4V96h-2v1.1h2v5.9
			c0,1.8,0.1,3.4,2.3,3.4c0.6,0,1.2-0.2,1.5-0.3l-0.1-1C169.9,105.2,169.6,105.3,169.1,105.3"/>
		<g>
			<path class="st0" d="M181.9,55.2c0,17.9-14.5,32.4-32.4,32.4c-17.9,0-32.4-14.5-32.4-32.4c0-17.9,14.5-32.4,32.4-32.4
				C167.4,22.9,181.9,37.4,181.9,55.2"/>
			<path class="st1" d="M179.1,58.6c-0.5,0-1,0-1.4,0c-12,0-21.8,9.8-21.8,21.8c0,1.3,0.1,2.6,0.4,3.9
				C168.4,81.4,177.7,71.2,179.1,58.6"/>
			<path class="st1" d="M121.6,58.5c-0.6,0-1.1,0-1.7,0.1c1.4,12.7,10.9,22.9,23.2,25.7c0.2-1.3,0.4-2.6,0.4-4
				C143.4,68.3,133.6,58.5,121.6,58.5"/>
			<path class="st2" d="M121.6,55.3c2.4,0,4.7,0.3,7,1c0.8-10.9,9.9-19.4,21-19.4c11.1,0,20.2,8.6,21,19.5c2.3-0.7,4.7-1.1,7.2-1.1
				c0.5,0,1.1,0,1.6,0.1c0-0.1,0-0.1,0-0.2c0-16.4-13.4-29.7-29.8-29.7c-16.5,0-29.8,13.3-29.8,29.7c0,0.1,0,0.1,0,0.2
				C120.3,55.4,120.9,55.3,121.6,55.3"/>
			<path class="st3" d="M152.7,80.3c0-10.1,6-18.8,14.6-22.7c-0.1-9.7-8.1-17.5-17.8-17.5c-9.7,0-17.6,7.8-17.8,17.4
				c8.8,3.9,14.9,12.6,14.9,22.8c0,1.5-0.1,3-0.4,4.5c1.1,0.1,2.2,0.2,3.3,0.2c1.2,0,2.4-0.1,3.6-0.2
				C152.8,83.3,152.7,81.8,152.7,80.3"/>
		</g>
	</g>
</g>
<g id="arauco_quilicura" class="st5">
	<g class="st6">
		<path class="st7" d="M111.1,140v-1.3c0-3-1.3-4.3-4.4-4.3c-1.1,0-2.5,0.3-3.6,0.8l0.1,2.3c0.9-0.7,2-1.1,3.2-1.1
			c1.6,0,2.3,0.6,2.3,2.2h-1.5c-1.1,0-2.4,0.1-3.5,0.6c-1,0.5-1.7,1.4-1.7,2.9c0,2,1.8,3,3.6,3c1.2,0,2.5-0.6,3.2-1.8h0
			c0,0.3,0,1,0.1,1.5h2.4c-0.1-0.8-0.1-1.5-0.1-2.3C111.1,141.8,111.1,141,111.1,140 M108.1,142.2c-0.4,0.6-1.1,0.9-1.9,0.9
			c-1,0-1.7-0.4-1.7-1.3c0-1.6,1.8-1.8,3-1.8h1.2C108.7,140.9,108.6,141.6,108.1,142.2 M136.5,134.3c-3,0-5.4,2.1-5.4,5.4
			c0,2.9,2,5.3,5.4,5.3c3.4,0,5.4-2.4,5.4-5.3C141.9,136.4,139.5,134.3,136.5,134.3 M136.5,143c-2,0-2.6-1.9-2.6-3.5
			c0-1.5,0.8-3,2.6-3c1.8,0,2.6,1.5,2.6,3C139.1,141.2,138.5,143,136.5,143 M86.7,130.9l-5.4,13.9h2.9l1.2-3.2l4.9-2.2h-4.1l2-5.7h0
			l2,5.7l2,5.4h3.1l-5.5-13.9H86.7z M102,134.4c-0.3-0.1-0.6-0.1-0.8-0.1c-1.6,0-2.7,1.6-2.8,2.6h0v-2.3H96v10.3h2.7v-3.8
			c0-1.5,0-4.2,2.2-4.2c0.5,0,1,0.1,1.2,0.2V134.4z M119.5,139.6c0,1.3-0.4,3.4-2.3,3.4c-1.7,0-1.7-1.7-1.7-3v-5.5h-2.7v6.5
			c0,2.3,1.1,4,3.5,4c1.4,0,2.5-0.6,3.4-1.6h0v1.4h2.5v-10.3h-2.7V139.6z M128.8,143c-1.9,0-2.8-1.5-2.8-3.4c0-1.9,1.1-3.2,2.7-3.2
			c0.8,0,1.3,0.2,1.8,0.4l0.2-2.1c-0.7-0.2-1.5-0.3-2.6-0.3c-3.2,0-5,2.4-5,5.3c0,3.1,1.7,5.4,5.1,5.4c1.1,0,1.9-0.1,2.7-0.3
			l-0.1-2.2C130.4,142.7,129.6,143,128.8,143 M164.9,134.7h-1.2v5.6c0,1.7-0.7,3.7-3,3.7c-1.7,0-2.4-1.2-2.4-3.1v-6.1H157v6.5
			c0,2.2,1,3.9,3.5,3.9c2.1,0,2.8-1.1,3.3-2h0v1.8h1.2c-0.1-0.8-0.1-1.6-0.1-2.4V134.7z M155.1,137.9c0-3.7-1.9-7.2-6.1-7.2
			c-4.2,0-6.1,3.4-6.1,7.2c0,4.2,2.1,7.2,6.1,7.2c0.2,0,0.4,0,0.6,0c0.2,0,0.4,0,0.6-0.1l2.5,2.4h1.8l-2.9-2.8
			C153.8,143.6,155,141.2,155.1,137.9 M149,143.9c-3.2,0-4.7-3-4.7-6c0-2.9,1.5-6,4.7-6c3.3,0,4.7,3,4.7,6
			C153.7,140.9,152.2,143.9,149,143.9 M209.7,138.3c0-2.6-1-3.8-3.5-3.8c-0.9,0-2.2,0.3-3,0.7v1.2c0.9-0.6,1.9-0.8,3-0.8
			c1.7,0,2.3,0.9,2.3,2.6v0.5h-0.2c-2.6,0-6.2,0.2-6.2,3.5c0,0.9,0.5,2.9,3.3,2.9c1.2,0,2.7-0.7,3.2-1.9h0v1.6h1.2
			c-0.1-0.7-0.1-1.3-0.1-2.1V138.3z M208.4,140.4c0,1.1-0.1,3.6-3,3.6c-1.1,0-2.1-0.5-2.1-1.8c0-2.2,2.6-2.4,4.7-2.4h0.4V140.4z
			 M198.1,136.7L198.1,136.7l0-1.9h-1.2c0.1,0.7,0.1,1.1,0.1,2.3v7.8h1.2v-5c0-1.8,0.5-4,2.5-4c0.3,0,0.7,0,0.9,0.1v-1.3
			c-0.2-0.1-0.6-0.1-0.9-0.1C199.4,134.5,198.5,135.5,198.1,136.7 M210.9,130.2c0-0.7-0.4-0.9-1.2-0.9h-1.2v3.2h0.6v-1.4h0.4
			l0.8,1.4h0.6l-0.9-1.4C210.6,131,210.9,130.8,210.9,130.2 M209.2,130.7v-0.9h0.5c0.3,0,0.6,0.1,0.6,0.4c0,0.4-0.3,0.5-0.6,0.5
			H209.2z M209.7,128.1c-1.5,0-2.8,1.3-2.8,2.8c0,1.6,1.2,2.8,2.8,2.8c1.5,0,2.8-1.3,2.8-2.8C212.5,129.4,211.2,128.1,209.7,128.1
			 M209.7,133.2c-1.2,0-2.1-0.9-2.1-2.3c0-1.3,0.9-2.3,2.1-2.3c1.1,0,2.1,0.9,2.1,2.3C211.8,132.2,210.8,133.2,209.7,133.2
			 M194.4,134.7h-1.3v5.6c0,1.7-0.7,3.7-3,3.7c-1.7,0-2.4-1.2-2.4-3.1v-6.1h-1.2v6.5c0,2.2,1,3.9,3.4,3.9c2.1,0,2.9-1.1,3.3-2h0v1.8
			h1.2c-0.1-0.8-0.1-1.6-0.1-2.4V134.7z M174.7,132.7h1.3V131h-1.3V132.7z M182.9,135.6c0.7,0,1.5,0.2,2.2,0.5l0.1-1.2
			c-0.4-0.1-1.2-0.4-2.4-0.4c-3,0-5,2.2-5,5.3c0,2.8,1.6,5.3,4.8,5.3c0.9,0,1.7-0.1,2.6-0.4l-0.1-1.2c-0.8,0.3-1.5,0.5-2.3,0.5
			c-2.3,0-3.7-1.9-3.7-4.2C179.1,137.3,180.4,135.6,182.9,135.6 M167.3,144.8h1.2v-10.1h-1.2V144.8z M171,144.8h1.2V130H171V144.8z
			 M168.5,131h-1.2v1.7h1.2V131z M174.7,144.8h1.2v-10.1h-1.2V144.8z"/>
		<g>
			<path class="st0" d="M178,94.2c0,17.8-14.5,32.3-32.4,32.3c-17.9,0-32.4-14.5-32.4-32.3c0-17.8,14.5-32.3,32.4-32.3
				C163.5,61.9,178,76.3,178,94.2"/>
			<path class="st1" d="M175.2,97.5c-0.5,0-1-0.1-1.4-0.1c-12,0-21.8,9.7-21.8,21.7c0,1.3,0.1,2.6,0.4,3.9
				C164.4,120.3,173.7,110.1,175.2,97.5"/>
			<path class="st1" d="M117.7,97.5c-0.6,0-1.1,0-1.7,0.1c1.4,12.7,10.9,22.9,23.1,25.6c0.2-1.3,0.4-2.6,0.4-4
				C139.5,107.2,129.7,97.5,117.7,97.5"/>
			<path class="st2" d="M117.7,94.3c2.4,0,4.7,0.3,7,1c0.8-10.8,9.9-19.4,20.9-19.4c11.1,0,20.2,8.6,20.9,19.5
				c2.3-0.7,4.7-1.1,7.2-1.1c0.5,0,1.1,0,1.6,0.1c0-0.1,0-0.1,0-0.2c0-16.4-13.3-29.7-29.8-29.7c-16.5,0-29.8,13.3-29.8,29.7
				c0,0.1,0,0.1,0,0.2C116.4,94.3,117,94.3,117.7,94.3"/>
			<path class="st3" d="M148.7,119.2c0-10.1,6-18.7,14.6-22.7c-0.1-9.7-8.1-17.5-17.8-17.5c-9.7,0-17.6,7.8-17.8,17.4
				c8.8,3.9,14.9,12.6,14.9,22.8c0,1.5-0.1,3-0.4,4.5c1.1,0.1,2.2,0.2,3.3,0.2c1.2,0,2.4-0.1,3.6-0.2
				C148.9,122.2,148.7,120.7,148.7,119.2"/>
		</g>
	</g>
</g>
<g id="arauco_san_antonio" class="st5">
	<g class="st6">
		<path class="st7" d="M131.7,135.1c0-1.8,1.6-2.4,3-2.4c0.9,0,1.9,0.2,2.5,0.5l0.2-1.3c-1-0.4-2.1-0.5-2.7-0.5
			c-2.5,0-4.4,1.4-4.4,3.6c0,3.6,6.4,4,6.4,6.7c0,2-1.4,2.9-3.1,2.9c-1.3,0-2.3-0.3-3.1-0.8l-0.1,1.4c0.7,0.3,1.8,0.6,3.1,0.6
			c2.1,0,4.6-1.1,4.6-3.9C138.1,137.9,131.7,137.8,131.7,135.1 M98.9,140.7v-1.3c0-3-1.3-4.3-4.4-4.3c-1.1,0-2.5,0.3-3.6,0.8
			l0.1,2.3c0.9-0.7,2-1.1,3.2-1.1c1.6,0,2.3,0.6,2.3,2.2H95c-1.1,0-2.4,0.1-3.5,0.6c-1,0.5-1.8,1.4-1.8,2.9c0,2,1.8,3.1,3.6,3.1
			c1.2,0,2.6-0.6,3.2-1.8h0c0,0.3,0,1,0.1,1.5h2.4c-0.1-0.8-0.1-1.5-0.1-2.3C98.9,142.5,98.9,141.8,98.9,140.7 M95.9,142.9
			c-0.4,0.6-1.1,0.9-1.9,0.9c-1,0-1.7-0.4-1.7-1.3c0-1.6,1.8-1.8,3-1.8h1.2C96.5,141.6,96.4,142.4,95.9,142.9 M124.3,135.1
			c-3,0-5.4,2.1-5.4,5.4c0,3,2,5.3,5.4,5.3c3.4,0,5.4-2.4,5.4-5.3C129.7,137.1,127.4,135.1,124.3,135.1 M124.3,143.7
			c-2,0-2.6-1.9-2.6-3.5c0-1.5,0.8-3.1,2.6-3.1c1.8,0,2.6,1.5,2.6,3.1C126.9,141.9,126.4,143.7,124.3,143.7 M74.5,131.7l-5.4,13.9
			H72l1.2-3.2l4.9-2.2H74l2-5.7h0l2,5.7l2,5.4h3.1l-5.5-13.9H74.5z M107.3,140.3c0,1.3-0.4,3.4-2.4,3.4c-1.7,0-1.7-1.7-1.7-3v-5.5
			h-2.7v6.5c0,2.3,1.1,4,3.5,4c1.4,0,2.6-0.6,3.4-1.6h0v1.4h2.5v-10.3h-2.7V140.3z M89.8,135.1c-0.3-0.1-0.6-0.1-0.8-0.1
			c-1.6,0-2.7,1.6-2.8,2.6h0v-2.3h-2.4v10.3h2.7v-3.8c0-1.5,0-4.2,2.2-4.2c0.5,0,1,0.1,1.2,0.2V135.1z M116.6,143.7
			c-1.9,0-2.8-1.5-2.8-3.3c0-1.9,1.1-3.3,2.7-3.3c0.8,0,1.3,0.2,1.8,0.4l0.2-2.1c-0.7-0.2-1.5-0.3-2.6-0.3c-3.2,0-5,2.4-5,5.3
			c0,3.1,1.7,5.4,5.1,5.4c1.1,0,1.9-0.1,2.7-0.3l-0.1-2.2C118.2,143.5,117.4,143.7,116.6,143.7 M221.6,128.8c-1.5,0-2.8,1.3-2.8,2.8
			c0,1.6,1.2,2.8,2.8,2.8c1.5,0,2.8-1.3,2.8-2.8C224.4,130.1,223.2,128.8,221.6,128.8 M221.6,133.9c-1.2,0-2.1-1-2.1-2.3
			c0-1.3,0.9-2.3,2.1-2.3c1.2,0,2.1,1,2.1,2.3C223.7,132.9,222.8,133.9,221.6,133.9 M209.3,145.6h1.3v-10.2h-1.3V145.6z
			 M210.5,131.7h-1.3v1.7h1.3V131.7z M222.9,130.9c0-0.7-0.4-0.9-1.2-0.9h-1.2v3.2h0.6v-1.4h0.4l0.8,1.4h0.6l-0.9-1.4
			C222.6,131.8,222.9,131.5,222.9,130.9 M221.1,131.4v-0.9h0.5c0.3,0,0.6,0.1,0.6,0.4c0,0.4-0.3,0.5-0.7,0.5H221.1z M216.9,135.2
			c-3.3,0-4.7,2.5-4.7,5.3c0,2.8,1.5,5.3,4.7,5.3s4.7-2.5,4.7-5.3C221.7,137.8,220.2,135.2,216.9,135.2 M216.9,144.8
			c-2.2,0-3.4-1.9-3.4-4.2c0-2.3,1.2-4.2,3.4-4.2c2.2,0,3.4,1.9,3.4,4.2C220.3,142.9,219.1,144.8,216.9,144.8 M203.3,135.2
			c-2.1,0-2.9,1.1-3.3,2h0v-1.8h-1.2c0.1,0.8,0.1,1.6,0.1,2.4v7.8h1.3V140c0-1.7,0.7-3.7,3-3.7c1.7,0,2.4,1.2,2.4,3.1v6.2h1.3v-6.5
			C206.8,136.9,205.9,135.2,203.3,135.2 M186,144.8c-1,0-1.4-0.8-1.4-1.7v-6.6h2.3v-1.1h-2.3v-2.9l-1.3,0.4v2.4h-2v1.1h2v5.9
			c0,1.9,0.1,3.4,2.3,3.4c0.6,0,1.2-0.2,1.5-0.3l-0.1-1C186.8,144.7,186.5,144.8,186,144.8 M192.5,135.2c-3.3,0-4.7,2.5-4.7,5.3
			c0,2.8,1.5,5.3,4.7,5.3c3.3,0,4.7-2.5,4.7-5.3C197.2,137.8,195.8,135.2,192.5,135.2 M192.5,144.8c-2.2,0-3.4-1.9-3.4-4.2
			c0-2.3,1.2-4.2,3.4-4.2c2.2,0,3.4,1.9,3.4,4.2C195.8,142.9,194.7,144.8,192.5,144.8 M164,131.7l-5.7,13.9h1.3l1.5-3.7h7l1.5,3.7
			h1.4l-5.5-13.9H164z M161.7,140.7l3-7.7l3,7.7H161.7z M153.7,135.2c-2.1,0-2.9,1.1-3.3,2h0v-1.8h-1.2c0.1,0.8,0.1,1.6,0.1,2.4v7.8
			h1.3V140c0-1.7,0.7-3.7,3-3.7c1.7,0,2.4,1.2,2.4,3.1v6.2h1.3v-6.5C157.2,136.9,156.2,135.2,153.7,135.2 M176.7,135.2
			c-2.1,0-2.9,1.1-3.3,2h0v-1.8h-1.2c0.1,0.8,0.1,1.6,0.1,2.4v7.8h1.3V140c0-1.7,0.7-3.7,3-3.7c1.7,0,2.4,1.2,2.4,3.1v6.2h1.3v-6.5
			C180.1,136.9,179.2,135.2,176.7,135.2 M147,139c0-2.7-1.1-3.8-3.6-3.8c-0.9,0-2.2,0.3-3,0.7v1.2c0.9-0.6,1.9-0.8,3-0.8
			c1.7,0,2.3,0.9,2.3,2.6v0.5h-0.2c-2.6,0-6.3,0.2-6.3,3.6c0,0.9,0.5,2.9,3.3,2.9c1.3,0,2.7-0.7,3.2-1.9h0v1.6h1.2
			c-0.1-0.7-0.1-1.3-0.1-2.1V139z M145.7,141.1c0,1.1-0.1,3.7-3,3.7c-1.2,0-2.1-0.5-2.1-1.8c0-2.2,2.6-2.4,4.8-2.4h0.4V141.1z"/>
		<g>
			<path class="st0" d="M178,94.7c0,17.9-14.6,32.5-32.6,32.5c-18,0-32.6-14.5-32.6-32.5c0-17.9,14.6-32.5,32.6-32.5
				C163.4,62.2,178,76.7,178,94.7"/>
			<path class="st1" d="M175.1,98c-0.5,0-1,0-1.5,0c-12.1,0-21.9,9.8-21.9,21.8c0,1.3,0.1,2.7,0.4,3.9
				C164.4,120.9,173.7,110.7,175.1,98"/>
			<path class="st1" d="M117.4,98c-0.6,0-1.2,0-1.7,0.1c1.4,12.7,10.9,23,23.2,25.7c0.2-1.3,0.4-2.6,0.4-4
				C139.3,107.8,129.5,98,117.4,98"/>
			<path class="st2" d="M117.4,94.8c2.4,0,4.8,0.3,7,1c0.8-10.9,9.9-19.5,21-19.5c11.1,0,20.3,8.7,21,19.6c2.3-0.7,4.7-1.1,7.3-1.1
				c0.6,0,1.1,0,1.6,0.1c0-0.1,0-0.1,0-0.2c0-16.5-13.4-29.8-29.9-29.8c-16.5,0-29.9,13.4-29.9,29.8c0,0.1,0,0.1,0,0.2
				C116.1,94.8,116.7,94.8,117.4,94.8"/>
			<path class="st3" d="M148.6,119.8c0-10.1,6-18.8,14.7-22.8c-0.1-9.7-8.1-17.6-17.9-17.6c-9.7,0-17.7,7.8-17.9,17.5
				c8.8,3.9,15,12.7,15,22.9c0,1.5-0.1,3.1-0.4,4.5c1.1,0.1,2.2,0.2,3.3,0.2c1.2,0,2.4-0.1,3.6-0.2
				C148.7,122.8,148.6,121.3,148.6,119.8"/>
		</g>
	</g>
</g>
<g id="arauco_chillan" class="st5">
	<g class="st6">
		<path class="st7" d="M119,141.4v-1.3c0-3-1.3-4.3-4.4-4.3c-1.1,0-2.5,0.3-3.5,0.8l0.1,2.3c0.9-0.7,2-1.1,3.1-1.1
			c1.6,0,2.3,0.6,2.3,2.2h-1.5c-1.1,0-2.4,0.1-3.4,0.6c-1,0.5-1.7,1.4-1.7,2.9c0,1.9,1.8,3,3.6,3c1.2,0,2.5-0.6,3.1-1.8h0
			c0,0.3,0,1,0.1,1.5h2.3c-0.1-0.8-0.1-1.5-0.1-2.3C119,143.2,119,142.4,119,141.4 M116,143.6c-0.4,0.6-1,0.9-1.9,0.9
			c-0.9,0-1.7-0.4-1.7-1.2c0-1.6,1.8-1.8,2.9-1.8h1.1C116.6,142.3,116.5,143,116,143.6 M136.5,144.4c-1.9,0-2.7-1.4-2.7-3.3
			c0-1.9,1-3.2,2.7-3.2c0.8,0,1.3,0.2,1.8,0.4l0.2-2.1c-0.7-0.2-1.5-0.3-2.6-0.3c-3.2,0-4.9,2.3-4.9,5.3c0,3.1,1.7,5.4,5,5.4
			c1.1,0,1.9-0.1,2.6-0.3l-0.1-2.2C138.1,144.1,137.3,144.4,136.5,144.4 M127.3,141c0,1.3-0.4,3.4-2.3,3.4c-1.7,0-1.7-1.7-1.7-2.9
			V136h-2.6v6.4c0,2.3,1,4,3.5,4c1.4,0,2.5-0.6,3.3-1.6h0v1.4h2.5V136h-2.6V141z M110,135.9c-0.3-0.1-0.6-0.1-0.8-0.1
			c-1.6,0-2.7,1.6-2.8,2.5h0V136H104v10.2h2.6v-3.7c0-1.5,0-4.1,2.2-4.1c0.5,0,0.9,0.1,1.2,0.2V135.9z M144.1,135.8
			c-3,0-5.3,2-5.3,5.4c0,2.9,2,5.3,5.3,5.3c3.4,0,5.3-2.3,5.3-5.3C149.4,137.8,147.1,135.8,144.1,135.8 M144.1,144.4
			c-2,0-2.6-1.8-2.6-3.5c0-1.5,0.8-3,2.6-3c1.7,0,2.6,1.5,2.6,3C146.7,142.6,146.1,144.4,144.1,144.4 M190.8,132.3h-1.6l-1.7,2.7
			h0.9L190.8,132.3z M94.8,132.4l-5.4,13.8h2.9l1.2-3.2l4.8-2.2h-4l2-5.7h0l2,5.7l2,5.3h3.1L98,132.4H94.8z M181.6,146.2h1.3v-14.9
			h-1.3V146.2z M199,135.8c-2.1,0-2.9,1.1-3.3,2h0v-1.8h-1.2c0.1,0.8,0.1,1.6,0.1,2.4v7.8h1.3v-5.6c0-1.7,0.7-3.7,3-3.7
			c1.7,0,2.4,1.2,2.4,3.1v6.2h1.3v-6.5C202.5,137.5,201.5,135.8,199,135.8 M177.8,146.2h1.3v-14.9h-1.3V146.2z M174.1,146.2h1.3
			v-10.2h-1.3V146.2z M192.2,139.6c0-2.6-1.1-3.8-3.6-3.8c-0.9,0-2.2,0.3-3,0.7v1.2c0.9-0.6,1.9-0.8,3-0.8c1.7,0,2.3,0.9,2.3,2.6
			v0.5h-0.2c-2.6,0-6.3,0.2-6.3,3.6c0,0.9,0.5,2.9,3.3,2.9c1.3,0,2.7-0.7,3.2-1.9h0v1.6h1.2c-0.1-0.7-0.1-1.3-0.1-2.1V139.6z
			 M191,141.7c0,1.1-0.1,3.7-3,3.7c-1.2,0-2.1-0.5-2.1-1.8c0-2.2,2.6-2.4,4.8-2.4h0.4V141.7z M168.2,135.8c-1.5,0-2.6,0.8-3.2,1.9h0
			v-6.5h-1.3v14.9h1.3v-5.4c0-1.8,0.8-3.9,3-3.9c2.1,0,2.4,1.5,2.4,3.3v6.1h1.3v-6.1C171.7,137.6,170.9,135.8,168.2,135.8
			 M157.7,133.3c1,0,2.2,0.1,3.1,0.6l0.1-1.3c-0.7-0.4-2.4-0.5-3.2-0.5c-4.3,0-7,3-7,7.2c0,4.3,2.6,7.2,7,7.2c0.9,0,2.4-0.1,3.2-0.6
			l-0.1-1.2c-0.8,0.5-2.2,0.6-3.1,0.6c-3.7,0-5.6-2.5-5.6-6C152.1,135.8,154.1,133.3,157.7,133.3 M175.4,132.4h-1.3v1.7h1.3V132.4z
			 M203.8,131.7c0-0.7-0.4-0.9-1.2-0.9h-1.2v3.2h0.6v-1.4h0.4l0.8,1.4h0.6l-0.9-1.4C203.5,132.5,203.8,132.2,203.8,131.7 M202,132.1
			v-0.9h0.5c0.3,0,0.6,0.1,0.6,0.4c0,0.4-0.3,0.5-0.6,0.5H202z M202.5,129.6c-1.5,0-2.8,1.3-2.8,2.8c0,1.6,1.3,2.8,2.8,2.8
			c1.5,0,2.8-1.3,2.8-2.8C205.3,130.8,204.1,129.6,202.5,129.6 M202.5,134.6c-1.2,0-2.1-1-2.1-2.3c0-1.3,0.9-2.3,2.1-2.3
			c1.2,0,2.1,1,2.1,2.3C204.6,133.7,203.7,134.6,202.5,134.6"/>
		<g>
			<path class="st0" d="M178.5,95.3c0,17.9-14.6,32.5-32.6,32.5c-18,0-32.6-14.5-32.6-32.5S128,62.8,146,62.8
				C164,62.8,178.5,77.3,178.5,95.3"/>
			<path class="st1" d="M175.7,98.6c-0.5,0-1-0.1-1.5-0.1c-12.1,0-21.9,9.8-21.9,21.8c0,1.3,0.1,2.7,0.4,3.9
				C165,121.5,174.3,111.3,175.7,98.6"/>
			<path class="st1" d="M118,98.6c-0.6,0-1.2,0-1.7,0.1c1.4,12.7,10.9,23,23.2,25.7c0.2-1.3,0.4-2.6,0.4-4
				C139.9,108.4,130,98.6,118,98.6"/>
			<path class="st2" d="M118,95.4c2.4,0,4.8,0.3,7,1c0.8-10.9,9.9-19.5,21-19.5c11.1,0,20.3,8.7,21,19.6c2.3-0.7,4.7-1.1,7.3-1.1
				c0.6,0,1.1,0,1.6,0.1c0-0.1,0-0.1,0-0.2c0-16.5-13.4-29.8-29.9-29.8c-16.5,0-29.9,13.4-29.9,29.8c0,0.1,0,0.1,0,0.2
				C116.7,95.4,117.3,95.4,118,95.4"/>
			<path class="st3" d="M149.2,120.4c0-10.1,6-18.8,14.7-22.8C163.7,87.9,155.8,80,146,80c-9.7,0-17.7,7.8-17.9,17.5
				c8.8,3.9,15,12.7,15,22.9c0,1.5-0.1,3.1-0.4,4.5c1.1,0.1,2.2,0.2,3.3,0.2c1.2,0,2.4-0.1,3.6-0.2
				C149.3,123.4,149.2,121.9,149.2,120.4"/>
		</g>
	</g>
</g>
<g id="arauco_coronel" class="st5">
	<g class="st6">
		<path class="st0" d="M144.1,62.1c-18.1,0-32.7,14.7-32.7,32.7c0,18.1,14.7,32.7,32.7,32.7c18.1,0,32.7-14.7,32.7-32.7
			C176.8,76.8,162.2,62.1,144.1,62.1 M137.6,124.2c-12.4-2.7-21.9-13.1-23.4-26c0.6,0,1.2-0.1,1.7-0.1c12.1,0,22,9.9,22,22
			C137.9,121.5,137.8,122.9,137.6,124.2 M144.1,124.9c-1.1,0-2.2-0.1-3.3-0.2c0.3-1.5,0.4-3,0.4-4.6c0-10.3-6.2-19.2-15-23.1
			c0.2-9.7,8.2-17.6,18-17.6c9.8,0,17.8,7.9,18,17.7c-8.7,4-14.8,12.8-14.8,23c0,1.5,0.1,3.1,0.4,4.5
			C146.5,124.8,145.3,124.9,144.1,124.9 M150.9,124.1c-0.2-1.3-0.4-2.6-0.4-4c0-12.1,9.9-22,22-22c0.5,0,1,0,1.5,0.1
			C172.6,111,163.2,121.3,150.9,124.1 M172.5,94.9c-2.5,0-5,0.4-7.3,1.1c-0.7-11-9.9-19.8-21.1-19.8c-11.2,0-20.4,8.7-21.1,19.7
			c-2.2-0.6-4.6-1-7-1c-0.6,0-1.3,0-1.9,0.1c0-0.1,0-0.1,0-0.2c0-16.6,13.5-30.1,30.1-30.1c16.6,0,30.1,13.5,30.1,30.1
			c0,0.1,0,0.1,0,0.2C173.6,95,173.1,94.9,172.5,94.9"/>
		<path class="st7" d="M103.5,135.8c-0.3-0.1-0.6-0.1-0.8-0.1c-1.6,0-2.7,1.6-2.8,2.6h0v-2.3h-2.4v10.2h2.7v-3.8
			c0-1.5,0-4.2,2.2-4.2c0.5,0,1,0.1,1.2,0.2V135.8z M88.3,132.3l-5.4,13.9h2.9L87,143l4.9-2.2h-4.1l2-5.7h0l2,5.7l2,5.4h3.1
			l-5.4-13.9H88.3z M130.3,144.4c-1.9,0-2.8-1.5-2.8-3.3c0-1.9,1.1-3.2,2.7-3.2c0.8,0,1.3,0.2,1.8,0.4l0.2-2.1
			c-0.7-0.2-1.5-0.3-2.6-0.3c-3.2,0-4.9,2.3-4.9,5.3c0,3.1,1.7,5.4,5,5.4c1.1,0,1.9-0.1,2.7-0.3l-0.1-2.2
			C131.9,144.1,131.1,144.4,130.3,144.4 M137.9,135.7c-3,0-5.4,2-5.4,5.4c0,2.9,2,5.3,5.4,5.3c3.4,0,5.4-2.4,5.4-5.3
			C143.3,137.8,141,135.7,137.9,135.7 M137.9,144.4c-2,0-2.6-1.9-2.6-3.5c0-1.5,0.8-3,2.6-3c1.8,0,2.6,1.5,2.6,3
			C140.5,142.5,140,144.4,137.9,144.4 M112.6,141.3V140c0-3-1.3-4.3-4.4-4.3c-1.1,0-2.5,0.3-3.6,0.8l0.1,2.3c0.9-0.7,2-1.1,3.2-1.1
			c1.6,0,2.3,0.6,2.3,2.2h-1.5c-1.1,0-2.4,0.1-3.4,0.6c-1,0.5-1.8,1.4-1.8,2.9c0,2,1.8,3,3.6,3c1.2,0,2.5-0.6,3.2-1.8h0
			c0,0.3,0,1,0.1,1.5h2.3c-0.1-0.8-0.1-1.5-0.1-2.3C112.6,143.1,112.6,142.4,112.6,141.3 M109.6,143.6c-0.4,0.6-1.1,0.9-1.9,0.9
			c-1,0-1.7-0.4-1.7-1.3c0-1.6,1.8-1.8,3-1.8h1.2C110.2,142.2,110.1,143,109.6,143.6 M121,141c0,1.3-0.4,3.4-2.3,3.4
			c-1.7,0-1.7-1.7-1.7-2.9v-5.5h-2.7v6.5c0,2.3,1.1,4,3.5,4c1.4,0,2.5-0.6,3.4-1.6h0v1.4h2.5v-10.2H121V141z"/>
		<path class="st7" d="M155.2,133.9c-0.9-0.5-2.1-0.6-3.1-0.6c-3.6,0-5.6,2.5-5.6,6c0,3.5,2,6,5.6,6c0.9,0,2.3-0.1,3.1-0.6l0.1,1.2
			c-0.8,0.5-2.3,0.6-3.2,0.6c-4.4,0-7-2.9-7-7.2c0-4.2,2.7-7.2,7-7.2c0.8,0,2.5,0.1,3.2,0.5L155.2,133.9z"/>
		<path class="st7" d="M161.3,135.9c3.3,0,4.7,2.5,4.7,5.3c0,2.8-1.5,5.3-4.7,5.3c-3.3,0-4.7-2.5-4.7-5.3
			C156.5,138.4,158,135.9,161.3,135.9 M161.3,145.4c2.2,0,3.4-1.9,3.4-4.2c0-2.3-1.2-4.2-3.4-4.2c-2.2,0-3.4,1.9-3.4,4.2
			C157.9,143.5,159.1,145.4,161.3,145.4"/>
		<path class="st7" d="M167.6,138.4c0-1.1,0-1.5-0.1-2.3h1.3v1.9h0c0.5-1.1,1.3-2.2,2.6-2.2c0.3,0,0.7,0.1,0.9,0.1v1.3
			c-0.3-0.1-0.6-0.1-0.9-0.1c-2,0-2.5,2.2-2.5,4.1v5h-1.3V138.4z"/>
		<path class="st7" d="M177.2,135.9c3.3,0,4.7,2.5,4.7,5.3c0,2.8-1.5,5.3-4.7,5.3c-3.3,0-4.7-2.5-4.7-5.3
			C172.4,138.4,173.9,135.9,177.2,135.9 M177.2,145.4c2.2,0,3.4-1.9,3.4-4.2c0-2.3-1.2-4.2-3.4-4.2s-3.4,1.9-3.4,4.2
			C173.8,143.5,175,145.4,177.2,145.4"/>
		<path class="st7" d="M183.6,138.5c0-0.8,0-1.6-0.1-2.4h1.2v1.8h0c0.4-0.9,1.2-2,3.3-2c2.5,0,3.5,1.7,3.5,3.9v6.5h-1.3v-6.2
			c0-1.9-0.7-3.1-2.4-3.1c-2.3,0-3,2-3,3.7v5.6h-1.3V138.5z"/>
		<path class="st7" d="M200.7,145.9c-0.9,0.4-2,0.6-2.9,0.6c-3.4,0-4.6-2.3-4.6-5.3c0-3.1,1.7-5.3,4.3-5.3c2.9,0,4,2.3,4,5v0.6h-6.9
			c0,2.1,1.2,3.9,3.3,3.9c0.9,0,2.2-0.4,2.8-0.8V145.9z M200.1,140.5c0-1.8-0.7-3.5-2.6-3.5c-1.8,0-3,1.8-3,3.5H200.1z"/>
		<rect x="203.2" y="131.4" class="st7" width="1.3" height="14.9"/>
		<path class="st7" d="M210,131.6c0-0.7-0.4-0.9-1.2-0.9h-1.2v3.1h0.6v-1.4h0.4l0.8,1.4h0.6l-0.8-1.4
			C209.7,132.4,210,132.1,210,131.6 M208.3,132v-0.9h0.5c0.3,0,0.6,0.1,0.6,0.4c0,0.4-0.3,0.5-0.6,0.5H208.3z"/>
		<path class="st7" d="M208.8,129.5c-1.5,0-2.8,1.2-2.8,2.8c0,1.5,1.2,2.8,2.8,2.8c1.5,0,2.7-1.2,2.7-2.8
			C211.5,130.7,210.3,129.5,208.8,129.5 M208.8,134.5c-1.2,0-2.1-0.9-2.1-2.2s0.9-2.2,2.1-2.2c1.1,0,2.1,0.9,2.1,2.2
			S209.9,134.5,208.8,134.5"/>
		<path class="st8" d="M137.6,124.2c-12.4-2.7-21.9-13.1-23.4-26c0.6,0,1.2-0.1,1.7-0.1c12.1,0,22,9.9,22,22
			C137.9,121.5,137.8,122.9,137.6,124.2"/>
		<path class="st9" d="M144.1,124.9c-1.1,0-2.2-0.1-3.3-0.2c0.3-1.5,0.4-3,0.4-4.6c0-10.3-6.2-19.2-15-23.1
			c0.2-9.7,8.2-17.6,18-17.6c9.8,0,17.8,7.9,18,17.7c-8.7,4-14.8,12.8-14.8,23c0,1.5,0.1,3.1,0.4,4.5
			C146.5,124.8,145.3,124.9,144.1,124.9"/>
		<path class="st8" d="M150.9,124.1c-0.2-1.3-0.4-2.6-0.4-4c0-12.1,9.9-22,22-22c0.5,0,1,0,1.5,0.1
			C172.6,111,163.2,121.3,150.9,124.1"/>
		<path class="st10" d="M172.5,94.9c-2.5,0-5,0.4-7.3,1.1c-0.7-11-9.9-19.8-21.1-19.8c-11.2,0-20.4,8.7-21.1,19.7
			c-2.2-0.6-4.6-1-7-1c-0.6,0-1.3,0-1.9,0.1c0-0.1,0-0.1,0-0.2c0-16.6,13.5-30.1,30.1-30.1c16.6,0,30.1,13.5,30.1,30.1
			c0,0.1,0,0.1,0,0.2C173.6,95,173.1,94.9,172.5,94.9"/>
	</g>
</g>
<g id="arauco_premium_outlet" class="st5">
	<g class="st6">
		<g>
			<g>
				<path class="st11" d="M143.2,50.6h7l1.5,3.7h1.4l-5.5-13.9H146l-5.7,13.9h1.3L143.2,50.6z M146.7,41.7l3,7.7h-6L146.7,41.7z"/>
				<path class="st11" d="M143.2,64.5h7l1.5,3.7h1.4l-5.5-13.9H146l-5.7,13.9h1.3L143.2,64.5z M146.7,55.6l3,7.7h-6L146.7,55.6z"/>
			</g>
			<g>
				<path class="st11" d="M69.9,156v7l-3.7,1.5v1.4l13.9-5.5v-1.6l-13.9-5.7v1.3L69.9,156z M78.8,159.6l-7.7,3v-6L78.8,159.6z"/>
				<path class="st11" d="M56,156v7l-3.7,1.5v1.4l13.9-5.5v-1.6l-13.9-5.7v1.3L56,156z M64.9,159.6l-7.7,3v-6L64.9,159.6z"/>
			</g>
			<g>
				<path class="st11" d="M223,163.1v-7l3.7-1.5v-1.4l-13.9,5.5v1.6l13.9,5.7v-1.3L223,163.1z M214.1,159.6l7.7-3v6L214.1,159.6z"/>
				<path class="st11" d="M236.9,163.1v-7l3.7-1.5v-1.4l-13.9,5.5v1.6l13.9,5.7v-1.3L236.9,163.1z M228,159.6l7.7-3v6L228,159.6z"/>
			</g>
		</g>
		<g>
			<path class="st7" d="M118.9,148h7l1.5,3.7h1.4l-5.5-13.9h-1.6l-5.7,13.9h1.3L118.9,148z M122.4,139.2l3,7.7h-6L122.4,139.2z
				 M118.3,158.2c-1.3,0-2.6,0.6-3.2,1.8c-0.6-1.3-1.6-1.8-3-1.8c-1,0-2.2,0.4-3,1.7h0v-1.4h-2.5v10.2h2.7v-5c0-1.3,0.2-3.4,2-3.4
				c1.5,0,1.5,1.3,1.5,2.3v6.1h2.7v-5c0-1.3,0.2-3.4,2-3.4c1.5,0,1.5,1.3,1.5,2.3v6.1h2.7v-6.4C121.5,160,120.8,158.2,118.3,158.2
				 M83.6,154.9h-3.5v13.9h2.8v-5.3h1.2c3,0,5.3-1.2,5.3-4.4C89.4,155.7,86.6,154.9,83.6,154.9 M83.9,161.3h-1V157h1
				c1.4,0,2.6,0.6,2.6,2.2C86.5,160.8,85.3,161.3,83.9,161.3 M192.4,168.7h2.7v-14h-2.7V168.7z M100.6,158.2c-3.2,0-4.7,2.4-4.7,5.4
				c0,3.4,2,5.3,5.3,5.3c1.4,0,2.5-0.3,3.5-0.8V166c-1,0.6-2.1,1-3.4,1c-1.6,0-2.8-0.9-2.9-2.6h7.1
				C105.5,160.8,104.4,158.2,100.6,158.2 M98.4,162.6c0.1-1.4,0.9-2.4,2.4-2.4c1.5,0,2.1,1.1,2.2,2.4H98.4z M190.4,166.9
				c-1,0-1.2-0.8-1.2-1.7v-4.8h2.4v-1.9h-2.4v-2.9l-2.7,0.9v2h-2v1.9h2v5.2c0,2,1.2,3.3,3.2,3.3c0.8,0,1.4-0.1,2-0.2l-0.1-2.1
				C191.3,166.8,190.9,166.9,190.4,166.9 M96.2,158.3c-0.3-0.1-0.6-0.1-0.8-0.1c-1.6,0-2.7,1.6-2.8,2.6h0v-2.3h-2.4v10.2h2.7V165
				c0-1.5,0-4.2,2.2-4.2c0.5,0,1,0.1,1.2,0.2V158.3z M123.4,157.4h2.7v-2.5h-2.7V157.4z M147.7,152c2.1,0,2.9-1.1,3.3-2.1h0v1.8h1.2
				c-0.1-0.8-0.1-1.6-0.1-2.4v-7.8h-1.3v5.6c0,1.7-0.7,3.7-3,3.7c-1.7,0-2.4-1.2-2.4-3.2v-6.2h-1.3v6.5
				C144.2,150.3,145.2,152,147.7,152 M166.4,154.6c-4.4,0-6.8,2.9-6.8,7.1c0,4.2,2.3,7.2,6.8,7.2c4.4,0,6.8-3,6.8-7.2
				C173.2,157.6,170.7,154.6,166.4,154.6 M166.4,166.8c-2.8,0-3.9-2.5-3.9-5c0-2.4,1.1-4.9,3.9-4.9c2.8,0,3.9,2.5,3.9,4.9
				C170.3,164.2,169.2,166.8,166.4,166.8 M166.1,152c3.3,0,4.7-2.5,4.7-5.3c0-2.8-1.5-5.3-4.7-5.3c-3.3,0-4.7,2.6-4.7,5.3
				C161.4,149.4,162.9,152,166.1,152 M166.1,142.4c2.2,0,3.4,1.9,3.4,4.2c0,2.4-1.2,4.2-3.4,4.2c-2.2,0-3.4-1.9-3.4-4.2
				C162.8,144.3,163.9,142.4,166.1,142.4 M137.9,152c1.3,0,2.7-0.7,3.2-1.9h0v1.6h1.2c-0.1-0.7-0.1-1.3-0.1-2.1v-4.5
				c0-2.7-1.1-3.8-3.6-3.8c-0.9,0-2.2,0.3-3,0.7v1.2c0.9-0.6,1.9-0.8,3-0.8c1.7,0,2.3,0.9,2.3,2.6v0.5h-0.2c-2.6,0-6.3,0.2-6.3,3.6
				C134.5,150,135,152,137.9,152 M140.6,146.6h0.4v0.6c0,1.1-0.1,3.7-3,3.7c-1.2,0-2.1-0.5-2.1-1.8
				C135.9,146.8,138.5,146.6,140.6,146.6 M129.6,151.7h1.3v-5c0-1.8,0.5-4.1,2.5-4.1c0.3,0,0.7,0,0.9,0.1v-1.3
				c-0.2-0.1-0.6-0.1-0.9-0.1c-1.3,0-2.2,1.1-2.6,2.2h0v-2h-1.3c0.1,0.7,0.1,1.2,0.1,2.3V151.7z M200.9,158.2
				c-3.2,0-4.7,2.4-4.7,5.4c0,3.4,2,5.3,5.3,5.3c1.4,0,2.5-0.3,3.5-0.8V166c-1,0.6-2.1,1-3.4,1c-1.6,0-2.8-0.9-2.9-2.6h7.1
				C205.8,160.8,204.7,158.2,200.9,158.2 M198.7,162.6c0.1-1.4,0.9-2.4,2.4-2.4c1.5,0,2.1,1.1,2.2,2.4H198.7z M212.9,166.6
				c-0.3,0.2-0.7,0.3-1.2,0.3c-1,0-1.3-0.8-1.3-1.7v-4.8h2.4v-1.9h-2.4v-2.9l-2.7,0.9v2h-2v1.9h2v5.2c0,2,1.2,3.3,3.2,3.3
				c0.8,0,1.4-0.1,2-0.2L212.9,166.6z M161,151.6l-0.1-1.2c-0.8,0.3-1.5,0.5-2.3,0.5c-2.3,0-3.7-1.9-3.7-4.2c0-2.5,1.4-4.2,3.8-4.2
				c0.7,0,1.5,0.2,2.2,0.5l0.1-1.2c-0.4-0.1-1.2-0.4-2.4-0.4c-3,0-5,2.2-5,5.3c0,2.8,1.6,5.3,4.9,5.3
				C159.4,152,160.2,151.9,161,151.6 M175.5,141.1c0-0.5-0.3-0.7-0.9-0.7h-0.9v2.5h0.5v-1.1h0.3l0.7,1.1h0.5l-0.7-1.1
				C175.2,141.7,175.5,141.5,175.5,141.1 M174.1,141.4v-0.7h0.4c0.2,0,0.5,0,0.5,0.4c0,0.3-0.2,0.4-0.5,0.4H174.1z M181.2,163.5
				c0,1.3-0.4,3.4-2.3,3.4c-1.7,0-1.7-1.7-1.7-2.9v-5.5h-2.7v6.4c0,2.3,1,4,3.5,4c1.4,0,2.5-0.6,3.4-1.6h0v1.4h2.5v-10.2h-2.7V163.5
				z M176.7,141.6c0-1.2-1-2.3-2.2-2.3c-1.2,0-2.2,1-2.2,2.3c0,1.2,1,2.2,2.2,2.2C175.7,143.9,176.7,142.9,176.7,141.6 M174.5,143.4
				c-0.9,0-1.7-0.8-1.7-1.8c0-1.1,0.8-1.8,1.7-1.8c0.9,0,1.7,0.8,1.7,1.8C176.2,142.7,175.4,143.4,174.5,143.4 M125.9,158.5h-2.7
				v10.2h2.7V158.5z M145,162.6v6.1h2.7v-5c0-1.3,0.2-3.4,2-3.4c1.5,0,1.5,1.3,1.5,2.3v6.1h2.7v-6.4c0-2.3-0.7-4-3.2-4
				c-1.3,0-2.6,0.6-3.2,1.8c-0.6-1.3-1.6-1.8-3-1.8c-1,0-2.2,0.4-3,1.7h0v-1.4h-2.5v10.2h2.7v-5c0-1.3,0.2-3.4,2-3.4
				C145,160.3,145,161.7,145,162.6 M137.1,168.7v-10.2h-2.7v5c0,1.3-0.4,3.4-2.3,3.4c-1.7,0-1.7-1.7-1.7-2.9v-5.5h-2.7v6.4
				c0,2.3,1.1,4,3.5,4c1.4,0,2.5-0.6,3.4-1.6h0v1.4H137.1z"/>
			<g>
				<path class="st0" d="M179.1,100.7c0,17.9-14.6,32.5-32.6,32.5c-18,0-32.6-14.5-32.6-32.5s14.6-32.5,32.6-32.5
					C164.5,68.2,179.1,82.7,179.1,100.7"/>
				<path class="st1" d="M176.3,104c-0.5,0-1-0.1-1.5-0.1c-12.1,0-21.9,9.8-21.9,21.8c0,1.3,0.1,2.7,0.4,3.9
					C165.5,126.9,174.9,116.7,176.3,104"/>
				<path class="st1" d="M118.5,104c-0.6,0-1.2,0-1.7,0.1c1.4,12.7,10.9,23,23.3,25.8c0.2-1.3,0.4-2.6,0.4-4
					C140.4,113.8,130.6,104,118.5,104"/>
				<path class="st2" d="M118.5,100.8c2.4,0,4.8,0.4,7,1c0.8-10.9,9.9-19.5,21-19.5c11.2,0,20.3,8.7,21,19.6
					c2.3-0.7,4.7-1.1,7.3-1.1c0.5,0,1.1,0,1.6,0.1v-0.2c0-16.5-13.4-29.9-29.9-29.9c-16.5,0-29.9,13.4-29.9,29.9v0.2
					C117.2,100.8,117.9,100.8,118.5,100.8"/>
				<path class="st3" d="M149.7,125.8c0-10.1,6-18.8,14.7-22.8c-0.1-9.7-8.1-17.6-17.9-17.6c-9.7,0-17.7,7.8-17.9,17.5
					c8.8,3.9,15,12.7,15,22.9c0,1.5-0.1,3.1-0.4,4.5c1.1,0.1,2.2,0.2,3.3,0.2c1.2,0,2.4-0.1,3.6-0.2
					C149.9,128.8,149.7,127.4,149.7,125.8"/>
			</g>
		</g>
	</g>
</g>
</svg>
