<svg id="Capa_1" data-name="Capa 1" xmlns="http://www.w3.org/2000/svg" viewBox="0 0 120 102.8"><defs><style>.cls-1{fill:#fff;}.cls-2{fill:#499c2d;}.cls-3{fill:#184287;}.cls-4{fill:#e40521;}.cls-5{fill:#1d1d1c;}</style></defs><title>parque_arauco_xs</title><g id="parque_arauco" data-name="parque arauco"><path class="cls-1" d="M92.4,33.6a34,34,0,1,1-34-34,34,34,0,0,1,34,34" transform="translate(0 0.4)"/><path class="cls-2" d="M89.4,37.1c-.5,0-1-.1-1.5-.1A22.79,22.79,0,0,0,65.1,59.8a18.4,18.4,0,0,0,.4,4.1A30.76,30.76,0,0,0,89.4,37.1" transform="translate(0 0.4)"/><path class="cls-3" d="M29.2,33.7a29.23,29.23,0,0,1,7.3,1,22,22,0,0,1,43.9.1A26.84,26.84,0,0,1,88,33.7a9.7,9.7,0,0,1,1.7.1v-.2a31.2,31.2,0,0,0-62.4,0v.2c.5,0,1.2-.1,1.9-.1" transform="translate(0 0.4)"/><path class="cls-4" d="M61.7,59.9A26.14,26.14,0,0,1,77,36.1,18.6,18.6,0,0,0,39.8,36,26.26,26.26,0,0,1,55.4,60a24.18,24.18,0,0,1-.4,4.7c1.1.1,2.3.2,3.5.2s2.5-.1,3.8-.2a19.73,19.73,0,0,1-.6-4.8" transform="translate(0 0.4)"/><path class="cls-2" d="M29.2,37.1a10.87,10.87,0,0,0-1.8.1A31.17,31.17,0,0,0,51.7,64.1a19.31,19.31,0,0,0,.4-4.2A22.94,22.94,0,0,0,29.2,37.1" transform="translate(0 0.4)"/><path class="cls-5" d="M0,72H3.6c2.7,0,4.5,1.4,4.5,4.2S6,80.4,3.4,80.4h-2v6.4H0Zm1.4,7.1h1c2.2,0,4.2-.3,4.2-2.9a2.59,2.59,0,0,0-2.9-2.9H1.4Z" transform="translate(0 0.4)"/><path class="cls-5" d="M15.4,85h0A3.79,3.79,0,0,1,12,87c-3,0-3.5-2.1-3.5-3.1,0-3.6,3.8-3.8,6.6-3.8h.3v-.5c0-1.8-.7-2.8-2.4-2.8a5.61,5.61,0,0,0-3.1.9V76.4a8.24,8.24,0,0,1,3.1-.7c2.6,0,3.7,1.2,3.7,4v4.8a17,17,0,0,0,.1,2.3H15.5V85Zm-.1-3.7h-.4c-2.3,0-5,.2-5,2.6a1.94,1.94,0,0,0,2.2,2c3.1,0,3.2-2.7,3.2-3.9Z" transform="translate(0 0.4)"/><path class="cls-5" d="M18.7,78.4a16.27,16.27,0,0,0-.1-2.4h1.3v2h0a3.19,3.19,0,0,1,2.7-2.3c.3,0,.7.1.9.1v1.4a3.08,3.08,0,0,0-1-.1c-2.1,0-2.7,2.4-2.7,4.3v5.3H18.5V78.4Z" transform="translate(0 0.4)"/><path class="cls-5" d="M32.7,91.2H31.4V84.9h0A3.42,3.42,0,0,1,28,87c-2.9,0-4.4-2.5-4.4-5.7s1.3-5.7,4.4-5.7a3.46,3.46,0,0,1,3.3,2h0V75.8h1.3V91.2Zm-4.5-5.3c2.3,0,3.2-2.5,3.2-4.5s-.8-4.5-3.2-4.5S25,79.3,25,81.4s.7,4.5,3.2,4.5" transform="translate(0 0.4)"/><path class="cls-5" d="M43.2,84.2a20.9,20.9,0,0,0,.1,2.5H42V84.8h0A3.32,3.32,0,0,1,38.5,87c-2.6,0-3.6-1.8-3.6-4.2V75.9h1.3v6.6c0,2,.7,3.4,2.5,3.4,2.4,0,3.2-2.1,3.2-3.9V76h1.3Z" transform="translate(0 0.4)"/><path class="cls-5" d="M52.6,86.4a8.15,8.15,0,0,1-3.1.6c-3.5,0-4.9-2.4-4.9-5.7s1.8-5.7,4.5-5.7c3,0,4.2,2.5,4.2,5.4v.7H46c0,2.3,1.2,4.1,3.5,4.1a6.63,6.63,0,0,0,3-.8v1.4Zm-.7-5.8c0-1.9-.8-3.7-2.7-3.7s-3.1,2-3.1,3.7Z" transform="translate(0 0.4)"/><path class="cls-5" d="M59.1,72h3.3l5.7,14.8H64.9L62.8,81l-5.1,2.3-1.3,3.4h-3Zm1.6,2.9h0L58.5,81h4.3Z" transform="translate(0 0.4)"/><path class="cls-5" d="M68.8,75.8h2.5v2.5h0a3.31,3.31,0,0,1,3-2.7,2.77,2.77,0,0,1,.9.1v2.9a4.44,4.44,0,0,0-1.3-.2c-2.3,0-2.3,2.9-2.3,4.4v4H68.8Z" transform="translate(0 0.4)"/><path class="cls-5" d="M76.3,76.4a10,10,0,0,1,3.8-.8c3.3,0,4.6,1.4,4.6,4.6v4.1c0,.8.1,1.6.1,2.4H82.3a10.36,10.36,0,0,1-.1-1.6h0A4,4,0,0,1,78.9,87c-1.9,0-3.8-1.2-3.8-3.2a3.27,3.27,0,0,1,1.8-3.1,9.09,9.09,0,0,1,3.6-.6h1.6c0-1.8-.8-2.4-2.4-2.4a5.55,5.55,0,0,0-3.3,1.2Zm3.3,8.5a2.46,2.46,0,0,0,2-1,3.34,3.34,0,0,0,.6-2.2H81c-1.3,0-3.1.2-3.1,1.9-.1.9.7,1.3,1.7,1.3" transform="translate(0 0.4)"/><path class="cls-5" d="M96.3,86.7H93.6V85.2h0a4.4,4.4,0,0,1-3.5,1.7c-2.6,0-3.7-1.8-3.7-4.3V75.7h2.8v5.8c0,1.3,0,3.1,1.8,3.1,2,0,2.5-2.2,2.5-3.6V75.7h2.8v11Z" transform="translate(0 0.4)"/><path class="cls-5" d="M105.2,78.2a4.88,4.88,0,0,0-1.9-.4c-1.7,0-2.8,1.4-2.8,3.5s.9,3.6,2.9,3.6a6.49,6.49,0,0,0,2.2-.5l.1,2.4a7.89,7.89,0,0,1-2.8.4c-3.5,0-5.3-2.4-5.3-5.8,0-3.2,1.8-5.7,5.2-5.7a7.32,7.32,0,0,1,2.7.4Z" transform="translate(0 0.4)"/><path class="cls-5" d="M111.3,75.6a5.49,5.49,0,0,1,5.7,5.8,5.38,5.38,0,0,1-5.7,5.6,5.3,5.3,0,0,1-5.6-5.6,5.46,5.46,0,0,1,5.6-5.8m0,9.2c2.2,0,2.7-1.9,2.7-3.8,0-1.7-.9-3.2-2.7-3.2s-2.7,1.6-2.7,3.2c0,1.8.6,3.8,2.7,3.8" transform="translate(0 0.4)"/><path class="cls-5" d="M114.2,72a3,3,0,0,1,2.9-3,2.93,2.93,0,0,1,2.9,3,3,3,0,0,1-2.9,3,3.06,3.06,0,0,1-2.9-3m5.1,0a2.21,2.21,0,1,0-2.2,2.4,2.27,2.27,0,0,0,2.2-2.4M116,70.3h1.2c.8,0,1.2.3,1.2,1a.8.8,0,0,1-.9.9l.9,1.5h-.6l-.9-1.4h-.4v1.4H116Zm.6,1.4h.5c.4,0,.7-.1.7-.5s-.4-.5-.7-.5h-.5Z" transform="translate(0 0.4)"/><polygon class="cls-5" points="6.4 100.8 5.5 100.8 5.5 94.9 3.5 98.9 3 98.9 1.1 94.9 1.1 100.8 0.2 100.8 0.2 93.9 1.5 93.9 3.3 97.8 5.1 93.9 6.4 93.9 6.4 100.8"/><path class="cls-5" d="M12.5,100.4h-.9v-.6a9.22,9.22,0,0,1-.8.5,2.92,2.92,0,0,1-.9.2,1.9,1.9,0,0,1-1.3-.5,2.07,2.07,0,0,1-.5-1.5V95.1H9v3.7c0,.2.1.3.2.5l.3.3c.1.1.3.1.6.1a1.85,1.85,0,0,0,.7-.2,1.79,1.79,0,0,0,.7-.5V95.1h.9v5.3Z" transform="translate(0 0.4)"/><path class="cls-5" d="M18,100.1a6.89,6.89,0,0,0-.8.3,2.2,2.2,0,0,1-.8.1,3,3,0,0,1-1-.2A2.1,2.1,0,0,1,14.1,99a3.73,3.73,0,0,1-.2-1.2,2.72,2.72,0,0,1,.7-2,2.41,2.41,0,0,1,1.8-.7,2.77,2.77,0,0,1,.9.1c.3.1.5.2.8.3v1h0a3.51,3.51,0,0,0-.8-.5,3.09,3.09,0,0,0-.8-.2,1.66,1.66,0,0,0-1.2.5,2.08,2.08,0,0,0-.4,1.5,2,2,0,0,0,.4,1.4,1.66,1.66,0,0,0,1.2.5.75.75,0,0,0,.5-.1c.2,0,.3-.1.5-.2s.2-.1.4-.2.2-.1.3-.2h0v1.1Z" transform="translate(0 0.4)"/><path class="cls-5" d="M23.4,100.4h-.9V96.7a.76.76,0,0,0-.2-.5l-.3-.3c-.1-.1-.3-.1-.6-.1a1.85,1.85,0,0,0-.7.2,4.35,4.35,0,0,0-.7.4v3.9h-.9V93.1H20v2.6a9.22,9.22,0,0,1,.8-.5,2.92,2.92,0,0,1,.9-.2,1.73,1.73,0,0,1,1.3.5,2.08,2.08,0,0,1,.4,1.5Z" transform="translate(0 0.4)"/><path class="cls-5" d="M29.5,97.8a3.17,3.17,0,0,1-.6,2,2.06,2.06,0,0,1-1.7.7,2.06,2.06,0,0,1-1.7-.7,3.63,3.63,0,0,1,0-4,2.06,2.06,0,0,1,1.7-.7,2.06,2.06,0,0,1,1.7.7,3.17,3.17,0,0,1,.6,2m-.9,0a2.08,2.08,0,0,0-.4-1.5,1.46,1.46,0,0,0-2.2,0,2.08,2.08,0,0,0-.4,1.5,2.41,2.41,0,0,0,.4,1.5,1.46,1.46,0,0,0,2.2,0,2.08,2.08,0,0,0,.4-1.5" transform="translate(0 0.4)"/><path class="cls-5" d="M41.8,100.4h-.9V96.8a4.33,4.33,0,0,0-.1-.5l-.3-.3c-.1-.1-.3-.1-.6-.1a1.85,1.85,0,0,0-.7.2,3,3,0,0,0-.7.5v3.8h-.9V96.8a4.33,4.33,0,0,0-.1-.5l-.3-.3c-.1-.1-.3-.1-.6-.1a1.85,1.85,0,0,0-.7.2c-.2.1-.5.3-.7.4v3.9h-.9V95.2h.9v.6a3.51,3.51,0,0,1,.8-.5,2.92,2.92,0,0,1,.9-.2,2,2,0,0,1,.9.2,1.47,1.47,0,0,1,.5.6,3.74,3.74,0,0,1,1-.6,2.92,2.92,0,0,1,.9-.2,1.73,1.73,0,0,1,1.3.5,2,2,0,0,1,.4,1.4v3.4Z" transform="translate(0 0.4)"/><path class="cls-5" d="M47.5,100.4h-.9v-.6c-.1.1-.2.1-.3.2a.76.76,0,0,1-.4.2c-.1.1-.3.1-.5.2s-.4.1-.7.1A1.71,1.71,0,0,1,43,98.8a1.69,1.69,0,0,1,.3-1,4.35,4.35,0,0,1,.7-.6c.3-.1.7-.2,1.1-.3a6.15,6.15,0,0,1,1.4-.1v-.1a.75.75,0,0,0-.1-.5l-.3-.3a.6.6,0,0,0-.4-.1h-.5a2.49,2.49,0,0,0-.8.1l-.9.3h0v-.9a2.54,2.54,0,0,0,.7-.2,3.08,3.08,0,0,1,1-.1,2.22,2.22,0,0,1,.9.1,4.87,4.87,0,0,1,.7.3,1,1,0,0,1,.4.5,1.88,1.88,0,0,1,.2.8v3.7Zm-.9-1.2V97.8a2.77,2.77,0,0,0-.9.1c-.4,0-.6.1-.9.1a1.63,1.63,0,0,0-.6.3.73.73,0,0,0-.2.6.91.91,0,0,0,.3.7,1.08,1.08,0,0,0,.8.2,1.88,1.88,0,0,0,.8-.2,4.35,4.35,0,0,0,.7-.4m.3-6.5-1.3,1.7H45l.8-1.7Z" transform="translate(0 0.4)"/><path class="cls-5" d="M52.9,98.9a1.43,1.43,0,0,1-.6,1.2,2.54,2.54,0,0,1-1.6.5,4.1,4.1,0,0,1-1.1-.1,6.89,6.89,0,0,1-.8-.3v-1h0a4.05,4.05,0,0,0,.9.5,3.55,3.55,0,0,0,1,.2,2,2,0,0,0,.9-.2.6.6,0,0,0,.3-.6.76.76,0,0,0-.2-.5,1.54,1.54,0,0,0-.7-.3,4.33,4.33,0,0,0-.5-.1,4.33,4.33,0,0,1-.5-.1,1.87,1.87,0,0,1-1-.5,1.22,1.22,0,0,1-.3-.9,1.27,1.27,0,0,1,.1-.6,1,1,0,0,1,.4-.5,1.49,1.49,0,0,1,.7-.3,4.1,4.1,0,0,1,1.8,0,6.89,6.89,0,0,1,.8.3v.9h0a2,2,0,0,0-.8-.4,2.92,2.92,0,0,0-.9-.2,1.88,1.88,0,0,0-.8.2.55.55,0,0,0-.3.5.76.76,0,0,0,.2.5,1.63,1.63,0,0,0,.6.3c.2,0,.3.1.5.1a4.33,4.33,0,0,1,.5.1,1.93,1.93,0,0,1,.9.5.82.82,0,0,1,.5.8" transform="translate(0 0.4)"/><path class="cls-5" d="M61.7,102.3h-.9V99.8a3.51,3.51,0,0,1-.8.5,2.92,2.92,0,0,1-.9.2,1.8,1.8,0,0,1-1.5-.7,3,3,0,0,1-.5-2,5,5,0,0,1,.2-1.2,4.05,4.05,0,0,1,.5-.9,1.79,1.79,0,0,1,.7-.5,2.92,2.92,0,0,1,.9-.2,1.48,1.48,0,0,1,.7.1,4.88,4.88,0,0,0,.7.3l.1-.2h.8Zm-.9-3.2V96.2a2.07,2.07,0,0,0-.6-.2c-.2,0-.4-.1-.6-.1a1.66,1.66,0,0,0-1.2.5,2,2,0,0,0-.4,1.4,2.65,2.65,0,0,0,.3,1.4,1.1,1.1,0,0,0,1,.5,2.35,2.35,0,0,0,.8-.2,2.51,2.51,0,0,0,.7-.4" transform="translate(0 0.4)"/><path class="cls-5" d="M67.7,100.4h-.9v-.6a9.22,9.22,0,0,1-.8.5,2.92,2.92,0,0,1-.9.2,1.9,1.9,0,0,1-1.3-.5,2.07,2.07,0,0,1-.5-1.5V95.1h.9v3.7c0,.2.1.3.2.5l.3.3c.1.1.3.1.6.1a1.85,1.85,0,0,0,.7-.2,3.51,3.51,0,0,0,.8-.5V95.1h.9Z" transform="translate(0 0.4)"/><path class="cls-5" d="M73.7,97.9H69.9a2,2,0,0,0,.1.8,2.09,2.09,0,0,0,.4.6.86.86,0,0,0,.6.3,1.7,1.7,0,0,0,.7.1,4.25,4.25,0,0,0,1.1-.2,2.93,2.93,0,0,0,.8-.4h0v1l-.9.3a3.08,3.08,0,0,1-1,.1A2.44,2.44,0,0,1,69,97.8a2.72,2.72,0,0,1,.7-2,2.41,2.41,0,0,1,1.8-.7,2.11,2.11,0,0,1,1.6.6,2.35,2.35,0,0,1,.6,1.7Zm-.8-.6a1.8,1.8,0,0,0-.3-1.1,1.16,1.16,0,0,0-1-.4,1.37,1.37,0,0,0-1.1.4,1.91,1.91,0,0,0-.5,1h2.9Z" transform="translate(0 0.4)"/><path class="cls-5" d="M82.2,100.1a6.89,6.89,0,0,0-.8.3,2.2,2.2,0,0,1-.8.1,3,3,0,0,1-1-.2A2.1,2.1,0,0,1,78.3,99a3.73,3.73,0,0,1-.2-1.2,2.72,2.72,0,0,1,.7-2,2.41,2.41,0,0,1,1.8-.7,2.77,2.77,0,0,1,.9.1c.3.1.5.2.8.3v1h0a3.51,3.51,0,0,0-.8-.5,3.09,3.09,0,0,0-.8-.2,1.66,1.66,0,0,0-1.2.5,2.08,2.08,0,0,0-.4,1.5,2,2,0,0,0,.4,1.4,1.66,1.66,0,0,0,1.2.5.75.75,0,0,0,.5-.1c.2,0,.3-.1.5-.2s.2-.1.4-.2.2-.1.3-.2h0v1.1Z" transform="translate(0 0.4)"/><path class="cls-5" d="M87.7,97.8a3.17,3.17,0,0,1-.6,2,2.41,2.41,0,0,1-3.4,0,3.63,3.63,0,0,1,0-4,2.41,2.41,0,0,1,3.4,0,3.17,3.17,0,0,1,.6,2m-.9,0a2.08,2.08,0,0,0-.4-1.5,1.46,1.46,0,0,0-2.2,0,2.08,2.08,0,0,0-.4,1.5,2.41,2.41,0,0,0,.4,1.5,1.46,1.46,0,0,0,2.2,0,2.08,2.08,0,0,0,.4-1.5" transform="translate(0 0.4)"/><path class="cls-5" d="M96.7,100.4h-.9V96.8a4.33,4.33,0,0,0-.1-.5l-.3-.3c-.1-.1-.3-.1-.6-.1a1.85,1.85,0,0,0-.7.2,3,3,0,0,0-.7.5v3.8h-.9V96.8a4.33,4.33,0,0,0-.1-.5l-.3-.3c-.1-.1-.3-.1-.6-.1a1.85,1.85,0,0,0-.7.2c-.2.1-.5.3-.7.4v3.9h-.9V95.2H90v.6a3.51,3.51,0,0,1,.8-.5,2.13,2.13,0,0,1,1.8,0,1.47,1.47,0,0,1,.5.6,3.74,3.74,0,0,1,1-.6,2.92,2.92,0,0,1,.9-.2,1.73,1.73,0,0,1,1.3.5,2,2,0,0,1,.4,1.4v3.4Z" transform="translate(0 0.4)"/><path class="cls-5" d="M102.9,97.8a5,5,0,0,1-.2,1.2,4.05,4.05,0,0,1-.5.9,1.79,1.79,0,0,1-.7.5,2.92,2.92,0,0,1-.9.2,1.48,1.48,0,0,1-.7-.1,4.88,4.88,0,0,0-.7-.3v2.2h-.9V95.3h.9v.5a2.18,2.18,0,0,1,.8-.5,2.92,2.92,0,0,1,.9-.2,1.8,1.8,0,0,1,1.5.7,3.68,3.68,0,0,1,.5,2m-.9,0a2.65,2.65,0,0,0-.3-1.4,1.1,1.1,0,0,0-1-.5,3.09,3.09,0,0,0-.8.2,1.61,1.61,0,0,0-.7.4v2.9a2.07,2.07,0,0,0,.6.2c.2,0,.4.1.6.1a1.29,1.29,0,0,0,1.1-.5,1.62,1.62,0,0,0,.5-1.4" transform="translate(0 0.4)"/><path class="cls-5" d="M107.5,96.2h0c-.2,0-.3-.1-.4-.1h-.4a2.35,2.35,0,0,0-.8.2,3,3,0,0,0-.7.5v3.7h-.9V95.3h.9v.8a3.47,3.47,0,0,1,.9-.6,2.35,2.35,0,0,1,.8-.2h.6Z" transform="translate(0 0.4)"/><path class="cls-5" d="M112.2,100.4h-.9v-.6c-.1.1-.2.1-.3.2a.76.76,0,0,1-.4.2c-.1.1-.3.1-.5.2s-.4.1-.7.1a1.71,1.71,0,0,1-1.7-1.7,1.69,1.69,0,0,1,.3-1,4.35,4.35,0,0,1,.7-.6c.3-.1.7-.2,1.1-.3a6.15,6.15,0,0,1,1.4-.1v-.1a.75.75,0,0,0-.1-.5l-.3-.3a.6.6,0,0,0-.4-.1h-.5a2.49,2.49,0,0,0-.8.1,3.18,3.18,0,0,0-.9.3h0v-.9a2.54,2.54,0,0,0,.7-.2,2.77,2.77,0,0,1,.9-.1,3.08,3.08,0,0,1,1,.1,4.87,4.87,0,0,1,.7.3.92.92,0,0,1,.4.6,1.88,1.88,0,0,1,.2.8v3.6Zm-.9-1.2V97.8a2.77,2.77,0,0,0-.9.1c-.4,0-.6.1-.9.1a1.63,1.63,0,0,0-.6.3.73.73,0,0,0-.2.6.91.91,0,0,0,.3.7,1.08,1.08,0,0,0,.8.2,1.88,1.88,0,0,0,.8-.2c.2-.1.5-.3.7-.4" transform="translate(0 0.4)"/><path class="cls-5" d="M117.1,96.2h0c-.2,0-.3-.1-.4-.1h-.4a2.35,2.35,0,0,0-.8.2,1.79,1.79,0,0,0-.7.5v3.7h-.9V95.3h.9v.8a3.47,3.47,0,0,1,.9-.6,2.35,2.35,0,0,1,.8-.2h.6Z" transform="translate(0 0.4)"/></g></svg>