<?xml version="1.0" encoding="utf-8"?>
<!-- Generator: Adobe Illustrator 21.0.2, SVG Export Plug-In . SVG Version: 6.00 Build 0)  -->
<svg version="1.1" id="Capa_1" xmlns="http://www.w3.org/2000/svg" xmlns:xlink="http://www.w3.org/1999/xlink" x="0px" y="0px"
	 viewBox="0 0 123.1 89.8" style="enable-background:new 0 0 123.1 89.8;" xml:space="preserve">
<style type="text/css">
	.st0{fill:#989898;}
	.st1{fill:#FFFFFF;}
	.st2{fill:#699B3A;}
	.st3{fill:#2D4484;}
	.st4{fill:#C30D26;}
</style>
<g>
	<g>
		<path class="st0" d="M3.5,72.3V87H1.7V72.3H3.5z"/>
		<path class="st0" d="M7,79.2c0-1.1,0-2-0.1-2.8h1.7l0.1,1.7l0,0c0.5-1,1.7-2,3.5-2c1.5,0,3.7,0.9,3.7,4.5v6.3H14v-6.1
			c0-1.7-0.6-3.1-2.4-3.1c-1.3,0-2.2,0.9-2.6,2c-0.1,0.2-0.1,0.6-0.1,0.9v6.3H7V79.2z"/>
		<path class="st0" d="M19.5,76.4l2.1,5.9c0.3,1,0.6,1.8,0.8,2.7h0.1c0.2-0.9,0.5-1.7,0.9-2.7l2-5.9h2l-4.1,10.5h-1.8l-4-10.5H19.5z
			"/>
		<path class="st0" d="M30.1,82c0,2.6,1.7,3.7,3.6,3.7c1.4,0,2.2-0.2,2.9-0.5l0.3,1.4c-0.7,0.3-1.8,0.7-3.5,0.7
			c-3.2,0-5.2-2.1-5.2-5.3s1.9-5.7,4.9-5.7c3.4,0,4.3,3,4.3,5c0,0.4,0,0.7-0.1,0.9h-7.2V82z M35.7,80.6c0-1.2-0.5-3.1-2.7-3.1
			c-1.9,0-2.8,1.8-2.9,3.1H35.7z"/>
		<path class="st0" d="M39.9,79.7c0-1.2,0-2.3-0.1-3.3h1.7l0.1,2.1h0.1c0.5-1.4,1.6-2.3,2.9-2.3c0.2,0,0.4,0,0.5,0.1V78
			c-0.2,0-0.4-0.1-0.7-0.1c-1.3,0-2.3,1-2.6,2.5c0,0.3-0.1,0.6-0.1,0.9v5.6h-1.9L39.9,79.7L39.9,79.7z"/>
		<path class="st0" d="M46.8,85c0.6,0.4,1.6,0.8,2.5,0.8c1.4,0,2-0.7,2-1.6s-0.5-1.4-2-1.9c-1.9-0.7-2.8-1.7-2.8-3
			c0-1.7,1.4-3.1,3.6-3.1c1.1,0,2,0.3,2.6,0.7l-0.5,1.4C51.8,78,51,77.7,50,77.7c-1.1,0-1.8,0.7-1.8,1.4c0,0.9,0.6,1.3,2,1.8
			c1.8,0.7,2.8,1.6,2.8,3.2c0,1.8-1.4,3.2-3.9,3.2c-1.2,0-2.2-0.3-3-0.7L46.8,85z"/>
		<path class="st0" d="M57.8,73.4c0,0.7-0.5,1.2-1.2,1.2s-1.2-0.5-1.2-1.2s0.5-1.2,1.2-1.2C57.3,72.2,57.8,72.8,57.8,73.4z
			 M55.6,86.9V76.4h1.9v10.5H55.6z"/>
		<path class="st0" d="M70.3,81.6c0,3.9-2.7,5.6-5.2,5.6c-2.8,0-5-2.1-5-5.4c0-3.5,2.3-5.6,5.2-5.6C68.2,76.2,70.3,78.4,70.3,81.6z
			 M61.9,81.7c0,2.3,1.3,4,3.2,4c1.8,0,3.2-1.7,3.2-4.1c0-1.8-0.9-4-3.2-4C62.9,77.6,61.9,79.7,61.9,81.7z"/>
		<path class="st0" d="M72.7,79.2c0-1.1,0-2-0.1-2.8h1.7l0.1,1.7l0,0c0.5-1,1.7-2,3.5-2c1.5,0,3.7,0.9,3.7,4.5v6.3h-1.9v-6.1
			c0-1.7-0.6-3.1-2.4-3.1c-1.3,0-2.2,0.9-2.6,2c-0.1,0.2-0.1,0.6-0.1,0.9v6.3h-1.9C72.7,86.9,72.7,79.2,72.7,79.2z"/>
		<path class="st0" d="M86.9,73.4c0,0.7-0.5,1.2-1.2,1.2s-1.2-0.5-1.2-1.2s0.5-1.2,1.2-1.2C86.4,72.2,86.9,72.8,86.9,73.4z
			 M84.7,86.9V76.4h1.9v10.5H84.7z"/>
		<path class="st0" d="M89.6,85c0.6,0.4,1.6,0.8,2.5,0.8c1.4,0,2-0.7,2-1.6s-0.5-1.4-2-1.9c-1.9-0.7-2.8-1.7-2.8-3
			c0-1.7,1.4-3.1,3.6-3.1c1.1,0,2,0.3,2.6,0.7L95,78.3c-0.4-0.3-1.2-0.6-2.2-0.6c-1.1,0-1.8,0.7-1.8,1.4c0,0.9,0.6,1.3,2,1.8
			c2,0.6,3,1.5,3,3.1c0,1.8-1.4,3.2-3.9,3.2c-1.2,0-2.2-0.3-3-0.7L89.6,85z"/>
		<path class="st0" d="M100.7,73.4v3h2.7v1.5h-2.7v5.7c0,1.3,0.4,2,1.4,2c0.5,0,0.9-0.1,1.1-0.1l0.1,1.4c-0.4,0.2-1,0.3-1.7,0.3
			c-0.9,0-1.6-0.3-2.1-0.8c-0.5-0.6-0.7-1.5-0.7-2.7V78h-1.6v-1.5h1.6V74L100.7,73.4z"/>
		<path class="st0" d="M111.5,86.9l-0.2-1.3h-0.1c-0.6,0.8-1.7,1.6-3.2,1.6c-2.1,0-3.2-1.5-3.2-3c0-2.5,2.3-3.9,6.3-3.9V80
			c0-0.9-0.2-2.4-2.4-2.4c-1,0-2,0.3-2.7,0.8l-0.4-1.3c0.9-0.6,2.1-0.9,3.5-0.9c3.2,0,4,2.2,4,4.3v3.9c0,0.9,0,1.8,0.2,2.5H111.5z
			 M111.2,81.6c-2.1,0-4.5,0.3-4.5,2.4c0,1.2,0.8,1.8,1.8,1.8c1.4,0,2.2-0.9,2.5-1.8c0.1-0.2,0.1-0.4,0.1-0.6L111.2,81.6L111.2,81.6
			z"/>
		<path class="st0" d="M115.8,85c0.6,0.4,1.6,0.8,2.5,0.8c1.4,0,2-0.7,2-1.6s-0.5-1.4-2-1.9c-1.9-0.7-2.8-1.7-2.8-3
			c0-1.7,1.4-3.1,3.6-3.1c1.1,0,2,0.3,2.6,0.7l-0.5,1.4c-0.4-0.3-1.2-0.6-2.2-0.6c-1.1,0-1.8,0.7-1.8,1.4c0,0.9,0.6,1.3,2,1.8
			c1.8,0.7,2.8,1.6,2.8,3.2c0,1.8-1.4,3.2-3.9,3.2c-1.2,0-2.2-0.3-3-0.7L115.8,85z"/>
	</g>
</g>
<g id="XMLID_30_">
	<path id="XMLID_40_" class="st1" d="M91.8,32.7c0,16.6-13.5,30.1-30.1,30.1c-16.6,0-30.1-13.5-30.1-30.1
		c0-16.6,13.5-30.1,30.1-30.1C78.3,2.6,91.8,16.1,91.8,32.7"/>
	<path id="XMLID_39_" class="st2" d="M89.2,35.8c-0.4,0-0.9-0.1-1.3-0.1c-11.2,0-20.2,9.1-20.2,20.2c0,1.2,0.1,2.5,0.3,3.6
		C79.2,57,87.9,47.5,89.2,35.8"/>
	<path id="XMLID_38_" class="st2" d="M35.8,35.8c-0.5,0-1.1,0-1.6,0.1c1.3,11.8,10.1,21.3,21.5,23.9c0.2-1.2,0.3-2.4,0.3-3.7
		C56,44.8,47,35.8,35.8,35.8"/>
	<path id="XMLID_32_" class="st3" d="M35.8,32.8c2.2,0,4.4,0.3,6.5,0.9c0.7-10.1,9.2-18.1,19.4-18.1c10.3,0,18.8,8,19.4,18.2
		c2.1-0.6,4.4-1,6.7-1c0.5,0,1,0,1.5,0.1c0-0.1,0-0.1,0-0.2C89.4,17.4,77,5,61.7,5C46.4,5,34,17.4,34,32.7c0,0.1,0,0.1,0,0.2
		C34.6,32.8,35.2,32.8,35.8,32.8"/>
	<path id="XMLID_31_" class="st4" d="M64.7,56c0-9.4,5.6-17.4,13.6-21.1c-0.1-9-7.5-16.3-16.5-16.3c-9,0-16.3,7.2-16.5,16.2
		C53.3,38.4,59,46.5,59,56c0,1.4-0.1,2.8-0.4,4.2c1,0.1,2,0.2,3.1,0.2c1.1,0,2.2-0.1,3.3-0.2C64.8,58.8,64.7,57.4,64.7,56"/>
</g>
</svg>
