<?xml version="1.0" encoding="utf-8"?>
<!-- Generator: Adobe Illustrator 21.0.2, SVG Export Plug-In . SVG Version: 6.00 Build 0)  -->
<svg version="1.1" id="Capa_1" xmlns="http://www.w3.org/2000/svg" xmlns:xlink="http://www.w3.org/1999/xlink" x="0px" y="0px"
	 viewBox="0 0 123.1 89.8" style="enable-background:new 0 0 123.1 89.8;" xml:space="preserve">
<style type="text/css">
	.st0{fill:#FFFFFF;}
	.st1{fill:#878787;}
	.st2{fill:#4F4F4F;}
	.st3{fill:#363636;}
	.st4{fill:#989898;}
</style>
<g>
	<path class="st0" d="M61.6,0C43.5,0,28.8,14.7,28.8,32.7c0,18.1,14.7,32.7,32.7,32.7c18.1,0,32.7-14.7,32.7-32.7
		C94.3,14.7,79.6,0,61.6,0 M55,62.1c-12.4-2.7-21.9-13.1-23.4-26c0.6,0,1.2-0.1,1.7-0.1c12.1,0,22,9.9,22,22
		C55.4,59.4,55.3,60.8,55,62.1 M61.6,62.8c-1.1,0-2.2-0.1-3.3-0.2c0.3-1.5,0.4-3,0.4-4.6c0-10.3-6.2-19.2-15-23.1
		c0.2-9.7,8.2-17.6,18-17.6c9.8,0,17.8,7.9,18,17.7c-8.7,4-14.8,12.8-14.8,23c0,1.5,0.1,3.1,0.4,4.5C64,62.7,62.8,62.8,61.6,62.8
		 M68.4,62c-0.2-1.3-0.4-2.6-0.4-4c0-12.1,9.9-22,22-22c0.5,0,1,0,1.5,0.1C90,48.9,80.6,59.2,68.4,62 M90,32.8c-2.5,0-5,0.4-7.3,1.1
		c-0.7-11-9.9-19.8-21.1-19.8c-11.2,0-20.4,8.7-21.1,19.7c-2.2-0.6-4.6-1-7-1c-0.6,0-1.3,0-1.9,0.1c0-0.1,0-0.1,0-0.2
		c0-16.6,13.5-30.1,30.1-30.1c16.6,0,30.1,13.5,30.1,30.1c0,0.1,0,0.1,0,0.2C91.1,32.9,90.6,32.8,90,32.8"/>
	<path class="st1" d="M55,62.1c-12.4-2.7-21.9-13.1-23.4-26c0.6,0,1.2-0.1,1.7-0.1c12.1,0,22,9.9,22,22C55.4,59.4,55.3,60.8,55,62.1
		"/>
	<path class="st2" d="M61.6,62.8c-1.1,0-2.2-0.1-3.3-0.2c0.3-1.5,0.4-3,0.4-4.6c0-10.3-6.2-19.2-15-23.1c0.2-9.7,8.2-17.6,18-17.6
		c9.8,0,17.8,7.9,18,17.7c-8.7,4-14.8,12.8-14.8,23c0,1.5,0.1,3.1,0.4,4.5C64,62.7,62.8,62.8,61.6,62.8"/>
	<path class="st1" d="M68.4,62c-0.2-1.3-0.4-2.6-0.4-4c0-12.1,9.9-22,22-22c0.5,0,1,0,1.5,0.1C90,48.9,80.6,59.2,68.4,62"/>
	<path class="st3" d="M90,32.8c-2.5,0-5,0.4-7.3,1.1c-0.7-11-9.9-19.8-21.1-19.8c-11.2,0-20.4,8.7-21.1,19.7c-2.2-0.6-4.6-1-7-1
		c-0.6,0-1.3,0-1.9,0.1c0-0.1,0-0.1,0-0.2c0-16.6,13.5-30.1,30.1-30.1c16.6,0,30.1,13.5,30.1,30.1c0,0.1,0,0.1,0,0.2
		C91.1,32.9,90.6,32.8,90,32.8"/>
</g>
<g>
	<g>
		<path class="st4" d="M3.5,72.3v14.7H1.7V72.3H3.5z"/>
		<path class="st4" d="M7,79.2c0-1.1,0-2-0.1-2.8h1.7l0.1,1.7h0c0.5-1,1.7-2,3.5-2c1.5,0,3.7,0.9,3.7,4.5v6.3H14v-6.1
			c0-1.7-0.6-3.1-2.4-3.1c-1.3,0-2.2,0.9-2.6,2c-0.1,0.2-0.1,0.6-0.1,0.9v6.3H7V79.2z"/>
		<path class="st4" d="M19.5,76.4l2.1,5.9c0.3,1,0.6,1.8,0.8,2.7h0.1c0.2-0.9,0.5-1.7,0.9-2.7l2-5.9h2l-4.1,10.5h-1.8l-4-10.5H19.5z
			"/>
		<path class="st4" d="M30.1,82c0,2.6,1.7,3.7,3.6,3.7c1.4,0,2.2-0.2,2.9-0.5l0.3,1.4c-0.7,0.3-1.8,0.7-3.5,0.7
			c-3.2,0-5.2-2.1-5.2-5.3s1.9-5.7,4.9-5.7c3.4,0,4.3,3,4.3,5c0,0.4,0,0.7-0.1,0.9H30.1z M35.7,80.6c0-1.2-0.5-3.1-2.7-3.1
			c-1.9,0-2.8,1.8-2.9,3.1H35.7z"/>
		<path class="st4" d="M39.9,79.7c0-1.2,0-2.3-0.1-3.3h1.7l0.1,2.1h0.1c0.5-1.4,1.6-2.3,2.9-2.3c0.2,0,0.4,0,0.5,0.1V78
			c-0.2,0-0.4-0.1-0.7-0.1c-1.3,0-2.3,1-2.6,2.5c0,0.3-0.1,0.6-0.1,0.9v5.6h-1.9V79.7z"/>
		<path class="st4" d="M46.8,85c0.6,0.4,1.6,0.8,2.5,0.8c1.4,0,2-0.7,2-1.6c0-0.9-0.5-1.4-2-1.9c-1.9-0.7-2.8-1.7-2.8-3
			c0-1.7,1.4-3.1,3.6-3.1c1.1,0,2,0.3,2.6,0.7l-0.5,1.4c-0.4-0.3-1.2-0.6-2.2-0.6c-1.1,0-1.8,0.7-1.8,1.4c0,0.9,0.6,1.3,2,1.8
			c1.8,0.7,2.8,1.6,2.8,3.2c0,1.8-1.4,3.2-3.9,3.2c-1.2,0-2.2-0.3-3-0.7L46.8,85z"/>
		<path class="st4" d="M57.8,73.4c0,0.7-0.5,1.2-1.2,1.2c-0.7,0-1.2-0.5-1.2-1.2c0-0.7,0.5-1.2,1.2-1.2
			C57.3,72.2,57.8,72.8,57.8,73.4z M55.6,86.9V76.4h1.9v10.5H55.6z"/>
		<path class="st4" d="M70.3,81.6c0,3.9-2.7,5.6-5.2,5.6c-2.8,0-5-2.1-5-5.4c0-3.5,2.3-5.6,5.2-5.6C68.2,76.2,70.3,78.4,70.3,81.6z
			 M61.9,81.7c0,2.3,1.3,4,3.2,4c1.8,0,3.2-1.7,3.2-4.1c0-1.8-0.9-4-3.2-4C62.9,77.6,61.9,79.7,61.9,81.7z"/>
		<path class="st4" d="M72.7,79.2c0-1.1,0-2-0.1-2.8h1.7l0.1,1.7h0c0.5-1,1.7-2,3.5-2c1.5,0,3.7,0.9,3.7,4.5v6.3h-1.9v-6.1
			c0-1.7-0.6-3.1-2.4-3.1c-1.3,0-2.2,0.9-2.6,2c-0.1,0.2-0.1,0.6-0.1,0.9v6.3h-1.9V79.2z"/>
		<path class="st4" d="M86.9,73.4c0,0.7-0.5,1.2-1.2,1.2c-0.7,0-1.2-0.5-1.2-1.2c0-0.7,0.5-1.2,1.2-1.2
			C86.4,72.2,86.9,72.8,86.9,73.4z M84.7,86.9V76.4h1.9v10.5H84.7z"/>
		<path class="st4" d="M89.6,85c0.6,0.4,1.6,0.8,2.5,0.8c1.4,0,2-0.7,2-1.6c0-0.9-0.5-1.4-2-1.9c-1.9-0.7-2.8-1.7-2.8-3
			c0-1.7,1.4-3.1,3.6-3.1c1.1,0,2,0.3,2.6,0.7l-0.5,1.4c-0.4-0.3-1.2-0.6-2.2-0.6c-1.1,0-1.8,0.7-1.8,1.4c0,0.9,0.6,1.3,2,1.8
			C95,81.5,96,82.4,96,84c0,1.8-1.4,3.2-3.9,3.2c-1.2,0-2.2-0.3-3-0.7L89.6,85z"/>
		<path class="st4" d="M100.7,73.4v3h2.7v1.5h-2.7v5.7c0,1.3,0.4,2,1.4,2c0.5,0,0.9-0.1,1.1-0.1l0.1,1.4c-0.4,0.2-1,0.3-1.7,0.3
			c-0.9,0-1.6-0.3-2.1-0.8c-0.5-0.6-0.7-1.5-0.7-2.7v-5.7h-1.6v-1.5h1.6v-2.5L100.7,73.4z"/>
		<path class="st4" d="M111.5,86.9l-0.2-1.3h-0.1c-0.6,0.8-1.7,1.6-3.2,1.6c-2.1,0-3.2-1.5-3.2-3c0-2.5,2.3-3.9,6.3-3.9V80
			c0-0.9-0.2-2.4-2.4-2.4c-1,0-2,0.3-2.7,0.8l-0.4-1.3c0.9-0.6,2.1-0.9,3.5-0.9c3.2,0,4,2.2,4,4.3v3.9c0,0.9,0,1.8,0.2,2.5H111.5z
			 M111.2,81.6c-2.1,0-4.5,0.3-4.5,2.4c0,1.2,0.8,1.8,1.8,1.8c1.4,0,2.2-0.9,2.5-1.8c0.1-0.2,0.1-0.4,0.1-0.6V81.6z"/>
		<path class="st4" d="M115.8,85c0.6,0.4,1.6,0.8,2.5,0.8c1.4,0,2-0.7,2-1.6c0-0.9-0.5-1.4-2-1.9c-1.9-0.7-2.8-1.7-2.8-3
			c0-1.7,1.4-3.1,3.6-3.1c1.1,0,2,0.3,2.6,0.7l-0.5,1.4c-0.4-0.3-1.2-0.6-2.2-0.6c-1.1,0-1.8,0.7-1.8,1.4c0,0.9,0.6,1.3,2,1.8
			c1.8,0.7,2.8,1.6,2.8,3.2c0,1.8-1.4,3.2-3.9,3.2c-1.2,0-2.2-0.3-3-0.7L115.8,85z"/>
	</g>
</g>
</svg>
