<?xml version="1.0" encoding="utf-8"?>
<!-- Generator: Adobe Illustrator 16.0.0, SVG Export Plug-In . SVG Version: 6.00 Build 0)  -->
<!DOCTYPE svg PUBLIC "-//W3C//DTD SVG 1.1//EN" "http://www.w3.org/Graphics/SVG/1.1/DTD/svg11.dtd">
<svg version="1.1" id="Layer_1" xmlns="http://www.w3.org/2000/svg" xmlns:xlink="http://www.w3.org/1999/xlink" x="0px" y="0px"
	 width="232px" height="68.456px" viewBox="0 0 232 68.456" enable-background="new 0 0 232 68.456" xml:space="preserve">
<g>
	<g>
		<path fill="#010000" d="M164.817,57.442h0.905v7.061c0,0.525-0.055,1.023-0.157,1.502c-0.107,0.479-0.297,0.896-0.567,1.261
			c-0.271,0.36-0.644,0.649-1.116,0.867c-0.473,0.216-1.081,0.323-1.824,0.323c-0.575,0-1.068-0.074-1.48-0.219
			s-0.748-0.328-1.01-0.549c-0.26-0.223-0.459-0.467-0.596-0.732c-0.137-0.268-0.209-0.516-0.22-0.744h0.967
			c0.069,0.29,0.18,0.527,0.331,0.713c0.15,0.186,0.329,0.332,0.535,0.439c0.205,0.104,0.436,0.178,0.688,0.217
			c0.251,0.041,0.511,0.061,0.784,0.061c0.611,0,1.104-0.107,1.479-0.316c0.372-0.211,0.654-0.488,0.844-0.828
			c0.19-0.342,0.313-0.731,0.371-1.164c0.052-0.43,0.075-0.875,0.066-1.326c-0.291,0.483-0.692,0.846-1.199,1.092
			c-0.509,0.248-1.038,0.371-1.594,0.371c-0.59,0-1.107-0.114-1.545-0.341c-0.438-0.226-0.801-0.526-1.085-0.904
			c-0.286-0.378-0.503-0.816-0.643-1.322c-0.14-0.5-0.212-1.024-0.212-1.566c0-0.572,0.066-1.111,0.199-1.614
			c0.129-0.503,0.336-0.936,0.626-1.306c0.283-0.366,0.649-0.655,1.092-0.867c0.443-0.21,0.981-0.315,1.615-0.315
			c0.251,0,0.508,0.033,0.771,0.105c0.26,0.07,0.513,0.171,0.758,0.301c0.247,0.131,0.476,0.297,0.682,0.499
			c0.206,0.2,0.375,0.427,0.504,0.679h0.031V57.442z M164.817,61.381c0-0.474-0.059-0.912-0.174-1.318
			c-0.115-0.41-0.284-0.762-0.506-1.059c-0.221-0.299-0.497-0.528-0.828-0.699c-0.336-0.174-0.71-0.26-1.133-0.26
			c-0.382,0-0.734,0.067-1.056,0.205c-0.322,0.135-0.603,0.334-0.844,0.597c-0.243,0.263-0.433,0.579-0.565,0.957
			c-0.138,0.378-0.207,0.813-0.207,1.306c-0.02,0.49,0.022,0.951,0.123,1.379c0.1,0.43,0.262,0.805,0.481,1.125
			c0.222,0.322,0.504,0.576,0.845,0.761c0.344,0.188,0.749,0.278,1.223,0.278c0.412,0,0.784-0.086,1.108-0.264
			c0.327-0.175,0.604-0.412,0.829-0.709c0.229-0.297,0.402-0.643,0.521-1.041C164.757,62.241,164.817,61.823,164.817,61.381"/>
		<path fill="#010000" d="M173.068,65.469c-0.501-0.01-0.97-0.101-1.409-0.273c-0.438-0.168-0.818-0.427-1.146-0.77
			c-0.326-0.338-0.587-0.768-0.78-1.281c-0.189-0.512-0.285-1.11-0.285-1.795c0-0.572,0.074-1.109,0.225-1.607
			c0.154-0.496,0.383-0.933,0.682-1.305c0.302-0.371,0.678-0.666,1.132-0.883c0.452-0.216,0.979-0.322,1.582-0.322
			c0.612,0,1.147,0.106,1.601,0.322c0.451,0.217,0.829,0.51,1.129,0.877c0.304,0.366,0.527,0.801,0.674,1.303
			c0.146,0.506,0.22,1.043,0.22,1.615c0,0.625-0.09,1.188-0.257,1.691c-0.173,0.502-0.418,0.935-0.732,1.295
			c-0.317,0.365-0.698,0.645-1.146,0.836C174.108,65.372,173.614,65.469,173.068,65.469 M175.725,61.35
			c0-0.464-0.05-0.895-0.15-1.297c-0.102-0.404-0.257-0.752-0.469-1.049c-0.21-0.299-0.481-0.528-0.815-0.699
			c-0.33-0.174-0.737-0.26-1.222-0.26c-0.473,0-0.875,0.093-1.214,0.279c-0.336,0.186-0.61,0.434-0.822,0.738
			c-0.209,0.309-0.367,0.662-0.468,1.056c-0.101,0.399-0.151,0.81-0.151,1.231c0,0.484,0.059,0.928,0.174,1.336
			c0.115,0.406,0.283,0.755,0.508,1.049c0.22,0.291,0.495,0.517,0.828,0.679c0.331,0.161,0.715,0.239,1.146,0.239
			c0.474,0,0.88-0.09,1.216-0.278c0.337-0.185,0.611-0.436,0.821-0.745c0.212-0.312,0.367-0.666,0.469-1.057
			C175.675,62.18,175.725,61.774,175.725,61.35"/>
		<path fill="#010000" d="M185.604,57.442h0.906v7.816h-0.906v-1.086c-0.119,0.139-0.251,0.285-0.406,0.436
			c-0.15,0.152-0.322,0.291-0.521,0.416c-0.194,0.127-0.424,0.23-0.686,0.316c-0.26,0.086-0.563,0.129-0.904,0.129
			c-0.524,0-0.961-0.075-1.313-0.219c-0.352-0.146-0.636-0.348-0.853-0.611c-0.217-0.262-0.374-0.564-0.469-0.91
			c-0.093-0.35-0.144-0.729-0.144-1.141v-5.146h0.906v5.131c0,0.674,0.155,1.188,0.468,1.545s0.825,0.535,1.539,0.535
			c0.373,0,0.706-0.071,1.003-0.217c0.299-0.147,0.545-0.348,0.744-0.611c0.205-0.262,0.36-0.571,0.473-0.937
			c0.11-0.36,0.162-0.758,0.162-1.19V57.442z"/>
		<path fill="#010000" d="M191.61,65.258h-0.902v-7.816h0.902v1.465h0.031c0.252-0.624,0.575-1.059,0.973-1.306
			c0.398-0.245,0.922-0.368,1.577-0.368v0.98c-0.516-0.01-0.938,0.069-1.269,0.24c-0.332,0.171-0.595,0.402-0.79,0.694
			c-0.197,0.292-0.333,0.636-0.408,1.034c-0.076,0.396-0.114,0.813-0.114,1.244V65.258z"/>
		<path fill="#010000" d="M198.7,65.258h-0.906v-7.816h0.906v1.178h0.032c0.23-0.453,0.561-0.797,0.997-1.033
			c0.429-0.236,0.902-0.354,1.416-0.354c0.361,0,0.67,0.039,0.92,0.119s0.465,0.188,0.641,0.324
			c0.176,0.135,0.323,0.294,0.438,0.477c0.115,0.18,0.214,0.377,0.295,0.587c0.26-0.515,0.611-0.892,1.048-1.139
			c0.438-0.245,0.938-0.368,1.499-0.368c0.535,0,0.961,0.087,1.278,0.263c0.316,0.177,0.559,0.409,0.731,0.694
			c0.168,0.287,0.286,0.616,0.338,0.987c0.056,0.374,0.084,0.755,0.084,1.147v4.934h-0.905v-5.4c0-0.566-0.119-1.007-0.354-1.328
			c-0.237-0.321-0.677-0.484-1.32-0.484c-0.333,0-0.653,0.076-0.96,0.221s-0.574,0.367-0.806,0.669
			c-0.101,0.134-0.184,0.285-0.249,0.462c-0.064,0.176-0.119,0.36-0.158,0.551c-0.042,0.189-0.067,0.382-0.084,0.572
			c-0.016,0.192-0.021,0.366-0.021,0.526v4.212h-0.906v-5.4c0-0.566-0.119-1.007-0.354-1.328c-0.236-0.321-0.676-0.484-1.319-0.484
			c-0.332,0-0.652,0.076-0.96,0.221c-0.305,0.145-0.574,0.367-0.806,0.669c-0.102,0.134-0.184,0.285-0.247,0.462
			c-0.068,0.176-0.119,0.36-0.16,0.551c-0.04,0.189-0.067,0.382-0.081,0.572c-0.018,0.192-0.025,0.366-0.025,0.526V65.258z"/>
		<path fill="#010000" d="M213.003,61.562c0,0.422,0.054,0.821,0.166,1.199c0.11,0.375,0.273,0.704,0.488,0.981
			c0.219,0.276,0.492,0.496,0.825,0.663c0.331,0.165,0.714,0.247,1.146,0.247c0.59,0,1.1-0.152,1.521-0.465
			c0.425-0.313,0.705-0.756,0.847-1.33h1.012c-0.11,0.374-0.257,0.719-0.438,1.034c-0.182,0.317-0.406,0.593-0.677,0.829
			c-0.274,0.238-0.595,0.42-0.968,0.551s-0.804,0.197-1.296,0.197c-0.624,0-1.164-0.107-1.615-0.317
			c-0.452-0.21-0.825-0.5-1.114-0.867c-0.295-0.368-0.51-0.8-0.65-1.298s-0.212-1.033-0.212-1.605c0-0.573,0.081-1.111,0.251-1.615
			c0.164-0.502,0.4-0.942,0.707-1.319c0.307-0.378,0.685-0.675,1.125-0.892c0.44-0.216,0.943-0.322,1.509-0.322
			c1.074,0,1.922,0.368,2.534,1.107c0.612,0.74,0.918,1.814,0.906,3.222H213.003z M218.103,60.808c0-0.382-0.053-0.743-0.159-1.079
			c-0.106-0.337-0.26-0.629-0.467-0.875c-0.206-0.248-0.466-0.443-0.774-0.588c-0.315-0.145-0.672-0.221-1.073-0.221
			c-0.403,0-0.757,0.076-1.065,0.228c-0.307,0.151-0.565,0.352-0.783,0.604c-0.216,0.25-0.391,0.541-0.522,0.873
			c-0.128,0.334-0.215,0.686-0.255,1.058H218.103z"/>
		<path fill="#010000" d="M225.539,65.289c-0.11,0.02-0.253,0.056-0.437,0.105c-0.182,0.051-0.383,0.075-0.604,0.075
			c-0.451,0-0.798-0.114-1.033-0.341c-0.236-0.226-0.354-0.628-0.354-1.215v-5.717h-1.101v-0.755h1.101v-2.171h0.905v2.171h1.462
			v0.755h-1.462v5.356c0,0.189,0.005,0.355,0.013,0.498c0.012,0.142,0.041,0.256,0.089,0.348c0.05,0.091,0.131,0.155,0.239,0.194
			c0.103,0.042,0.252,0.06,0.443,0.06c0.119,0,0.244-0.007,0.369-0.028c0.125-0.019,0.248-0.045,0.368-0.074V65.289z"/>
		<path fill-rule="evenodd" clip-rule="evenodd" fill="#010000" d="M43.499,10.416c-0.884,0.592-1.127,1.718-1.672,2.585
			c-0.271,0.425-0.632,0.797-0.915,1.217c-1.411,2.114-2.382,4.563-3.573,6.994c-0.903,1.847-2.09,3.603-3.042,5.477
			c-1.744,3.436-3.046,6.156-5.32,9.047c-0.341,0.43-0.855,1.022-1.294,1.673c-0.721,1.076-1.113,1.874-2.811,1.52
			c-0.884-0.552-1.151-1.681-1.446-2.587c-0.95-2.907-2.002-5.864-2.964-8.895c-1.294-4.075-2.149-8.437-3.27-12.622
			c-0.554,0.297-0.761,0.943-1.064,1.445c-0.968,1.599-1.955,3.264-2.966,4.941c-1.314,2.186-2.43,4.515-3.725,6.767
			c-1.21,2.11-2.579,4.449-3.726,6.767c-0.526,1.063-1.076,2.4-1.67,3.576c-0.482,0.948-0.952,2.813-2.513,2.434
			c-0.262-2.016,0.911-4.072,1.598-5.78c0.553-1.373,1.06-2.792,1.596-4.029c1.723-3.978,4.18-7.035,6.007-10.874
			c0.614-1.29,1.039-2.729,1.674-3.953c0.594-1.152,1.422-2.141,2.204-3.423c0.661-1.083,1.311-3.095,2.434-3.194
			c1.901-0.167,2.906,3.792,3.422,5.094c0.856,2.17,1.201,4.686,1.824,6.615c1.446,4.479,2.323,8.949,3.423,13.534
			c1.445-2.53,2.869-5.047,4.332-7.677c1.369-2.462,3.307-4.769,4.485-7.453c1.169-2.66,2.229-5.412,4.031-7.91
			c0.775-1.073,1.655-2.279,2.509-3.497c0.765-1.094,1.788-3.103,3.119-3.193c1.707-0.116,1.706,2.879,1.975,4.333
			c0.865,4.68,1.27,8.96,2.129,13.765c0.765,4.28,1.052,9.281,1.294,14.6c0.051,1.153,0.485,4.304-0.152,4.638
			c-0.365,0.188-1.207-0.063-1.523-0.305c-0.888-0.687-0.844-2.314-0.987-4.184c-0.109-1.426-0.573-2.902-0.76-4.483
			c-0.517-4.374-1.456-9.225-1.749-13.917C44.219,16.373,44.382,12.845,43.499,10.416"/>
		<path fill-rule="evenodd" clip-rule="evenodd" fill="#010000" d="M92.87,35.129c-4.07,0.254-8.263,0.911-12.851,0.911
			c-1.512,0-3.138,0.145-4.564,0c-1.563-0.157-3.341-0.738-5.017-0.607c-0.585,0.51-0.854,1.368-1.445,2.128
			c-0.31,0.398-0.912,0.77-1.293,1.218c-0.405,0.475-0.728,1.097-1.216,1.216c-0.858,0.203-1.678-0.168-1.825-0.608
			c-0.217-0.642,0.827-2.336,1.217-3.044c0.68-1.224,1.581-2.332,2.28-3.573c0.355-0.626,0.67-1.258,0.989-1.899
			c1.593-3.219,2.82-6.784,4.641-9.886c0.707-1.21,1.47-2.453,2.125-3.725c0.667-1.287,1.235-2.556,2.13-3.649
			c0.919-1.125,1.495-2.342,2.281-3.499c0.393-0.579,0.789-1.144,1.141-1.749c0.673-1.159,2.01-4.3,4.106-2.51
			c1.022,0.874,1.425,3.652,1.901,5.095c1.11,3.361,3.047,5.73,4.334,9.125c1.521,4.016,2.571,7.777,3.955,11.862
			c0.178,0.527,0.498,0.986,0.684,1.52c0.214,0.622,0.333,1.49,0.607,2.282c0.268,0.768,0.555,1.75,0.303,2.433
			c-0.245,0.673-1.386,1.253-2.203,0.987c-0.982-0.318-0.725-1.703-1.598-2.279C93.424,36.194,93.115,35.692,92.87,35.129
			 M86.1,15.284c-0.806-1.717-1.911-3.265-2.053-5.399h-0.152c-0.109,0.041-0.185,0.118-0.228,0.228
			c-0.556,1.119-1.093,2.184-1.748,3.27c-0.618,1.023-1.465,1.989-1.979,3.043c-0.396,0.814-0.576,1.669-0.986,2.433
			c-0.397,0.734-0.946,1.369-1.371,2.127c-0.502,0.903-0.88,1.838-1.442,2.738c-1.663,2.667-2.474,5.702-4.032,8.518
			c3.314-0.135,6.594,0.178,9.732,0c1.094-0.065,2.188-0.244,3.271-0.153c0.475,0.04,0.965,0.221,1.443,0.228
			c1.82,0.021,3.435-0.685,5.248-0.533C89.723,26.206,88.546,20.487,86.1,15.284"/>
		<path fill-rule="evenodd" clip-rule="evenodd" fill="#010000" d="M117.045,44.101c-0.485,0.183-1.426,0.239-1.899,0
			c-1.031-3.591-0.838-7.843-0.838-12.014c0-4.163,0.318-8.057,1.065-11.71c1.107-5.417,2.705-9.911,6.386-12.851
			c1.558-1.243,4.372-3.482,7.072-2.357c1.423,0.595,3.263,2.289,4.259,3.423c1.981,2.261,3.845,6.293,3.573,10.796
			c-0.472,7.748-4.743,12.225-9.657,15.663c-0.42,0.297-1.922,1.063-2.051,1.523c-0.395,1.385,1.227,2.29,1.976,3.039
			c0.341,0.34,0.738,0.736,1.291,1.216c0.336,0.288,1.22,0.878,1.143,1.37c-0.074,0.466-1.34,0.713-2.13,0.684
			c-0.543-0.022-2.493-0.568-3.041-0.836c-0.877-0.431-1.704-1.73-2.51-2.661c-0.725-0.835-1.657-2.306-2.964-2.207
			C116.236,37.372,117.818,42.288,117.045,44.101 M121.76,11.48c-2.098,2.543-2.781,5.463-3.802,10.19
			c-0.529,2.452-0.741,6.174-0.987,9.504c-0.086,1.146-0.443,2.62-0.078,3.193c0.386,0.604,2.324,0.469,3.651,0.304
			c0.641-0.077,1.591-0.373,2.28-0.607c1.846-0.632,2.668-1.113,3.954-2.129c2.158-1.705,3.379-3.398,5.096-5.932
			c1.179-1.74,2.166-3.141,2.508-5.322c0.463-2.945-0.39-6.064-1.748-8.059c-0.883-1.298-3.479-4.046-5.473-3.955
			C124.507,8.789,122.989,9.993,121.76,11.48"/>
		<path fill-rule="evenodd" clip-rule="evenodd" fill="#010000" d="M178.864,32.163c0.659,0.01,1.403-0.451,2.202-0.76
			c0.702-0.27,2.005-0.57,2.207,0.303c0.251,1.08-1.229,1.518-2.054,1.9c-0.998,0.468-1.809,0.828-2.586,1.294
			c-0.355,2.135-1.148,3.901-1.896,6.083c-0.868,2.515-1.799,4.488-4.107,5.475c-1.792,0.764-3.877,0.798-4.943-0.836
			c-0.859-1.318-0.884-4.139-0.227-5.627c0.436-0.991,1.716-2.461,2.581-3.193c1.61-1.359,3.776-2.275,5.553-3.196
			c0.997-4.782,1.446-10.11,1.825-15.509c-3.258,6.663-5.964,14.202-13.612,16.88c-1.731,0.605-3.613,1.238-5.396,0.38
			c-1.624-0.785-3.118-3.437-3.876-5.094c-0.916-1.99-1.445-4.774-1.22-7.756c0.323-4.251,2.88-8.282,5.171-10.798
			c1.154-1.264,2.704-2.603,4.409-3.573c1.719-0.976,3.743-1.965,5.552-2.432c2.022-0.522,4.938-0.668,7.073-0.762
			c1.698-0.073,3.241,0.822,3.726,2.052c0.451,1.161,0.526,3.807,0.531,5.4C179.794,18.743,179.552,26.626,178.864,32.163
			 M169.131,8.287c-1.075,0.226-2.692,0.998-3.802,1.598c-1.417,0.768-3.174,2.373-4.716,3.726
			c-1.632,1.433-3.126,2.826-3.952,4.563c-1.186,2.482-1.373,5.871-0.533,8.439c0.433,1.324,2.222,4.576,3.5,5.17
			c1.046,0.491,3.075,0.427,4.411,0c1.238-0.397,2.696-1.494,3.571-2.357c2.373-2.341,3.969-5.462,5.779-9.122
			c1.191-2.411,2.025-5.344,3.039-8.135c0.363-0.994,1.063-2.218,0.915-2.891c-0.287-1.271-4.374-1.274-5.553-1.217
			C170.902,8.102,169.943,8.117,169.131,8.287 M170.12,42.732c0.174,0.438,0.797,1.132,1.291,1.14
			c0.654,0.011,1.844-1.039,2.129-1.597c0.761-1.483,1.027-3.716,1.369-5.246c-0.004-0.046-0.012-0.09-0.076-0.076
			C173.171,38.023,168.94,39.745,170.12,42.732"/>
		<path fill-rule="evenodd" clip-rule="evenodd" fill="#010000" d="M214.955,7.211c6.879-0.329,13.702,2.332,15.737,7.071
			c1.068,2.479,1.714,7.75,0.534,11.025c-0.547,1.521-1.554,2.848-2.356,4.259c-0.915,1.61-1.804,3.241-3.193,4.332
			c-2.125,1.671-5.959,3.452-9.353,3.729c-2.063,0.165-5.075,0.178-7.073-0.688c-1.764-0.763-3.379-2.167-5.095-3.345
			c-1.685-1.154-3.378-2.252-4.485-3.878c-1.18-1.735-2.514-4.553-2.053-8.059c0.131-1.009,0.756-2.296,1.215-3.346
			c0.498-1.127,0.854-2.184,1.368-3.119c1.169-2.11,3.521-3.954,5.935-5.398C208.302,8.5,211.492,7.375,214.955,7.211
			 M214.348,10.099c-3.275-0.146-5.464,1.116-7.453,2.281c-1.003,0.588-2.102,1.178-2.813,1.749
			c-1.378,1.114-3.006,3.119-3.342,4.867c-0.238,1.209-0.42,3.453-0.154,4.638c0.346,1.544,1.747,3.216,2.586,4.333
			c0.343,0.463,0.582,1.034,0.91,1.446c0.581,0.727,1.412,1.34,2.13,2.129c0.756,0.828,1.494,1.563,2.28,1.976
			c1.932,1.008,5.739,1.637,8.212,1.369c0.831-0.088,1.887-0.43,2.813-0.762c1.59-0.566,3.326-1.499,4.641-2.813
			c1.337-1.34,2.837-2.436,3.647-3.802c0.851-1.429,1.737-3.969,1.901-6.234c0.073-1.026,0.178-2.443-0.076-3.269
			c-0.236-0.754-1.142-1.284-1.825-2.131c-0.595-0.732-1.233-1.458-1.977-2.05c-1.83-1.462-4.378-2.898-7.224-3.348
			c-0.762-0.12-1.515-0.388-2.205-0.456c-0.604-0.061-1.615,0.058-1.899,0.076C214.448,10.103,214.397,10.103,214.348,10.099"/>
		<path fill-rule="evenodd" clip-rule="evenodd" fill="#010000" d="M224.415,3.361c0.018-0.017,0.036-0.035,0.055-0.053
			c-0.015,0.004-0.026,0.01-0.038,0.011c-0.085,0.031-0.115,0.037,0,0c0.012-0.001,0.026-0.009,0.044-0.015
			c0.246-0.229,0.478-0.466,0.687-0.724c0.021-0.024,0.048-0.055,0.073-0.089c0.028-0.04,0.053-0.076,0.081-0.114
			c0.172-0.25,0.358-0.492,0.504-0.759c0.098-0.176,0.189-0.355,0.274-0.537c0.021-0.088,0.047-0.197,0.064-0.301
			c-0.168-0.152-0.367-0.333-0.488-0.42c-0.053-0.039-0.124-0.086-0.2-0.134c-0.113-0.063-0.228-0.122-0.343-0.182
			c-0.028-0.017-0.061-0.03-0.091-0.044c-0.604,0.422-1.214,0.835-1.835,1.22c-0.41,0.253-0.816,0.502-1.251,0.732
			c-0.852,0.46-1.81,0.767-2.644,1.228c-0.479,0.265-1.707,0.861-1.744,1.304c-0.024,0.306,0.438,0.813,1.098,1.003
			c0.375,0.108,0.785-0.132,1.209-0.258c0.398-0.121,0.929-0.118,1.26-0.234C221.767,4.771,223.806,3.603,224.415,3.361"/>
	</g>
</g>
</svg>
