<?xml version="1.0" encoding="utf-8"?>
<!-- Generator: Adobe Illustrator 21.0.2, SVG Export Plug-In . SVG Version: 6.00 Build 0)  -->
<svg version="1.1" id="Capa_1" xmlns="http://www.w3.org/2000/svg" xmlns:xlink="http://www.w3.org/1999/xlink" x="0px" y="0px"
	 viewBox="0 0 576.8 288.4" style="enable-background:new 0 0 576.8 288.4;" xml:space="preserve">
<style type="text/css">
	.st0{fill:#FFFFFF;}
</style>
<g>
	<polygon id="XMLID_8_" class="st0" points="189,252.8 153.6,171.3 121.1,286 136.7,286 156.9,214.3 189,288.4 221.1,214.3 
		241.3,286 256.9,286 224.4,171.3 	"/>
	<path class="st0" d="M59,171.3h-0.2c-16.9,0.1-31,6-42.4,17.9C5.4,200.6,0,214.1,0,229.8c0,15.4,5.3,28.8,15.8,40.2
		c11.4,12.2,25.6,18.3,42.9,18.4H59c16.5,0,30.5-5.9,42-17.9c11.1-11.4,16.6-25,16.6-40.7c0-15.7-5.5-29.4-16.6-40.8
		C89.6,177.2,75.6,171.3,59,171.3 M89.2,261.5c-7.9,8.4-18,12.7-30.4,12.7h-0.1c-12.4,0-22.5-4.3-30.5-12.8
		c-7.8-8.6-11.8-19.1-11.8-31.4c0-12.4,4-22.9,11.8-31.6c7.9-8.6,18.1-13,30.5-13h0.1c12.4,0,22.4,4.3,30.4,12.9
		c7.8,8.6,11.8,19.2,11.8,31.7C100.9,242.6,97,253.1,89.2,261.5"/>
	<path id="XMLID_5_" class="st0" d="M269.4,144.7v-7.1c-11.1-7.1-20.9-16-28.6-27.5c-12.8-24.5-16.2-48.9,1-73.4
		c32-36.1,54.4-22.1,75.3-1c13.8,19.7,14.4,39.4,9.3,59.1c-5.8,19.6-15.7,33.9-29.5,42.8v7h59.1l9.7-22.1c-0.9-5-3.1-4.3-7.6-4.2
		l-7.3,10.1h-17.3c5.1-7.4,10.2-15,15.3-22.5c7-18.1,9.7-37.1,3-58C337.6,2.1,280-10.1,243.3,8c-22.5,11-38.8,32.8-38.3,62.3
		c0.7,22.1,11.4,42.2,26.9,58.1h-13.3l-12.2-9.9c-3.5-1.2-6,0.4-6.7,4.3l12.6,21.9H269.4z"/>
	<path class="st0" d="M523.1,171.4l-0.1-0.2L469.4,286h16.8l14.1-30.2h22.7h22.7l14.1,30.2h16.9L523.1,171.4z M523.1,241.6h-17.3
		l17.3-34.4l0.1,0.2l17.3,34.3H523.1z"/>
	<polygon id="XMLID_2_" class="st0" points="268.8,286 335.8,286 335.8,271.8 284.4,271.8 284.4,232.4 335.8,232.4 335.8,218.2 
		284.4,218.2 284.4,187.6 335.8,187.6 335.8,173.6 268.8,173.6 	"/>
	<path id="XMLID_1_" class="st0" d="M406.9,240.8h40.2c-0.9,9.7-5,17.7-12.1,24c-7.1,6.3-15.8,9.4-26.2,9.4
		c-12.5,0-22.6-4.3-30.4-12.8c-7.9-8.5-11.9-19-11.9-31.4c0-12.4,3.9-22.9,11.9-31.6c7.8-8.7,18-13,30.4-13c6.5,0,12.1,1.1,16.9,3.3
		c4.8,2.2,9.3,5.5,13.6,9.8l11.8-9.4c-6-5.9-12.4-10.3-19.2-13.3c-6.8-3.1-14.4-4.5-23-4.5c-17,0-31.3,5.9-42.6,17.9
		c-10.9,11.5-16.3,25-16.3,40.7c0,13.8,4.3,26.3,13,37.5c10.9,14.1,26.3,21.1,46,21.1c19.4,0,34-7.2,43.8-21.6
		c7.7-11.1,11.5-24.5,11.5-40.1h-51.6L406.9,240.8z"/>
</g>
</svg>
