<?xml version="1.0" encoding="utf-8"?>
<!-- Generator: Adobe Illustrator 21.0.2, SVG Export Plug-In . SVG Version: 6.00 Build 0)  -->
<svg version="1.1" id="Layer_1" xmlns="http://www.w3.org/2000/svg" xmlns:xlink="http://www.w3.org/1999/xlink" x="0px" y="0px"
	 viewBox="0 0 1801 861" style="enable-background:new 0 0 1801 861;" xml:space="preserve">
<style type="text/css">
	.st0{fill:#222221;}
</style>
<path class="st0" d="M843,725.6h25.4c19.4,0,32,9.9,32,29.6c0,19.4-14.5,29.5-33,29.5h-14.2v45H843V725.6z M853.3,775.7h7.1
	c15.4,0,29.9-1.8,29.9-20.6c0-13.1-7.4-20.6-20.4-20.6h-16.5V775.7z M951.9,817.5h-0.3c-4.2,9.1-14.7,14-24,14
	c-21.5,0-24.8-14.6-24.8-21.5c0-25.5,26.9-26.7,46.5-26.7h1.8v-3.8c0-13-4.6-19.6-17.2-19.6c-7.9-0.1-15.6,2-22.2,6.3v-9.1
	c7-3.2,14.5-4.9,22.2-5.2c18.6,0,26.5,8.5,26.5,28.3v33.5c-0.1,5.3,0.1,10.7,0.8,15.9h-9.2V817.5L951.9,817.5z M951,791.4h-2.7
	c-16.1,0-35.4,1.6-35.4,18.3c0,9.9,7.1,13.7,15.7,13.7c21.9,0,22.4-19.3,22.4-27.4V791.4L951,791.4z M975.1,770.7
	c0-8.4,0-11.5-0.6-17h9.3v14.6h0.3c3.4-8.5,9.8-16.4,19.4-16.4c2.2,0,4.4,0.3,6.5,0.9v9.8c-2.2-0.6-4.5-0.9-6.8-0.9
	c-14.8,0-18.8,16.7-18.8,30.4v37.6h-9.3L975.1,770.7L975.1,770.7z M1074.1,861h-9.3v-44.2h-0.3c-4.6,9.8-11.7,14.8-23.5,14.8
	c-20.7,0-31.1-17.3-31.1-39.8c0-23.1,8.9-39.8,31.1-39.8c16,0,21.7,11.5,23.5,14.2h0.3v-12.4h9.3V861L1074.1,861z M1042.4,823.4
	c16.6,0,22.3-17.9,22.3-31.8s-5.8-31.8-22.3-31.8c-17.8,0-22.3,17-22.3,31.8C1020.1,806.4,1024.7,823.4,1042.4,823.4 M1148,811.8
	c0,5.8,0,11.8,0.6,17.9h-9v-13.6h-0.3c-3.1,6.9-8.7,15.4-24.4,15.4c-18.6,0-25.7-12.5-25.7-29.2v-48.6h9.3v46.2
	c0,14.3,5,23.6,17.9,23.6c17,0,22.3-15.1,22.3-27.7v-42h9.3L1148,811.8L1148,811.8z M1214.6,827.3c-7,2.7-14.4,4.1-21.9,4.2
	c-25,0-34.3-17-34.3-39.8c0-23.3,12.7-39.8,31.8-39.8c21.3,0,30,17.3,30,37.7v4.7h-51.6c0,16.1,8.6,29.1,24.9,29.1
	c6.8,0,16.7-2.8,21.2-5.7V827.3z M1210,786.3c0-13.2-5.3-26.4-19.2-26.4c-13.8,0-22.2,13.9-22.2,26.4H1210L1210,786.3z
	 M1260.4,725.6h23.4l40.5,104.1h-22.9l-14.6-40.2l-36.1,16.4l-9,23.8h-21.5L1260.4,725.6z M1271.8,746.5h-0.3l-14.9,42.9h30.2
	L1271.8,746.5z M1328.9,752.9h17.6v17.4h0.3c0.9-7.1,9-19.2,20.9-19.2c2-0.1,4.1,0.1,6.1,0.6v20.1c-1.8-1.1-5.3-1.6-8.9-1.6
	c-16.1,0-16.1,20.3-16.1,31.3v28.2h-19.8V752.9z M1382,756.9c8.4-3.7,17.4-5.7,26.5-5.8c23.2,0,32.8,9.7,32.8,32.4v9.8
	c0,7.8,0.1,13.5,0.3,19.2c0.1,5.8,0.4,11.1,0.9,17.1H1425c-0.5-3.8-0.8-7.6-0.9-11.4h-0.3c-4.6,8.5-14.5,13.2-23.5,13.2
	c-13.4,0-26.6-8.2-26.6-22.8c0-11.5,5.5-18.2,13-21.9c7.6-3.7,17.3-4.4,25.6-4.4h11c0-12.4-5.5-16.6-17.2-16.6
	c-8.5,0.2-16.8,3.1-23.5,8.3L1382,756.9z M1405.2,816.9c5.5,0.1,10.7-2.4,13.9-6.8c3.2-4.3,4.2-9.8,4.2-15.8h-8.6
	c-8.9,0-22,1.5-22,13.3C1392.7,814.1,1398.1,816.9,1405.2,816.9 M1523.4,829.7h-18.8v-10.4h-0.3c-6.1,7.5-14.6,12.2-25,12.2
	c-18.1,0-25.9-12.8-25.9-30.1v-48.4h19.8v41c0,9.4,0.1,22.1,12.9,22.1c14.3,0,17.4-15.7,17.4-25.5v-37.6h19.8V829.7L1523.4,829.7z
	 M1585.9,769.5c-4.2-2-8.8-3-13.5-2.9c-12.3,0-20.1,9.8-20.1,24.3c0,14.2,6.6,25,20.5,25c5.6,0,11.8-2.1,15.2-3.6l0.9,16.6
	c-5.8,1.8-11.7,2.5-19.8,2.5c-25,0-37.6-17.1-37.6-40.5c0-22.2,13.1-39.8,36.8-39.8c6.5-0.1,13,0.7,19.2,2.6L1585.9,769.5z
	 M1629.6,751.1c22.6,0,39.9,15.4,39.9,40.7c0,22.1-14.7,39.7-39.9,39.7c-25.1,0-39.8-17.6-39.8-39.7
	C1589.8,766.5,1607.1,751.1,1629.6,751.1 M1629.6,816c15.3,0,19.2-13.7,19.2-26.5c0-11.8-6.2-22.8-19.2-22.8
	c-12.9,0-19.1,11.3-19.1,22.8C1610.5,802.1,1614.5,816,1629.6,816 M789.6,451.9c0.6,2.8,1.5,5.5,2.6,8.2c1-1.7,2.3-2.9,3.1-4.7
	L789.6,451.9z M306.4,471.7c-6.2-3.5-9.8-9-11-16.3c-1.1-7.4-1.8-27.9-1.8-61.8V2.8h-7.3c-33.6,9.2-64.5,14.1-92.7,14.9V34h7.3
	c14.9,0,25.3,2.1,31.1,6.4c5.8,4.2,9.1,10.4,10,18.4c0.7,8,1.2,27.6,1.2,58.5V231c-15.4-14.2-31.7-24.9-49-31.9
	c-17.4-7.1-36.1-10.7-54.9-10.6c-38,0-70.7,14.6-98.2,43.8C13.8,261.5,0,299.8,0,347.1c0,43.1,13.5,79.8,40.4,110.1
	c26.9,30.2,58.9,45.4,96,45.4c19.7,0,39.1-4.5,56.8-13.1c18.2-8.8,36.1-21.9,53.3-39.5c0,24,1.4,41.4,4.2,52.6
	c26.4-5.5,56.4-8.5,90.2-9.2V477C324.1,477,312.6,475.3,306.4,471.7 M243.3,430.2c-12.8,17.1-26.8,29.8-41.9,38.4
	c-15.1,8.5-32.1,12.9-49.3,12.8c-26.6,0-48.9-11.2-66.9-33.7C67,425.1,58,390.2,58,342.9c0-46.7,8.8-80.3,26.4-100.8
	c17.6-20.6,39.5-30.9,65.9-30.9c15.6,0,31.1,3.4,46.7,10.1c15.5,6.8,30.9,16.8,46.3,30.4V430.2z M490,483.4
	c-31.2,0-54.7-12.8-70.4-38.5c-15.7-25.7-23.6-64.1-23.6-115.2c0-6.8,0.5-17.3,1.4-31.2h199.6c-1.1-27-11.9-52-32.5-75.2
	c-20.5-23.2-49.5-34.8-87-34.8c-39.9,0-73.1,15.2-99.7,45.6c-26.6,30.3-39.9,68.5-39.9,114.4c0,32.5,6.9,60,20.7,82.7
	c13.8,22.7,31.4,40.3,53,52.7c20.8,12.2,44.5,18.7,68.7,18.7c25.6,0.1,50.6-6.9,72.4-20.3c22.1-13.7,36.9-32.5,44.4-56.7h-16.8
	C562.5,464.2,532.4,483.4,490,483.4 M474.6,204.1c17.5,0,32.2,5.7,44.2,17.2c12,11.5,18,27.7,18,48.5c0,4.9-0.4,9.7-1,14.6h-137
	C406.9,230.8,432.2,204.1,474.6,204.1 M784.2,448.7c-12.4,19.4-27,29.1-43.7,29.1c-8.6,0-16.7-2.9-24.2-8.5
	c-7.5-5.5-12.7-13.5-14.9-22.6c-2.3-9.4-3.5-27.5-3.5-54.5V216.5h86.4v-16.3h-86.4v-91.2h-11.2c-4.2,28.7-13.9,50.9-29,66.7
	c-15.2,15.9-32.3,24.1-51.4,24.6v16.3h41.6v164.7c0,33.8,1.6,57.4,4.7,70.9c3.1,13.5,11.1,25.3,23.7,35.3
	c12.7,10.1,27.5,15.1,44.2,15.1c14.4,0,28.8-3.9,42.8-11.9c12.5-7,21.8-17.6,28.9-30.6c-1.1-2.6-2-5.4-2.6-8.2L784.2,448.7z
	 M1016.3,235c-5.2-12.1-16.1-22.9-32.4-32.3c-16.3-9.5-39.3-14.2-68.9-14.2c-39.9,0-69.2,7.8-88.1,23.3
	c-18.8,15.5-28.3,29.9-28.3,43.5c0,13.7,7.1,20.6,21.3,20.6c15.9,0,25.7-12.1,29.4-36.2c3.9-23.7,23.4-35.5,58.4-35.5
	c17.4,0,31.5,3.5,42.3,10.6c10.7,7.1,17.4,15.1,19.9,24.1c2.5,9,3.8,23.5,3.8,43.7v14.2l-54.1,22.3c-41.3,17.3-73.6,35.1-97,53.3
	c-23.4,18.2-35.1,39.5-35.1,63.9c0,5.3,0.7,10.6,2.1,15.7l5.8,3.5c-0.8,1.8-2.2,3-3.1,4.7c3.6,8.3,9.2,15.6,16.2,21.2
	c7.8,6.3,16.8,10.9,26.4,13.6l25.2-33.3c-1-1-2.1-1.8-3.1-2.9c-7.7-9.1-11.6-21.1-11.6-36c0-37.6,30.1-68.8,90.3-93.7l36.2-14.9
	l48.7-64.3C1019.7,244.8,1018.2,239.8,1016.3,235 M1401.7,634.6c-14.9,0-25.3-2.1-31.1-6.4s-9.1-10.5-10-18.5
	c-0.8-8-1.2-27.5-1.2-58.5V162.8h-7.7c-7.2,3.4-20.5,6.7-39.7,10c-19.2,3.3-35.9,5-50.2,5V194c20.8,0,33.8,4,39.2,11.9
	c5.4,7.9,8.1,27.2,8,57.7v287.5c0,33.6-0.6,53.9-1.7,61.1c-1,6.8-4.9,12.8-10.7,16.5c-5.9,3.8-15.9,5.8-29.9,5.8h-0.2
	c-14.9,0-25.3-2.1-31.1-6.4c-5.8-4.2-9.2-10.5-9.9-18.5c-0.8-8-1.2-27.5-1.2-58.5V162.8h-7.7c-7.3,3.4-20.5,6.7-39.7,10
	c-7.2,1.2-14,2.2-20.6,3l-14.9,19.2c12.3,1.5,20.5,5.2,24.4,11c5.3,7.9,8,27.2,8,57.7v287.5c0,33.6-0.6,53.9-1.8,61.1
	c-1,6.8-4.9,12.8-10.7,16.5c-5.6,3.6-14.8,5.5-27.5,5.7c5.7-9.4,8.9-21.7,9.7-36.8h-12.9c-3.7,23.2-13.3,34.8-28.7,34.8
	c-9.2,0-15.3-3.8-18.1-11.7c-2.8-7.8-4.2-25.4-4.2-52.9V450.4c0-24.9-2.6-43.3-7.9-55.4c-5.2-12.1-16-22.8-32.3-32.2
	c-6.2-3.6-13.6-6.3-21.7-8.5l-14.9,19.1c0.9,0.5,1.9,0.9,2.7,1.4c10.7,7.1,17.4,15.2,19.9,24.1c2.6,9,3.8,23.5,3.8,43.6v14.2
	l-54.2,22.3c-39.6,16.6-71,33.7-94.1,51.1l-34.7,44.7c-2.2,6.9-3.4,14.1-3.4,21.4c0,18.7,7,33.7,21,45.1c14,11.3,30.7,17,50,17
	c15.1,0,32.3-4.2,51.5-12.8c19.3-8.5,40.6-21.1,63.8-37.9c2.8,16.8,8.8,29.4,18,37.9c9.2,8.6,21.8,12.8,37.6,12.8
	c15.4,0,27.5-3.7,36.9-10.6v3.2h288.3v-16.3L1401.7,634.6L1401.7,634.6z M1029.4,588.4c-17.9,14.7-34.1,25.7-48.6,33
	c-14.4,7.4-27.1,11-38.1,11c-12.4,0-22.4-4.6-30.1-13.7c-7.7-9.1-11.5-21.1-11.5-36c0-37.6,30.1-68.9,90.2-93.8l38.1-15.6
	L1029.4,588.4L1029.4,588.4z M1563.8,643.5c-31.3,0-54.7-12.9-70.4-38.6c-15.8-25.7-23.6-64.1-23.6-115.2c0-6.8,0.4-17.3,1.4-31.2
	h199.6c-1.1-27-12-52.1-32.5-75.3c-20.5-23.2-49.5-34.8-87.1-34.9c-39.9,0-73.1,15.2-99.6,45.7c-26.6,30.4-39.8,68.6-39.8,114.5
	c0,32.4,6.9,60,20.6,82.7c13.7,22.7,31.4,40.3,53,52.7c43.8,25.5,98,24.8,141.1-1.8c22.1-13.5,36.9-32.4,44.4-56.5H1654
	C1636.3,624.2,1606.2,643.4,1563.8,643.5 M1548.4,364.1c17.4,0,32.2,5.7,44.2,17.2c12,11.5,18,27.6,18,48.4c0,4.9-0.4,9.7-1.1,14.5
	h-137.1C1480.6,390.9,1505.9,364.1,1548.4,364.1 M1801,577c0.1,26.9-21.7,48.9-48.6,49c-26.9,0.1-48.9-21.7-49-48.6
	c-0.1-26.9,21.7-48.9,48.6-49c0.1,0,0.1,0,0.2,0C1779.1,528.4,1801,550.2,1801,577 M1204,2L713.4,650.9h9.2L1213.1,2H1204L1204,2z
	 M481.7,76.7h-13.2L443,46.4h-14.3v30.3h-10.2V0.5h21.4c3.9-0.1,7.7,0.2,11.6,0.9c3,0.5,5.8,1.6,8.3,3.2c2.7,1.6,4.9,3.9,6.5,6.6
	c1.7,3.1,2.5,6.5,2.3,10c0.2,4.9-1.3,9.8-4.2,13.8c-2.9,3.8-6.9,6.7-11.5,8.4L481.7,76.7z M458,22c0-2-0.4-4-1.2-5.8
	c-0.8-1.8-2.2-3.2-3.8-4.3c-1.6-1-3.4-1.7-5.2-2.1c-2.4-0.4-4.7-0.6-7.1-0.6h-12V38h10.3c2.8,0,5.7-0.2,8.4-0.8
	c2.3-0.5,4.4-1.6,6.1-3.1c1.5-1.4,2.7-3.1,3.4-4.9C457.7,26.8,458,24.4,458,22 M578.4,49.1h-42.3c-0.1,3.1,0.5,6.3,1.6,9.2
	c1.8,4.8,5.8,8.5,10.7,10.1c2.6,0.8,5.3,1.3,8.1,1.2c4,0,8-0.8,11.8-2.3c3.9-1.5,6.8-3.1,8.5-4.6h0.5v10.5c-3.2,1.4-6.6,2.5-10,3.4
	c-3.5,0.9-7.1,1.4-10.7,1.4c-9.5,0-16.9-2.6-22.3-7.7c-5.4-5.1-8-12.4-8-21.9c0-9.4,2.6-16.8,7.7-22.3c5.1-5.5,11.9-8.3,20.2-8.2
	c7.7,0,13.7,2.2,17.9,6.8c4.2,4.5,6.3,10.9,6.3,19.2L578.4,49.1L578.4,49.1z M569,41.8c0-5.1-1.3-9-3.8-11.7
	c-2.5-2.8-6.3-4.2-11.5-4.2c-5.2,0-9.3,1.5-12.4,4.6c-3,3-4.9,7-5.2,11.3H569z M684.7,19.5l-23.2,57.2h-9.7l-23.1-57.2h10.5L657,65
	l17.6-45.5L684.7,19.5L684.7,19.5z M749.8,10h-10.9V0h10.9L749.8,10L749.8,10z M749.2,76.7h-9.7V19.5h9.7L749.2,76.7L749.2,76.7z
	 M851.4,60.2c0.1,5.1-2.4,9.9-6.5,12.8c-4.3,3.4-10.2,5-17.7,5c-3.9,0-7.9-0.5-11.7-1.5c-3.1-0.8-6.1-1.9-8.9-3.3V62.5h0.5
	c3.1,2.3,6.5,4.1,10.2,5.4c3.4,1.3,7.1,2,10.7,2c4.2,0,7.6-0.7,10-2.1c2.4-1.3,3.8-3.8,3.6-6.4c0.1-1.9-0.6-3.8-2-5.1
	c-1.3-1.2-3.8-2.2-7.5-3c-1.4-0.3-3.2-0.7-5.4-1.1c-2.2-0.4-4.2-0.9-6-1.3c-5-1.3-8.6-3.3-10.7-5.9c-2.1-2.7-3.3-6-3.2-9.5
	c0-2.3,0.5-4.6,1.5-6.7c1-2.2,2.6-4.1,4.4-5.6c2.2-1.7,4.7-3,7.3-3.8c3.2-1,6.6-1.4,9.9-1.4c3.5,0,7,0.4,10.4,1.2c3,0.7,6,1.7,8.7,3
	v10.3h-0.5c-2.8-2-5.8-3.5-9-4.6c-3.3-1.2-6.8-1.8-10.4-1.9c-3.1-0.1-6.2,0.6-8.9,2c-3.4,1.9-4.7,6.2-2.8,9.6
	c0.4,0.6,0.8,1.2,1.3,1.7c1.4,1.2,3.8,2.2,7,2.9c1.8,0.4,3.8,0.8,6,1.2c2.2,0.4,4.1,0.8,5.5,1.1c4.5,1,7.9,2.8,10.4,5.3
	C850.2,52.9,851.5,56.5,851.4,60.2 M937,76.2c-2,0.5-3.9,0.9-5.9,1.2c-1.9,0.3-3.8,0.4-5.7,0.5c-5.9,0-10.3-1.6-13.4-4.7
	c-3-3.1-4.6-8.2-4.6-15.1V27.6h-6.5v-8.1h6.5V3.1h9.7v16.4H937v8.1h-19.9v26.1c0,3,0.1,5.3,0.2,7c0.1,1.7,0.6,3.3,1.4,4.7
	c0.7,1.3,1.8,2.3,3.1,3c1.9,0.7,4,1.1,6.1,1c1.7,0,3.3-0.2,4.9-0.7c1.3-0.3,2.5-0.7,3.7-1.2h0.5L937,76.2L937,76.2z M1035.4,76.7
	h-9.6v-6.1c-0.8,0.6-2,1.4-3.5,2.4c-1.3,1-2.7,1.8-4.2,2.5c-1.8,0.8-3.6,1.5-5.5,2c-2.4,0.6-4.9,0.8-7.3,0.8
	c-4.9,0.1-9.6-1.7-13.1-5.1c-3.6-3.4-5.6-8.1-5.4-13c0-4.3,0.9-7.8,2.8-10.5c2-2.8,4.8-5,8-6.3c4-1.7,8.3-2.7,12.6-3.1
	c4.9-0.6,10.2-1,15.8-1.2v-1.5c0.1-1.9-0.3-3.7-1.2-5.4c-0.8-1.4-1.9-2.6-3.3-3.4c-1.5-0.8-3.2-1.4-4.9-1.6c-2-0.3-4-0.4-6-0.4
	c-2.9,0-5.7,0.4-8.5,1c-3.3,0.7-6.5,1.7-9.6,2.9h-0.5v-9.8c1.9-0.5,4.6-1.1,8.2-1.7c3.5-0.6,7-0.9,10.5-0.9c3.5-0.1,7.1,0.3,10.5,1
	c2.8,0.6,5.5,1.7,7.8,3.4c2.2,1.6,3.9,3.7,4.9,6.1c1.2,2.9,1.8,6.1,1.7,9.3L1035.4,76.7L1035.4,76.7z M1025.7,62.6V46.7
	c-2.9,0.2-6.4,0.4-10.4,0.8c-3.2,0.2-6.4,0.7-9.5,1.5c-2.5,0.6-4.8,1.9-6.7,3.6c-1.8,1.8-2.7,4.3-2.6,6.8c0,3.3,1,5.7,3,7.4
	s5,2.5,9.1,2.5c3.2,0,6.4-0.6,9.3-2C1020.7,66.1,1023.3,64.5,1025.7,62.6"/>
</svg>
