<?xml version="1.0" encoding="utf-8"?>
<!-- Generator: Adobe Illustrator 21.0.2, SVG Export Plug-In . SVG Version: 6.00 Build 0)  -->
<svg version="1.1" id="Capa_1" xmlns="http://www.w3.org/2000/svg" xmlns:xlink="http://www.w3.org/1999/xlink" x="0px" y="0px"
	 viewBox="0 0 590.8 142.4" style="enable-background:new 0 0 590.8 142.4;" xml:space="preserve">
<style type="text/css">
	.st0{fill:#FFFFFF;}
	.st1{fill:#499C2D;}
	.st2{fill:#184287;}
	.st3{fill:#E40521;}
</style>
<g id="XMLID_80_">
	<g id="XMLID_87_">
		<path id="XMLID_116_" d="M159.1,48.1H172c9.9,0,16.3,5,16.3,14.9c0,9.8-7.4,14.9-16.8,14.9h-7.2v22.7h-5.2V48.1z M164.3,73.4h3.6
			c7.8,0,15.2-0.9,15.2-10.4c0-6.6-3.8-10.4-10.4-10.4h-8.4V73.4z"/>
		<path id="XMLID_113_" d="M214.5,94.5h-0.2c-2.1,4.6-7.5,7.1-12.2,7.1c-10.9,0-12.7-7.4-12.7-10.8c0-12.9,13.7-13.5,23.7-13.5h0.9
			v-1.9c0-6.6-2.3-9.9-8.7-9.9c-4,0-7.8,0.9-11.3,3.2V64c3-1.4,7.9-2.6,11.3-2.6c9.5,0,13.5,4.3,13.5,14.3v16.9c0,3.1,0,5.4,0.4,8.1
			h-4.7V94.5z M214.1,81.3h-1.4c-8.2,0-18,0.8-18,9.3c0,5,3.6,6.9,8,6.9c11.1,0,11.4-9.7,11.4-13.9V81.3z"/>
		<path id="XMLID_112_" d="M226.3,70.9c0-4.2,0-5.8-0.3-8.6h4.8v7.4h0.2c1.7-4.3,5-8.3,9.9-8.3c1.1,0,2.5,0.2,3.3,0.5v5
			c-1-0.3-2.3-0.4-3.5-0.4c-7.5,0-9.6,8.4-9.6,15.4v19h-4.7V70.9z"/>
		<path id="XMLID_109_" d="M276.7,116.5H272V94.1h-0.1c-2.3,5-6,7.5-12,7.5c-10.5,0-15.8-8.7-15.8-20.1c0-11.7,4.5-20.1,15.8-20.1
			c8.1,0,11.1,5.8,12,7.2h0.1v-6.3h4.7V116.5z M260.6,97.5c8.4,0,11.4-9,11.4-16c0-7-2.9-16-11.4-16c-9,0-11.4,8.6-11.4,16
			C249.2,89,251.6,97.5,260.6,97.5"/>
		<path id="XMLID_108_" d="M314.4,91.7c0,2.9,0,5.9,0.3,9h-4.6v-6.9h-0.2c-1.6,3.5-4.4,7.8-12.4,7.8c-9.5,0-13.1-6.3-13.1-14.8V62.3
			h4.7v23.3c0,7.2,2.6,11.9,9.1,11.9c8.7,0,11.4-7.6,11.4-14V62.3h4.8V91.7z"/>
		<path id="XMLID_105_" d="M348.3,99.5c-3.3,1.4-7.6,2.1-11.2,2.1c-12.7,0-17.5-8.6-17.5-20.1c0-11.8,6.5-20.1,16.2-20.1
			c10.8,0,15.3,8.7,15.3,19.1v2.4h-26.3c0,8.1,4.4,14.7,12.7,14.7c3.5,0,8.5-1.4,10.8-2.9V99.5z M346,78.8c0-6.7-2.7-13.3-9.8-13.3
			c-7,0-11.3,7-11.3,13.3H346z"/>
		<path id="XMLID_102_" d="M371.6,48.1h11.9l20.6,52.6h-11.7l-7.4-20.3l-18.4,8.3l-4.6,12.1h-10.9L371.6,48.1z M377.4,58.7h-0.2
			l-7.6,21.7h15.4L377.4,58.7z"/>
		<path id="XMLID_101_" d="M406.5,61.9h8.9v8.8h0.2c0.5-3.6,4.6-9.7,10.6-9.7c1,0,2,0,3.1,0.3v10.2c-0.9-0.5-2.7-0.8-4.5-0.8
			c-8.2,0-8.2,10.2-8.2,15.8v14.2h-10.1V61.9z"/>
		<path id="XMLID_98_" d="M433.5,63.9c3.9-1.8,9.2-2.9,13.5-2.9c11.8,0,16.7,4.9,16.7,16.4v5c0,3.9,0.1,6.9,0.2,9.7
			c0.1,2.9,0.2,5.6,0.4,8.7h-8.9c-0.4-2-0.4-4.6-0.5-5.8h-0.1c-2.3,4.3-7.4,6.7-12,6.7c-6.8,0-13.6-4.1-13.6-11.5
			c0-5.8,2.8-9.2,6.6-11.1c3.8-1.9,8.8-2.3,13-2.3h5.6c0-6.2-2.8-8.4-8.7-8.4c-4.3,0-8.6,1.7-12,4.2L433.5,63.9z M445.4,94.2
			c3.1,0,5.5-1.4,7.1-3.5c1.7-2.2,2.1-5,2.1-8h-4.4c-4.5,0-11.2,0.8-11.2,6.7C439,92.8,441.8,94.2,445.4,94.2"/>
		<path id="XMLID_97_" d="M505.5,100.7H496v-5.3h-0.2c-3.1,3.8-7.5,6.2-12.7,6.2c-9.2,0-13.2-6.5-13.2-15.2V61.9H480v20.7
			c0,4.7,0.1,11.2,6.6,11.2c7.3,0,8.9-7.9,8.9-12.9v-19h10.1V100.7z"/>
		<path id="XMLID_96_" d="M537.3,70.3c-1.8-0.8-3.8-1.4-6.9-1.4c-6.3,0-10.2,5-10.2,12.3c0,7.2,3.4,12.7,10.5,12.7
			c2.9,0,6-1.1,7.8-1.8l0.5,8.4c-2.9,0.9-6,1.3-10.1,1.3c-12.7,0-19.1-8.7-19.1-20.5c0-11.2,6.6-20.1,18.7-20.1c4.1,0,7,0.5,9.8,1.3
			L537.3,70.3z"/>
		<path id="XMLID_93_" d="M559.6,61c11.5,0,20.3,7.8,20.3,20.6c0,11.2-7.5,20-20.3,20c-12.8,0-20.3-8.9-20.3-20
			C539.3,68.8,548.2,61,559.6,61 M559.6,93.8c7.8,0,9.8-6.9,9.8-13.4c0-6-3.2-11.5-9.8-11.5c-6.6,0-9.7,5.7-9.7,11.5
			C549.9,86.8,552,93.8,559.6,93.8"/>
		<path id="XMLID_88_" d="M569.8,48.2c0-5.8,4.7-10.5,10.5-10.5c5.8,0,10.5,4.7,10.5,10.5c0,5.8-4.7,10.5-10.5,10.5
			C574.5,58.7,569.8,54,569.8,48.2 M588.2,48.2c0-4.9-3.6-8.5-7.9-8.5c-4.4,0-8,3.5-8,8.5s3.5,8.5,8,8.5
			C584.6,56.6,588.2,53.1,588.2,48.2 M576.2,42.2h4.4c2.9,0,4.4,1,4.4,3.5c0,2-1.2,3-3.1,3.2l3.2,5.2h-2.3l-3.1-5.1h-1.3v5.1h-2.2
			V42.2z M578.4,47.3h2c1.3,0,2.4-0.2,2.4-1.8c0-1.4-1.3-1.6-2.4-1.6h-2V47.3z"/>
	</g>
	<g id="XMLID_81_">
		<path id="XMLID_86_" class="st0" d="M142.3,71.2c0,39.3-31.9,71.2-71.2,71.2C31.9,142.4,0,110.5,0,71.2C0,31.9,31.9,0,71.2,0
			C110.5,0,142.3,31.9,142.3,71.2"/>
		<path id="XMLID_85_" class="st1" d="M136.2,78.5c-1-0.1-2.1-0.1-3.2-0.1c-26.4,0-47.8,21.5-47.8,47.8c0,3,0.3,5.8,0.8,8.6
			C112.6,128.7,133.1,106.2,136.2,78.5"/>
		<path id="XMLID_84_" class="st1" d="M9.9,78.4c-1.3,0-2.5,0.1-3.8,0.2C9.3,106.5,30,129.1,57,135c0.5-2.8,0.8-5.8,0.8-8.8
			C57.8,99.9,36.3,78.4,9.9,78.4"/>
		<path id="XMLID_83_" class="st2" d="M9.9,71.4c5.3,0,10.4,0.7,15.3,2.2c1.7-23.9,21.7-42.8,46-42.8c24.4,0,44.3,19,46,43
			c5-1.5,10.4-2.3,15.9-2.3c1.2,0,2.4,0,3.6,0.1c0-0.1,0-0.3,0-0.4c0-36.1-29.3-65.4-65.4-65.4C35,5.7,5.7,35,5.7,71.1
			c0,0.2,0,0.3,0,0.4C7.1,71.4,8.5,71.4,9.9,71.4"/>
		<path id="XMLID_82_" class="st3" d="M78.2,126.3c0-22.1,13.2-41.2,32.1-49.9C110,55,92.5,37.8,71.2,37.8
			c-21.3,0-38.6,17.1-39.1,38.3c19.2,8.5,32.7,27.8,32.7,50.2c0,3.4-0.3,6.7-0.9,9.9c2.4,0.3,4.8,0.4,7.3,0.4c2.6,0,5.3-0.2,7.9-0.5
			C78.5,132.9,78.2,129.6,78.2,126.3"/>
	</g>
</g>
</svg>
