<?xml version="1.0" encoding="utf-8"?>
<!-- Generator: Adobe Illustrator 21.0.2, SVG Export Plug-In . SVG Version: 6.00 Build 0)  -->
<svg version="1.1" id="Capa_1" xmlns="http://www.w3.org/2000/svg" xmlns:xlink="http://www.w3.org/1999/xlink" x="0px" y="0px"
	 viewBox="0 0 440.3 243.6" style="enable-background:new 0 0 440.3 243.6;" xml:space="preserve">
<style type="text/css">
	.st0{fill-rule:evenodd;clip-rule:evenodd;fill:#010202;}
</style>
<g id="XMLID_1_">
	<path class="st0" d="M405.9,55.7c1.7,1.3,4.1,1.7,6.1,0.9c4.5-1.8,4.5-8.1,9.3-9.4c1.7-0.3,3.4-0.5,5.1-0.4c1.1,0.1,2.2,0,3.2-0.2
		c1.8-0.4,3.3-1.7,3.9-3.5c0.7-2,0-4.3-1-6.1c-0.9-1.5-1.6-3-2.2-4.6c-0.4-1.6-0.2-3.4,0.5-4.9c1-2,2.8-4.8,2.8-7.3
		c-0.1-3.3-2.9-5.6-6.1-5.6c-1.6,0-3.2-0.1-4.7-0.1c-3.1-0.1-5.4-2.4-6.8-5c-1.2-2.4-3.2-4.9-6-5.3c-3.6-0.5-6.4,2.5-7.7,5.6
		c-1.2,2.8-4,4.6-7,4.7c-1.5-0.1-3.1-0.1-4.6,0c-3.1,0.1-5.7,2.8-5.4,6c0.2,1.2,0.5,2.3,1,3.4c1.5,2.8,3.6,6.6,2,9.9
		c-1.5,2.8-3.6,6.2-2.5,9.6c1.1,2.2,3.6,3.7,6.1,3.5c1.1,0,2.3-0.1,3.4,0c1.9,0,3.8,0.6,5.3,1.8C402.6,50.6,403.5,53.7,405.9,55.7
		 M379,30.7C379,13.7,392.7,0,409.7,0c16.9,0,30.7,13.7,30.7,30.7s-13.7,30.7-30.7,30.7C392.7,61.3,379,47.6,379,30.7"/>
	<polygon id="XMLID_13_" class="st0" points="0.6,133.1 0.6,42 10.4,42 50.9,91 91.4,43.3 100.9,43.3 100.9,133.4 75.3,133.4 
		75.3,102.4 50.9,128.7 27.2,101.8 27.2,133.1 	"/>
	<polygon id="XMLID_12_" class="st0" points="213.2,134 236.6,134 236.6,92.6 282.8,133.7 290.7,133.7 290.7,43.6 266.6,43.6 
		266.6,82.8 222.3,43.3 213.2,43.3 	"/>
	<polygon id="XMLID_11_" class="st0" points="300.5,66 300.5,44.2 370.4,44.2 370.4,65.7 347.9,65.7 347.9,134 323.2,134 323.2,66 	
		"/>
	<polygon id="XMLID_10_" class="st0" points="212.7,242.6 236.1,242.6 236.1,201.2 282.3,242.3 290.2,242.3 290.2,152.1 
		266.1,152.1 266.1,191.4 221.8,151.8 212.7,151.8 	"/>
	<path class="st0" d="M24.4,203v18.7l12.6-0.1c0,0,8.5-1.2,8.5-9.4c0-9.5-10.7-9.4-10.7-9.4L24.4,203z M25,167l0.1,18.4l11.9,0.2
		c0,0,8.7,0.9,8.7-8.9c0-9.8-8.7-9.5-8.7-9.5L25,167z M0,150.8h45.9c0,0,20.6,0.6,20.6,22.1c0,18-11.7,21.2-11.7,21.2s14,3.3,14,21
		c0,25.9-26.3,26.7-26.3,26.7H0V150.8z"/>
	<polygon id="XMLID_6_" class="st0" points="75.8,150.5 100.3,150.5 100.3,220.3 119.9,220.3 119.9,242.2 75.6,242.2 	"/>
	<polygon id="XMLID_5_" class="st0" points="123.5,242.2 160.4,150.3 172,150.3 208.8,242.2 182,242.1 166.4,202.7 149.1,242.2 	"/>
	<path id="XMLID_4_" class="st0" d="M365.9,171.4l2.2-20.2c0,0-29.3-5-43,3.2c-9.5,5.7-27,13.8-26.7,44.2
		c0.3,28.2,26.4,39.6,26.4,39.6s11.7,9,44.3,3.9c0.6-0.1,0-19.7,0-19.7s-16.4,2.2-24.7-0.2c-5-1.5-21.5-7.5-21.5-26.5
		s19.7-24.2,19.7-24.2C350.8,167.9,365.9,171.4,365.9,171.4"/>
	<path class="st0" d="M133.8,87.5c0,13.5,10.3,24.4,23.1,24.4S180,101,180,87.5c0-13.4-10.3-24.3-23.1-24.3S133.8,74.1,133.8,87.5
		 M111.6,87.4c0-26.6,20.2-48.2,45.1-48.2c24.9,0,45.1,21.6,45.1,48.2c0,26.7-20.2,48.2-45.1,48.2C131.8,135.6,111.6,114,111.6,87.4
		"/>
</g>
</svg>
