<?xml version="1.0" encoding="utf-8"?>
<!-- Generator: Adobe Illustrator 21.0.2, SVG Export Plug-In . SVG Version: 6.00 Build 0)  -->
<svg version="1.1" id="Capa_1" xmlns="http://www.w3.org/2000/svg" xmlns:xlink="http://www.w3.org/1999/xlink" x="0px" y="0px"
	 viewBox="0 0 334 180" style="enable-background:new 0 0 334 180;" xml:space="preserve">
<style type="text/css">
	.st0{fill:#AD182E;}
</style>
<polygon class="st0" points="13.2,55.1 13.2,20.6 0,20.6 0,6 43.5,6 43.5,20.6 30.4,20.6 30.4,55.1 "/>
<path class="st0" d="M23.6,83.6c4-0.2,6.3-0.1,6.3-3.6c-0.1-3.1-1.7-2.9-5.4-3.1h-5.1v6.7L23.6,83.6L23.6,83.6z M2.2,111.4V63.7
	v-1.4l25.6,0c13.6,0,18.6,10.1,18.6,17.2c0,5.9-2.1,10.5-5.7,13.5c-3.6,3-8.5,4.4-14.1,4.4h-7.2v14L2.2,111.4L2.2,111.4z"/>
<path class="st0" d="M23.7,153.1c8,0,8.8-5.9,8.9-10.2c-0.2-2.8-0.5-9.6-10-9.7h-3.2v19.9H23.7z M2.2,167.7V120v-1.3h25.1
	c16.5,0,22.5,12.4,22.5,24.5c0,7.4-2,13.5-6.2,17.9c-4.3,4.4-10.7,6.7-19.1,6.7H2.2z"/>
<polygon class="st0" points="74.1,55.1 74.1,36.7 63.3,36.7 63.3,55.1 46.1,55.1 46.1,7.3 46.1,6 63.3,6 63.3,22.1 74.1,22.1 
	74.1,6 91.3,6 91.3,55.1 "/>
<polygon class="st0" points="93.5,55.1 93.5,7.3 93.5,6 135.1,6 135.1,20.6 110.7,20.6 110.7,23.7 132.9,23.7 132.9,37.4 
	110.7,37.4 110.7,40.5 135.8,40.5 135.8,55.1 "/>
<path class="st0" d="M100.3,111.4V63.7v-1.4l25.6,0c13.5,0,18.5,10.1,18.6,17.2c0,5.9-2.1,10.5-5.6,13.5c-3.6,3-8.5,4.4-14.1,4.4
	h-7.2v14L100.3,111.4L100.3,111.4z M121.8,83.6c4-0.2,6.3-0.1,6.3-3.6c-0.1-3.1-1.7-2.9-5.5-3.1h-5.1v6.7H121.8z"/>
<path class="st0" d="M152.2,107.5c-3.9-3.5-5.8-8.7-5.8-15.3V62.3h17.2V89c0.1,5-0.1,9.3,5.6,9.3c5.6,0,5.3-4.3,5.5-9.3V62.3H192
	v29.8c0,6.7-1.8,11.9-5.8,15.3c-3.9,3.4-9.6,5-17,5C161.9,112.5,156.2,110.9,152.2,107.5"/>
<polygon class="st0" points="194.6,111.4 194.6,63.7 194.6,62.3 211.8,62.3 211.8,96.8 232.6,96.8 232.6,111.4 "/>
<path class="st0" d="M268,111.4l-1.9-6.6h-12.9l-2.1,6.6h-17.5l17.9-48.2l0.4-0.9h16l18.1,49.1L268,111.4L268,111.4z M257.2,92.1
	h5.2l-2.5-8.5L257.2,92.1z"/>
<path class="st0" d="M316.1,111.4l-0.3-0.9c-0.7-2.5-1-5-1.2-7.4c-0.5-4.7-0.6-7.8-5.1-7.8h-6.3v16.2h-17.2V63.7v-1.4l28.9,0
	c8.6,0,16.6,5,16.7,14.6c0,4.4-1.7,9.1-5.5,11.7c3.1,2.3,4.9,6.5,5.4,11.4c0.1,2.3,0.4,7.9,1.4,9.3l1.3,2.1L316.1,111.4L316.1,111.4
	z M309.3,82.6c2.7-0.2,5-0.3,5-3.3c-0.2-2.2-0.4-3-5.8-3.3h-5.4v6.5H309.3z"/>
<polygon class="st0" points="52.5,167.7 52.5,120 52.5,118.6 94.1,118.6 94.1,133.2 69.8,133.2 69.7,136.3 91.9,136.3 91.9,150.1 
	69.8,150.1 69.7,153.1 94.9,153.1 94.9,167.7 "/>
<path class="st0" d="M96.7,150.8v-1.4h15.8v1.4v-1.4h1.4v1.4c0,1,0.2,1.9,0.4,2.6c0.6,1.9,3,2.5,5.6,2.5c2.3-0.1,4.6-0.7,4.6-2.9
	c-0.1-0.8,0-0.7-1.3-1.5c-1.3-0.7-3.8-1.4-7.9-2.5c-7.2-2-16.9-4.3-16.9-14.7c0-11.7,10.3-16.7,20.3-16.7
	c10.4-0.1,20.6,4.2,20.9,16.4l0.1,1.4h-16.7l0.2-1.5c0-0.2,0-0.3,0.1-0.5c-0.1-0.9-0.4-1.4-1.2-2c-0.8-0.6-2.2-0.9-3.5-0.9
	c-0.9,0-2,0.1-2.8,0.5c-0.8,0.4-1,0.6-1.1,1.2c-0.1,0.6,1,1.5,3.5,2.3c2.4,0.8,5.7,1.4,9.1,2.3c6.7,1.7,14.2,5.3,14.2,14.7
	c-0.1,13.2-12.4,17.3-23.1,17.3h-0.1C113,168.8,96.9,166.7,96.7,150.8"/>
<polygon class="st0" points="144,167.7 144,120 144,118.6 161.1,118.6 161.1,167.7 "/>
<path class="st0" d="M187.8,168.8c-14.7,0-23.8-11.4-23.8-25.2c0-18.4,13.4-26.1,24.5-26.1c12.5-0.1,20.9,7,22.9,18.5l0.3,1.6h-16.7
	l-0.2-1.1c-0.4-2.7-2.7-4.6-5.5-4.7c-8,0-8.1,7.6-8.2,11.5v0.7c0.1,4.2,1.5,10.6,9.2,10.6c2.3,0,4.4-0.9,5.5-2.4h-5.7v-12.6h21.9
	v28.2h-11.7l-0.1-1.2l-0.2-1.8C196.6,167.6,192.2,168.8,187.8,168.8L187.8,168.8L187.8,168.8z"/>
<polygon class="st0" points="244.6,167.7 232.2,146 232.2,167.7 215.8,167.7 215.8,120 215.8,118.6 232.8,118.6 244.4,139.7 
	244.4,118.6 260.8,118.6 260.8,167.7 "/>
<path class="st0" d="M98.8,86.9c0,14.2-11.6,25.7-26,25.7c-14.4,0-26-11.5-26-25.7c0-14.2,11.6-25.7,26-25.7S98.8,72.7,98.8,86.9"/>
</svg>
