<?xml version="1.0" encoding="utf-8"?>
<!-- Generator: Adobe Illustrator 21.0.2, SVG Export Plug-In . SVG Version: 6.00 Build 0)  -->
<svg version="1.1" id="Capa_1" xmlns="http://www.w3.org/2000/svg" xmlns:xlink="http://www.w3.org/1999/xlink" x="0px" y="0px"
	 viewBox="0 0 586.2 60.1" style="enable-background:new 0 0 586.2 60.1;" xml:space="preserve">
<style type="text/css">
	.st0{fill-rule:evenodd;clip-rule:evenodd;fill:#FFFFFF;}
</style>
<g>
	<path class="st0" d="M298.2,8.3h-33.8v17.5h31.1v6.8h-31.1v19.1h34.3v6.9h-41.9v-57h41.5V8.3L298.2,8.3z M316.4,1.6v50.1h29v6.9
		H309v-57H316.4L316.4,1.6z M382.8,1.6v27.6l27.5-27.6h10.7l-23.7,23.2l24.3,33.8h-9.8l-20.1-28.6l-8.8,8.7v19.9H375v-57H382.8
		L382.8,1.6z M427,10.4c-3.9,5.5-5.9,12-5.9,19.6c0,7.7,2,14.2,5.9,19.7c4.9,6.9,12.1,10.4,21.9,10.4s16.9-3.5,21.7-10.4
		c4.1-5.5,6.1-12,6.1-19.7c0-7.6-2-14.1-6.1-19.6C465.8,3.5,458.6,0,448.9,0S432,3.5,427,10.4L427,10.4z M448.9,6.8
		c6.1,0,10.8,2.3,14.5,6.8c3.6,4.3,5.3,9.7,5.3,16.5c0,6.9-1.7,12.5-5.3,16.7c-3.6,4.5-8.4,6.7-14.5,6.7c-6.2,0-11-2.2-14.5-6.7
		c-3.6-4.2-5.3-9.8-5.3-16.7c0-6.8,1.7-12.2,5.3-16.5C438,9.1,442.8,6.8,448.9,6.8L448.9,6.8z M486.8,1.6v57h7.6V34.1h18.6
		c6.8,0,10.2,3.3,10.2,10.1c0,6.9,0.4,11.7,1.2,14.3h9.5v-1.3c-1.9-1-2.8-2.9-2.8-5.6l-0.6-10.3c-0.1-3.6-0.9-6.3-2.3-7.9
		c-0.8-1-2.3-2.1-4.5-2.9c5.2-3,7.8-7.6,7.8-13.5c0-10.3-6.2-15.4-18.6-15.4H486.8L486.8,1.6z M494.4,8.1h19.1
		c6.9,0,10.4,3.2,10.4,9.5c0,6.7-3.9,10-11.5,10h-18V8.1L494.4,8.1z M563.4,6.8c-8.8,0-13.2,3.3-13.2,10c0,3.7,2.3,6.1,6.9,7.1
		l16.3,3.7c8.5,2.2,12.8,7.2,12.8,15.2c0,6.2-2.4,10.7-7.5,13.7c-3.9,2.5-8.8,3.6-14.7,3.6c-7.4,0-13.2-1.9-17.3-5.5
		c-3.9-3.5-5.7-8.2-5.7-14.5h7.2c0,4.8,1.7,8.2,5,10.6c2.8,1.8,6.2,2.7,10.6,2.7c10,0,14.9-3.1,14.9-9.6c0-2.9-0.9-5.1-2.5-6.4
		c-1.6-1.3-4.8-2.6-9.5-3.6L555,31.1c-8.1-1.9-12.1-6.3-12.1-13.4c0-4.8,1.6-8.8,4.7-12c3.6-3.8,8.5-5.6,15-5.6
		c14.1,0,21.4,6.1,22.3,18.2h-7.3c-0.1-3.9-1.8-6.9-4.9-9C570.1,7.6,567,6.8,563.4,6.8L563.4,6.8z M47.1,10.7l-16,47.9h-7.6
		L7.5,10.7H7.2l0.3,47.9H0v-57h11l16.1,48.1h0.3L43.6,1.6h11v57h-7.5l0.2-47.9H47.1L47.1,10.7z M99.1,12.6c-3.6,4-5.3,9.6-5.3,16.9
		c0,15.9,6.2,23.9,18.7,23.9c8.8,0,14.3-5.2,16.4-15.8h7.5c-1.4,9.1-5.5,15.6-12.1,19.3c-3.7,2.2-8.1,3.2-12.8,3.2
		c-7.1,0-13-2.3-17.6-6.9c-5.4-5.4-8-13.2-8-23.4c0-8.8,2.3-16,7.1-21.4C97.8,2.7,104.3,0,112.3,0c6.9,0,12.6,2,16.9,5.9
		c3.7,3.3,5.9,7.5,6.7,12.8h-7.5c-1.6-8-6.9-11.9-16-11.9C106.9,6.8,102.6,8.7,99.1,12.6L99.1,12.6z M153.5,1.6v23.6h29.8V1.6h7.5
		v57h-7.5V31.9h-29.8v26.6h-7.8v-57H153.5L153.5,1.6z M219.6,1.6l-21.6,57h8l5.9-16.5h22.9l5.7,16.5h8.2l-20.5-57H219.6L219.6,1.6z
		 M223.5,10.1l8.5,25.2h-17.6l8.9-25.2H223.5L223.5,10.1z M67.5,1.6h7.7v57h-7.7V1.6L67.5,1.6z"/>
</g>
</svg>
