<?xml version="1.0" encoding="utf-8"?>
<!-- Generator: Adobe Illustrator 21.0.2, SVG Export Plug-In . SVG Version: 6.00 Build 0)  -->
<svg version="1.1" id="Capa_1" xmlns="http://www.w3.org/2000/svg" xmlns:xlink="http://www.w3.org/1999/xlink" x="0px" y="0px"
	 viewBox="0 0 299 117.2" style="enable-background:new 0 0 299 117.2;" xml:space="preserve">
<style type="text/css">
	.st0{fill-rule:evenodd;clip-rule:evenodd;}
</style>
<g>
	<g id="HATCH_3_">
		<path class="st0" d="M264.8,2.4c-6.4,0-12.1,4.1-14,10.3c-2.2,6.1-3.3,12.6-3.5,19.1c-0.4,6.5-0.4,13.1,0,19.6
			c0.2,6.5,1.3,13,3.5,19.1c1.9,6.1,7.6,10.3,14,10.3h2.1c6.4,0,12.1-4.1,14-10.3c2.2-6.1,3.3-12.6,3.5-19.1
			c0.3-6.5,0.3-13.1,0-19.6c-0.2-6.5-1.3-13-3.5-19.1c-1.9-6.1-7.6-10.3-14-10.3H264.8L264.8,2.4z M110.3,2.4h-2.2
			c-6.4,0-12.1,4.1-14,10.3c-2.1,6.1-3.3,12.6-3.5,19.1c-0.3,6.5-0.3,13.1,0,19.6c0.2,6.5,1.4,13,3.5,19.1c2,6.1,7.7,10.3,14,10.3
			h2.2c6.4,0,12.1-4.1,14-10.3c2.1-6.1,3.3-12.6,3.5-19.1c0.3-6.5,0.3-13.1,0-19.6c-0.2-6.5-1.4-13-3.5-19.1
			C122.4,6.6,116.7,2.4,110.3,2.4L110.3,2.4z M178.8,4.4h11.5V1.8h-30.9v2.6h6.9v74.5h-6.9v2.6H215v-32h-2.5c-1.6,7-3.6,14-6,20.9
			c-0.8,2.3-1.9,4.4-3.4,6.1c-1.3,1.4-3.1,2.3-5,2.4h-19.3V4.4L178.8,4.4z M281.5,4.7c-5.3-3.5-11.7-5.1-18-4.6
			c-6.3,0.5-12.3,3.2-17.1,7.5c-4.7,4.2-8.3,9.6-10.5,15.5c-2.2,6-3.3,12.3-3.2,18.6c0,6.3,1,12.6,3.2,18.6
			c2.2,5.9,5.8,11.3,10.5,15.5c4.7,4.3,10.7,6.9,17.1,7.5c6.3,0.5,12.7-1.1,18-4.6c5.3-3.5,9.5-8.4,12.4-14.1
			c2.8-5.7,4.5-11.8,4.9-18.1c0.5-6.3,0-12.7-1.6-18.8c-0.8-3-1.9-6-3.3-8.8C291,13.1,286.8,8.2,281.5,4.7L281.5,4.7z M137.3,18.8
			c-2.8-5.7-7.1-10.6-12.4-14.1c-5.3-3.5-11.6-5.1-18-4.6c-6.3,0.5-12.3,3.2-17,7.5c-4.7,4.2-8.3,9.6-10.5,15.5
			c-2.2,6-3.3,12.3-3.2,18.6C76,48,77.1,54.3,79.3,60.2c2.2,5.9,5.8,11.3,10.5,15.5c4.7,4.3,10.7,6.9,17,7.5
			c6.4,0.5,12.7-1.1,18-4.6c5.3-3.5,9.6-8.4,12.4-14.1c2.8-5.7,4.5-11.8,5-18.1c0.5-6.3,0-12.7-1.6-18.8
			C139.9,24.5,138.7,21.6,137.3,18.8L137.3,18.8z M6.9,78.9H0v2.6h30v-2.6H19.3V42.8h15.2c2.3-0.1,4.7-0.3,7-0.6
			c2-0.3,3.9-0.8,5.8-1.4c1.9-0.6,3.7-1.5,5.4-2.5c3.5-2,6.1-5.2,7.4-9c1.3-3.7,1.4-7.9,0.4-11.7c-1-3.9-3.3-7.3-6.5-9.7
			c-3.2-2.4-6.9-4-10.8-4.9c-2.9-0.6-5.9-1-8.9-1.1H0v2.6h6.9V78.9L6.9,78.9z M19.3,40.3h13.4c3-0.2,5.9-0.8,8.7-1.9
			c3.5-1.9,5.8-5.4,6.2-9.4c0.7-3.8,0.7-7.7,0-11.6c-0.5-3.9-2.6-7.4-5.6-9.9c-2.7-1.9-5.9-2.9-9.2-3H19.3V40.3L19.3,40.3z"/>
	</g>
	<g id="HATCH_2_">
		<path class="st0" d="M175.5,102.7c0,0-2.4,7-2.4,7h4.7L175.5,102.7L175.5,102.7z M61.4,102.7c0,0-2.4,7-2.4,7h4.7L61.4,102.7
			L61.4,102.7z M240.1,101.7c0.3,0.7,0.6,1.4,0.8,2.1c0.2,0.6,0.4,1.2,0.5,1.8h0.5v-5.3h-12.1v0.5h1.4v15.4h-1.4v0.5h12.3v-6.1h-0.5
			c-0.1,0.5-0.3,1-0.4,1.5c-0.2,0.7-0.5,1.4-0.7,2.2c-0.1,0.4-0.3,0.7-0.5,1c-0.1,0.2-0.3,0.4-0.4,0.5c-0.1,0.1-0.2,0.2-0.4,0.2
			c-0.2,0.1-0.4,0.1-0.7,0.1c-0.2,0-0.3,0-0.5,0h-4.1v-7.8h1.7c0.2,0,0.3,0,0.5,0c0.2,0,0.3,0.1,0.4,0.1c0.1,0.1,0.3,0.2,0.4,0.3
			c0.2,0.2,0.4,0.5,0.5,0.8c0.2,0.4,0.3,0.7,0.4,1.1c0.1,0.4,0.2,0.7,0.2,1h0.5v-7.1H238c-0.1,0.3-0.1,0.7-0.2,1
			c-0.1,0.5-0.3,1-0.6,1.5c-0.2,0.3-0.4,0.5-0.6,0.6c-0.3,0.1-0.6,0.2-0.9,0.2h-1.8v-7.1h5c0.2,0,0.4,0.1,0.6,0.2
			C239.8,101.2,240,101.4,240.1,101.7L240.1,101.7z M201,114.1c0.1-0.4,0.2-0.9,0.2-1.4v-11.9h1.4v-0.5h-4.2v0.5h2.1v11.9
			c0,0.2,0,0.5-0.1,0.7c-0.1,1.1-0.8,2.1-1.8,2.7c-0.8,0.5-1.8,0.6-2.7,0.4c-0.7-0.1-1.4-0.6-1.8-1.2c-0.4-0.7-0.6-1.4-0.6-2.2
			v-12.3h1.7v-0.5h-5.7v0.5h1.4v11.7c0,0.7,0.1,1.3,0.4,1.9c0.2,0.6,0.6,1.1,1,1.5c0.7,0.6,1.6,1,2.6,1.1c0.4,0.1,0.7,0.1,1.1,0.1
			c0.6,0,1.1,0,1.7-0.1c0.7-0.1,1.4-0.5,2-0.9C200.3,115.6,200.8,114.9,201,114.1L201,114.1z M155.1,100.9h2.4v-0.5h-6.4v0.5h1.4
			v15.4h-1.4v0.5h11.5v-6.6h-0.5c-0.3,1.4-0.7,2.9-1.2,4.3c-0.2,0.5-0.4,0.9-0.7,1.3c-0.3,0.3-0.6,0.5-1,0.5h-4V100.9L155.1,100.9z
			 M85,115.8c-0.3,0.3-0.6,0.5-1,0.5h-4v-15.4h2.4v-0.5H76v0.5h1.4v15.4H76v0.5h11.5v-6.6h-0.5c-0.3,1.4-0.7,2.9-1.2,4.3
			C85.5,115,85.3,115.4,85,115.8L85,115.8z M42.7,108.4c1.3,0,2.6-0.4,3.8-1.2c0.4-0.3,0.8-0.8,1.1-1.2c0.5-1,0.5-2.2,0.1-3.2
			c-0.5-1-1.4-1.8-2.4-2.1c-0.7-0.2-1.5-0.3-2.2-0.4h-7.4v0.5H37v15.4h-1.4v0.5h5.8v-0.5h-1.8v-7.9h0.1l6.1,8.4h3.8v-0.5h-1.2
			L42.7,108.4L42.7,108.4z M216.8,108.4c1.3,0,2.6-0.4,3.8-1.2c0.4-0.3,0.8-0.8,1.1-1.2c0.5-1,0.5-2.2,0.1-3.2
			c-0.5-1-1.3-1.8-2.4-2.1c-0.7-0.2-1.5-0.3-2.2-0.4h-7.4v0.5h1.4v15.4h-1.4v0.5h5.8v-0.5h-1.8v-7.9h0.1l6,8.4h3.8v-0.5h-1.2
			L216.8,108.4L216.8,108.4z M216.1,100.9h-2.4v7.2h1c0.6,0,1.2,0,1.8-0.1c0.6-0.1,1.2-0.4,1.6-0.7c0.5-0.4,0.8-0.9,1-1.5
			c0.2-0.6,0.2-1.2,0.2-1.8c0-0.6-0.2-1.2-0.6-1.7c-0.3-0.5-0.8-0.9-1.4-1.1C216.9,101,216.5,100.9,216.1,100.9L216.1,100.9z
			 M40.5,108c0.6,0,1.2,0,1.8-0.1c0.6-0.1,1.2-0.4,1.6-0.7c0.5-0.4,0.8-0.9,1-1.5c0.2-0.6,0.2-1.2,0.2-1.8c0-0.6-0.2-1.2-0.6-1.7
			c-0.3-0.5-0.8-0.9-1.4-1.1c-0.4-0.1-0.8-0.2-1.2-0.2h-2.4v7.2H40.5L40.5,108z M102,100.9h-2.8v7.4h2.8c0.6,0,1.2-0.2,1.8-0.4
			c0.7-0.4,1.2-1.1,1.3-1.9c0.1-0.8,0.1-1.6,0-2.4c-0.1-0.8-0.5-1.5-1.2-2C103.3,101.1,102.6,100.9,102,100.9L102,100.9z
			 M104.1,100.6c-0.6-0.1-1.2-0.2-1.8-0.2h-7.1v0.5h1.4v15.4h-1.4v0.5h6.2v-0.5h-2.2v-7.5h3.1c0.5,0,1-0.1,1.4-0.1
			c0.4-0.1,0.8-0.2,1.2-0.3c0.4-0.1,0.8-0.3,1.1-0.5c0.7-0.4,1.3-1.1,1.5-1.9c0.3-0.8,0.3-1.6,0.1-2.4c-0.2-0.8-0.7-1.5-1.3-2
			C105.7,101.1,104.9,100.7,104.1,100.6L104.1,100.6z M56.1,116.3h-1.4v0.5h4.3v-0.5h-2.3l2.1-6.1h5l2,6.1h-1.8v0.5h5.3v-0.5h-0.9
			l-5.2-16.1h-1.5L56.1,116.3L56.1,116.3z M114.7,116.3v0.5h5.6v-0.5h-1.6v-7.8h6.3v7.8h-1.6v0.5h5.6v-0.5h-1.4v-15.4h1.4v-0.5h-5.6
			v0.5h1.6v7.1h-6.3v-7.1h1.6v-0.5h-5.6v0.5h1.4v15.4H114.7L114.7,116.3z M170.1,116.3h-1.4v0.5h4.3v-0.5h-2.3l2.1-6.1h5l1.9,6.1
			h-1.8v0.5h5.3v-0.5h-1l-5.2-16.1h-1.5L170.1,116.3L170.1,116.3z M249.6,100.3v0.5h1.6v15.4h-1.6v0.5h4.2v-0.5h-2v-15l9.2,15.5h0.8
			v-16h1.6v-0.5h-4.1v0.5h1.9v11.4c0,0-7.1-11.9-7.1-11.9H249.6L249.6,100.3z"/>
	</g>
</g>
</svg>
