<?xml version="1.0" encoding="utf-8"?>
<!-- Generator: Adobe Illustrator 21.0.2, SVG Export Plug-In . SVG Version: 6.00 Build 0)  -->
<svg version="1.1" xmlns="http://www.w3.org/2000/svg" xmlns:xlink="http://www.w3.org/1999/xlink" x="0px" y="0px"
	 viewBox="0 0 114.9 114.9" style="enable-background:new 0 0 114.9 114.9;" xml:space="preserve">
<style type="text/css">
	.st0{fill:#95C11F;}
	.st1{fill:none;stroke:#95C11F;stroke-width:2.000000e-02;}
	.st2{fill:#BDBCBC;}
	.st3{fill:none;stroke:#BDBCBC;stroke-width:2.000000e-02;}
	.st4{fill:none;stroke:#FFFFFF;stroke-miterlimit:10;}
</style>
<g id="Layer_1">
	<g>
		<rect x="7.9" y="7.9" width="99" height="99"/>
		<path class="st0" d="M99.5,52.3c-0.1-0.2-0.2-0.4-0.3-0.5c-0.1-0.1-0.3-0.2-0.5-0.3c-0.2-0.1-0.4-0.1-0.6-0.1
			c-0.2,0-0.4,0-0.6,0.1c-0.2,0.1-0.4,0.2-0.5,0.3c-0.1,0.1-0.2,0.3-0.3,0.5c-0.1,0.2-0.1,0.4-0.1,0.6c0,0.2,0,0.4,0.1,0.6
			c0.1,0.2,0.2,0.4,0.3,0.5c0.1,0.1,0.3,0.2,0.5,0.3c0.2,0.1,0.4,0.1,0.6,0.1c0.2,0,0.4,0,0.6-0.1c0.2-0.1,0.3-0.2,0.5-0.3
			c0.1-0.1,0.2-0.3,0.3-0.5c0.1-0.2,0.1-0.4,0.1-0.6C99.7,52.6,99.6,52.4,99.5,52.3 M99,53.8l-0.1-0.1L98.5,53c0,0,0,0,0,0
			c0.1,0,0.1-0.1,0.2-0.1c0,0,0.1-0.1,0.1-0.2c0-0.1,0-0.1,0-0.2c0-0.2-0.1-0.3-0.2-0.4C98.6,52,98.4,52,98.2,52h-0.5h-0.1v0.1v1.7
			v0.1h0.1h0.1h0.1v-0.1V53h0.3h0.1h0l0.5,0.7l0,0h0.1h0.1L99,53.8c-0.1,0.1-0.2,0.2-0.4,0.2c-0.2,0.1-0.3,0.1-0.5,0.1
			c-0.2,0-0.3,0-0.5-0.1c-0.2-0.1-0.3-0.2-0.4-0.3c-0.1-0.1-0.2-0.2-0.3-0.4c-0.1-0.2-0.1-0.3-0.1-0.5c0-0.2,0-0.3,0.1-0.5
			c0.1-0.2,0.2-0.3,0.3-0.4c0.1-0.1,0.3-0.2,0.4-0.3c0.2-0.1,0.3-0.1,0.5-0.1c0.2,0,0.3,0,0.5,0.1c0.2,0.1,0.3,0.2,0.4,0.3
			c0.1,0.1,0.2,0.2,0.3,0.4c0.1,0.2,0.1,0.3,0.1,0.5c0,0.2,0,0.3-0.1,0.5C99.2,53.5,99.1,53.6,99,53.8C99,53.8,99,53.8,99,53.8
			 M97.8,52.2h0.4c0.1,0,0.1,0,0.2,0c0,0,0.1,0,0.1,0c0,0,0.1,0,0.1,0.1c0,0,0,0.1,0,0.1c0,0.1,0,0.1,0,0.1c0,0-0.1,0.1-0.1,0.1
			c0,0-0.1,0-0.1,0c-0.1,0-0.1,0-0.2,0h-0.3V52.2z"/>
		<path class="st0" d="M86.1,55.7c-0.3-0.3-0.7-0.5-1.1-0.7c-0.4-0.2-0.9-0.2-1.4-0.2c-0.5,0-0.9,0.1-1.3,0.2
			c-0.4,0.1-0.7,0.3-1,0.6c-0.3,0.2-0.6,0.5-0.7,0.8c-0.1,0.1-0.1,0.2-0.2,0.3V55h-0.7v9.7h0.7v-5.5c0-0.5,0.1-1,0.2-1.5
			c0.1-0.5,0.3-0.9,0.6-1.2c0.3-0.3,0.6-0.6,1-0.8c0.4-0.2,0.9-0.3,1.4-0.3c0.4,0,0.8,0.1,1.1,0.2c0.3,0.1,0.6,0.3,0.9,0.5
			c0.3,0.2,0.5,0.5,0.6,0.9c0.1,0.4,0.2,0.8,0.2,1.3v6.3h0.7v-6.4c0-0.6-0.1-1.1-0.3-1.5C86.6,56.3,86.4,56,86.1,55.7"/>
		<path class="st1" d="M86.1,55.7c-0.3-0.3-0.7-0.5-1.1-0.7c-0.4-0.2-0.9-0.2-1.4-0.2c-0.5,0-0.9,0.1-1.3,0.2
			c-0.4,0.1-0.7,0.3-1,0.6c-0.3,0.2-0.6,0.5-0.7,0.8c-0.1,0.1-0.1,0.2-0.2,0.3V55h-0.7v9.7h0.7v-5.5c0-0.5,0.1-1,0.2-1.5
			c0.1-0.5,0.3-0.9,0.6-1.2c0.3-0.3,0.6-0.6,1-0.8c0.4-0.2,0.9-0.3,1.4-0.3c0.4,0,0.8,0.1,1.1,0.2c0.3,0.1,0.6,0.3,0.9,0.5
			c0.3,0.2,0.5,0.5,0.6,0.9c0.1,0.4,0.2,0.8,0.2,1.3v6.3h0.7v-6.4c0-0.6-0.1-1.1-0.3-1.5C86.6,56.3,86.4,56,86.1,55.7z"/>
		<path class="st0" d="M68.2,60c-0.3-0.2-0.6-0.3-1-0.4c-0.4-0.1-0.7-0.2-1.1-0.3l-1.3-0.3c-0.4-0.1-0.7-0.2-1.1-0.3
			c-0.3-0.1-0.5-0.3-0.7-0.5c-0.2-0.2-0.3-0.6-0.3-1c0-0.1,0-0.2,0.1-0.4c0-0.2,0.1-0.4,0.3-0.6c0.2-0.2,0.4-0.4,0.8-0.6
			c0.4-0.2,0.9-0.3,1.5-0.3c0.4,0,0.8,0,1.2,0.1c0.3,0.1,0.6,0.2,0.9,0.4c0.2,0.2,0.4,0.5,0.6,0.8c0.1,0.3,0.2,0.7,0.2,1.1v0.2H69
			v-0.2c0-1.1-0.3-1.9-1-2.4c-0.6-0.5-1.5-0.7-2.6-0.7c-0.6,0-1.1,0.1-1.5,0.2c-0.4,0.2-0.8,0.4-1,0.6c-0.3,0.2-0.5,0.5-0.6,0.8
			c-0.1,0.3-0.2,0.6-0.2,0.9c0,0.5,0.1,1,0.3,1.3c0.2,0.3,0.5,0.6,0.9,0.8c0.3,0.1,0.6,0.2,0.9,0.3c0.3,0.1,0.7,0.2,1.2,0.3l1.2,0.3
			c0.4,0.1,0.7,0.2,1,0.4c0.3,0.2,0.5,0.3,0.7,0.6c0.2,0.2,0.3,0.5,0.3,0.9c0,0.4-0.1,0.7-0.3,0.9c-0.2,0.3-0.4,0.5-0.7,0.6
			c-0.3,0.2-0.6,0.3-0.9,0.4C66.3,64,66,64,65.7,64c-1.1,0-1.9-0.2-2.5-0.7c-0.6-0.5-0.8-1.2-0.8-2.2V61h-0.7v0.2
			c0,1.2,0.3,2.1,1,2.7c0.7,0.6,1.7,0.9,3,0.9c0.4,0,0.8,0,1.3-0.1c0.4-0.1,0.8-0.3,1.1-0.5c0.3-0.2,0.6-0.5,0.8-0.9
			c0.2-0.4,0.3-0.8,0.3-1.3c0-0.5-0.1-0.9-0.3-1.2C68.8,60.5,68.5,60.2,68.2,60"/>
		<path class="st1" d="M68.2,60c-0.3-0.2-0.6-0.3-1-0.4c-0.4-0.1-0.7-0.2-1.1-0.3l-1.3-0.3c-0.4-0.1-0.7-0.2-1.1-0.3
			c-0.3-0.1-0.5-0.3-0.7-0.5c-0.2-0.2-0.3-0.6-0.3-1c0-0.1,0-0.2,0.1-0.4c0-0.2,0.1-0.4,0.3-0.6c0.2-0.2,0.4-0.4,0.8-0.6
			c0.4-0.2,0.9-0.3,1.5-0.3c0.4,0,0.8,0,1.2,0.1c0.3,0.1,0.6,0.2,0.9,0.4c0.2,0.2,0.4,0.5,0.6,0.8c0.1,0.3,0.2,0.7,0.2,1.1v0.2H69
			v-0.2c0-1.1-0.3-1.9-1-2.4c-0.6-0.5-1.5-0.7-2.6-0.7c-0.6,0-1.1,0.1-1.5,0.2c-0.4,0.2-0.8,0.4-1,0.6c-0.3,0.2-0.5,0.5-0.6,0.8
			c-0.1,0.3-0.2,0.6-0.2,0.9c0,0.5,0.1,1,0.3,1.3c0.2,0.3,0.5,0.6,0.9,0.8c0.3,0.1,0.6,0.2,0.9,0.3c0.3,0.1,0.7,0.2,1.2,0.3l1.2,0.3
			c0.4,0.1,0.7,0.2,1,0.4c0.3,0.2,0.5,0.3,0.7,0.6c0.2,0.2,0.3,0.5,0.3,0.9c0,0.4-0.1,0.7-0.3,0.9c-0.2,0.3-0.4,0.5-0.7,0.6
			c-0.3,0.2-0.6,0.3-0.9,0.4C66.3,64,66,64,65.7,64c-1.1,0-1.9-0.2-2.5-0.7c-0.6-0.5-0.8-1.2-0.8-2.2V61h-0.7v0.2
			c0,1.2,0.3,2.1,1,2.7c0.7,0.6,1.7,0.9,3,0.9c0.4,0,0.8,0,1.3-0.1c0.4-0.1,0.8-0.3,1.1-0.5c0.3-0.2,0.6-0.5,0.8-0.9
			c0.2-0.4,0.3-0.8,0.3-1.3c0-0.5-0.1-0.9-0.3-1.2C68.8,60.5,68.5,60.2,68.2,60z"/>
		<rect x="80.6" y="52.3" class="st0" width="5.3" height="0.6"/>
		<rect x="80.6" y="52.3" class="st1" width="5.3" height="0.7"/>
		<path class="st2" d="M26.5,52.3c-0.7-0.6-1.7-0.9-3-0.9H18v13.4h0.7v-5.9h4.6c0.6,0,1.2-0.1,1.7-0.2c0.5-0.2,1-0.4,1.4-0.7
			c0.4-0.3,0.7-0.7,0.9-1.2c0.2-0.5,0.3-1,0.3-1.6C27.6,53.8,27.2,52.9,26.5,52.3 M26.6,56.3c-0.2,0.4-0.4,0.7-0.7,0.9
			c-0.3,0.3-0.7,0.5-1.1,0.6c-0.4,0.1-0.9,0.2-1.4,0.2h-4.7V52h4.7c1.2,0,2,0.3,2.6,0.8c0.6,0.5,0.8,1.3,0.8,2.3
			C26.9,55.5,26.8,55.9,26.6,56.3 M28.6,53.5h0.7v-2.2h-0.7V53.5z M28.6,64.7h0.7V55h-0.7V64.7z"/>
		<path class="st3" d="M26.5,52.3c-0.7-0.6-1.7-0.9-3-0.9H18v13.4h0.7v-5.9h4.6c0.6,0,1.2-0.1,1.7-0.2c0.5-0.2,1-0.4,1.4-0.7
			c0.4-0.3,0.7-0.7,0.9-1.2c0.2-0.5,0.3-1,0.3-1.6C27.6,53.8,27.2,52.9,26.5,52.3z M26.6,56.3c-0.2,0.4-0.4,0.7-0.7,0.9
			c-0.3,0.3-0.7,0.5-1.1,0.6c-0.4,0.1-0.9,0.2-1.4,0.2h-4.7V52h4.7c1.2,0,2,0.3,2.6,0.8c0.6,0.5,0.8,1.3,0.8,2.3
			C26.9,55.5,26.8,55.9,26.6,56.3z M28.6,53.5h0.7v-2.2h-0.7V53.5z M28.6,64.7h0.7V55h-0.7V64.7z"/>
		<path class="st2" d="M36.9,60c-0.3-0.2-0.6-0.3-1-0.4c-0.4-0.1-0.7-0.2-1.1-0.3l-1.3-0.3c-0.4-0.1-0.7-0.2-1-0.3
			c-0.3-0.1-0.5-0.3-0.7-0.5c-0.2-0.2-0.2-0.6-0.2-1c0-0.1,0-0.2,0.1-0.4c0-0.2,0.1-0.4,0.3-0.6c0.2-0.2,0.4-0.4,0.8-0.6
			c0.4-0.2,0.9-0.3,1.5-0.3c0.4,0,0.8,0,1.2,0.1c0.3,0.1,0.7,0.2,0.9,0.4c0.2,0.2,0.4,0.5,0.6,0.8c0.1,0.3,0.2,0.7,0.2,1.1v0.2h0.7
			v-0.2c0-1.1-0.3-1.9-1-2.4c-0.6-0.5-1.5-0.7-2.6-0.7c-0.6,0-1.1,0.1-1.5,0.2c-0.4,0.2-0.8,0.4-1,0.6c-0.3,0.2-0.5,0.5-0.6,0.8
			c-0.1,0.3-0.2,0.6-0.2,0.9c0,0.5,0.1,1,0.3,1.3c0.2,0.3,0.5,0.6,0.9,0.8c0.3,0.1,0.6,0.2,0.9,0.3c0.3,0.1,0.7,0.2,1.2,0.3l1.2,0.3
			c0.4,0.1,0.7,0.2,1,0.4c0.3,0.2,0.5,0.3,0.7,0.6c0.2,0.2,0.3,0.5,0.3,0.9c0,0.4-0.1,0.7-0.3,0.9c-0.2,0.3-0.4,0.5-0.7,0.6
			c-0.3,0.2-0.6,0.3-0.9,0.4C35,64,34.7,64,34.3,64c-1.1,0-1.9-0.2-2.5-0.7c-0.6-0.5-0.8-1.2-0.8-2.2V61h-0.7v0.2
			c0,1.2,0.3,2.1,1,2.7c0.7,0.6,1.7,0.9,3,0.9c0.4,0,0.8,0,1.3-0.1c0.4-0.1,0.8-0.3,1.2-0.5c0.3-0.2,0.6-0.5,0.8-0.9
			c0.2-0.4,0.3-0.8,0.3-1.3c0-0.5-0.1-0.9-0.3-1.2C37.4,60.5,37.2,60.2,36.9,60 M47.2,57.7c-0.2-0.6-0.5-1.1-0.8-1.6
			C46,55.6,45.5,55.3,45,55c-0.5-0.3-1.2-0.4-1.9-0.4c-0.7,0-1.4,0.1-1.9,0.4c-0.5,0.3-1,0.7-1.4,1.1c-0.4,0.5-0.7,1-0.8,1.6
			c-0.2,0.6-0.3,1.2-0.3,1.9c0,0.7,0.1,1.3,0.3,1.9c0.2,0.6,0.5,1.1,0.8,1.6c0.4,0.5,0.8,0.8,1.4,1.1c0.5,0.3,1.2,0.4,1.9,0.4
			c0.7,0,1.4-0.1,1.9-0.4c0.5-0.3,1-0.7,1.4-1.1c0.4-0.5,0.7-1,0.8-1.6c0.2-0.6,0.3-1.2,0.3-1.9C47.5,59,47.4,58.3,47.2,57.7
			 M46.5,61.3c-0.2,0.5-0.4,1-0.7,1.4c-0.3,0.4-0.7,0.7-1.2,1c-0.5,0.2-1,0.4-1.6,0.4c-0.6,0-1.1-0.1-1.6-0.4
			c-0.5-0.2-0.8-0.6-1.2-1c-0.3-0.4-0.6-0.9-0.7-1.4c-0.2-0.5-0.2-1.1-0.2-1.7c0-0.6,0.1-1.1,0.2-1.7c0.2-0.5,0.4-1,0.7-1.4
			c0.3-0.4,0.7-0.7,1.2-1c0.5-0.2,1-0.4,1.6-0.4c0.6,0,1.1,0.1,1.6,0.4c0.5,0.2,0.8,0.6,1.2,1c0.3,0.4,0.6,0.9,0.7,1.4
			c0.2,0.5,0.2,1.1,0.2,1.7C46.8,60.2,46.7,60.8,46.5,61.3"/>
		<path class="st3" d="M36.9,60c-0.3-0.2-0.6-0.3-1-0.4c-0.4-0.1-0.7-0.2-1.1-0.3l-1.3-0.3c-0.4-0.1-0.7-0.2-1-0.3
			c-0.3-0.1-0.5-0.3-0.7-0.5c-0.2-0.2-0.2-0.6-0.2-1c0-0.1,0-0.2,0.1-0.4c0-0.2,0.1-0.4,0.3-0.6c0.2-0.2,0.4-0.4,0.8-0.6
			c0.4-0.2,0.9-0.3,1.5-0.3c0.4,0,0.8,0,1.2,0.1c0.3,0.1,0.7,0.2,0.9,0.4c0.2,0.2,0.4,0.5,0.6,0.8c0.1,0.3,0.2,0.7,0.2,1.1v0.2h0.7
			v-0.2c0-1.1-0.3-1.9-1-2.4c-0.6-0.5-1.5-0.7-2.6-0.7c-0.6,0-1.1,0.1-1.5,0.2c-0.4,0.2-0.8,0.4-1,0.6c-0.3,0.2-0.5,0.5-0.6,0.8
			c-0.1,0.3-0.2,0.6-0.2,0.9c0,0.5,0.1,1,0.3,1.3c0.2,0.3,0.5,0.6,0.9,0.8c0.3,0.1,0.6,0.2,0.9,0.3c0.3,0.1,0.7,0.2,1.2,0.3l1.2,0.3
			c0.4,0.1,0.7,0.2,1,0.4c0.3,0.2,0.5,0.3,0.7,0.6c0.2,0.2,0.3,0.5,0.3,0.9c0,0.4-0.1,0.7-0.3,0.9c-0.2,0.3-0.4,0.5-0.7,0.6
			c-0.3,0.2-0.6,0.3-0.9,0.4C35,64,34.7,64,34.3,64c-1.1,0-1.9-0.2-2.5-0.7c-0.6-0.5-0.8-1.2-0.8-2.2V61h-0.7v0.2
			c0,1.2,0.3,2.1,1,2.7c0.7,0.6,1.7,0.9,3,0.9c0.4,0,0.8,0,1.3-0.1c0.4-0.1,0.8-0.3,1.2-0.5c0.3-0.2,0.6-0.5,0.8-0.9
			c0.2-0.4,0.3-0.8,0.3-1.3c0-0.5-0.1-0.9-0.3-1.2C37.4,60.5,37.2,60.2,36.9,60z M47.2,57.7c-0.2-0.6-0.5-1.1-0.8-1.6
			C46,55.6,45.5,55.3,45,55c-0.5-0.3-1.2-0.4-1.9-0.4c-0.7,0-1.4,0.1-1.9,0.4c-0.5,0.3-1,0.7-1.4,1.1c-0.4,0.5-0.7,1-0.8,1.6
			c-0.2,0.6-0.3,1.2-0.3,1.9c0,0.7,0.1,1.3,0.3,1.9c0.2,0.6,0.5,1.1,0.8,1.6c0.4,0.5,0.8,0.8,1.4,1.1c0.5,0.3,1.2,0.4,1.9,0.4
			c0.7,0,1.4-0.1,1.9-0.4c0.5-0.3,1-0.7,1.4-1.1c0.4-0.5,0.7-1,0.8-1.6c0.2-0.6,0.3-1.2,0.3-1.9C47.5,59,47.4,58.3,47.2,57.7z
			 M46.5,61.3c-0.2,0.5-0.4,1-0.7,1.4c-0.3,0.4-0.7,0.7-1.2,1c-0.5,0.2-1,0.4-1.6,0.4c-0.6,0-1.1-0.1-1.6-0.4
			c-0.5-0.2-0.8-0.6-1.2-1c-0.3-0.4-0.6-0.9-0.7-1.4c-0.2-0.5-0.2-1.1-0.2-1.7c0-0.6,0.1-1.1,0.2-1.7c0.2-0.5,0.4-1,0.7-1.4
			c0.3-0.4,0.7-0.7,1.2-1c0.5-0.2,1-0.4,1.6-0.4c0.6,0,1.1,0.1,1.6,0.4c0.5,0.2,0.8,0.6,1.2,1c0.3,0.4,0.6,0.9,0.7,1.4
			c0.2,0.5,0.2,1.1,0.2,1.7C46.8,60.2,46.7,60.8,46.5,61.3z"/>
		<path class="st0" d="M57.1,52.7c-0.5-0.5-1.2-0.9-1.8-1.1c-0.7-0.2-1.4-0.3-2-0.3h-4.7v13.4h4.2c0.8,0,1.6-0.1,2.3-0.4
			c0.7-0.2,1.4-0.6,2-1.2c0.6-0.5,1.1-1.2,1.4-2.1c0.3-0.8,0.5-1.9,0.5-3.1c0-1.3-0.2-2.4-0.5-3.2C58.1,53.9,57.6,53.2,57.1,52.7
			 M57.8,60.7c-0.3,0.8-0.7,1.4-1.2,1.9c-0.5,0.5-1.1,0.9-1.8,1.1c-0.7,0.2-1.4,0.4-2.1,0.4h-3.6V52h4c0.6,0,1.3,0.1,1.9,0.3
			c0.6,0.2,1.1,0.5,1.6,0.9c0.5,0.5,0.9,1.1,1.2,1.8c0.3,0.8,0.4,1.8,0.4,3C58.2,59,58.1,59.9,57.8,60.7 M60,53.5h0.7v-2.2H60V53.5z
			 M60,64.7h0.7V55H60V64.7z"/>
		<path class="st1" d="M57.1,52.7c-0.5-0.5-1.2-0.9-1.9-1.1c-0.7-0.2-1.4-0.3-2-0.3h-4.7v13.4h4.2c0.8,0,1.6-0.1,2.3-0.4
			c0.7-0.2,1.4-0.6,2-1.2c0.6-0.5,1.1-1.2,1.4-2.1c0.3-0.8,0.5-1.9,0.5-3.1c0-1.3-0.2-2.4-0.5-3.2C58.1,53.9,57.6,53.2,57.1,52.7z
			 M57.8,60.7c-0.3,0.8-0.7,1.4-1.2,1.9c-0.5,0.5-1.1,0.9-1.8,1.1c-0.7,0.2-1.4,0.4-2.1,0.4h-3.6V52h4c0.6,0,1.3,0.1,1.9,0.3
			c0.6,0.2,1.1,0.5,1.6,0.9c0.5,0.5,0.9,1.1,1.2,1.8c0.3,0.8,0.4,1.8,0.4,3C58.2,59,58.1,59.9,57.8,60.7z M60,53.5h0.7v-2.2H60V53.5
			z M60,64.7h0.7V55H60V64.7z"/>
		<path class="st0" d="M73.2,59.8h5.5c0-0.1,0-0.1,0-0.2c0-0.7-0.1-1.3-0.3-1.9c-0.2-0.6-0.5-1.1-0.8-1.6c-0.4-0.5-0.8-0.8-1.4-1.1
			c-0.5-0.3-1.2-0.4-1.9-0.4c-0.7,0-1.4,0.1-1.9,0.4c-0.5,0.3-1,0.7-1.4,1.1c-0.4,0.5-0.7,1-0.8,1.6c-0.2,0.6-0.3,1.2-0.3,1.9
			c0,0.7,0.1,1.3,0.3,1.9c0.2,0.6,0.5,1.1,0.8,1.6c0.4,0.5,0.8,0.8,1.4,1.1c0.5,0.3,1.2,0.4,1.9,0.4c0.7,0,1.4-0.1,1.9-0.4
			c0.5-0.3,1-0.7,1.4-1.1c0.4-0.5,0.7-1,0.8-1.6c0.1-0.2,0.1-0.4,0.2-0.6h-0.7c0,0.1-0.1,0.3-0.1,0.4c-0.2,0.5-0.4,1-0.7,1.4
			c-0.3,0.4-0.7,0.7-1.2,1c-0.5,0.2-1,0.4-1.6,0.4c-0.6,0-1.1-0.1-1.6-0.4c-0.5-0.2-0.8-0.6-1.2-1c-0.3-0.4-0.6-0.9-0.7-1.4
			c-0.2-0.5-0.2-1.1-0.2-1.7c0-0.6,0.1-1.1,0.2-1.7c0.2-0.5,0.4-1,0.7-1.4c0.3-0.4,0.7-0.7,1.2-1c0.5-0.2,1-0.4,1.6-0.4
			c0.6,0,1.1,0.1,1.6,0.4c0.5,0.2,0.8,0.6,1.2,1c0.3,0.4,0.6,0.9,0.7,1.4c0.1,0.4,0.2,0.8,0.2,1.2h-4.8V59.8z"/>
		<path class="st1" d="M73.2,59.8h5.5c0-0.1,0-0.1,0-0.2c0-0.7-0.1-1.3-0.3-1.9c-0.2-0.6-0.5-1.1-0.8-1.6c-0.4-0.5-0.8-0.8-1.4-1.1
			c-0.5-0.3-1.2-0.4-1.9-0.4c-0.7,0-1.4,0.1-1.9,0.4c-0.5,0.3-1,0.7-1.4,1.1c-0.4,0.5-0.7,1-0.8,1.6c-0.2,0.6-0.3,1.2-0.3,1.9
			c0,0.7,0.1,1.3,0.3,1.9c0.2,0.6,0.5,1.1,0.8,1.6c0.4,0.5,0.8,0.8,1.4,1.1c0.5,0.3,1.2,0.4,1.9,0.4c0.7,0,1.4-0.1,1.9-0.4
			c0.5-0.3,1-0.7,1.4-1.1c0.4-0.5,0.7-1,0.8-1.6c0.1-0.2,0.1-0.4,0.2-0.6h-0.7c0,0.1-0.1,0.3-0.1,0.4c-0.2,0.5-0.4,1-0.7,1.4
			c-0.3,0.4-0.7,0.7-1.2,1c-0.5,0.2-1,0.4-1.6,0.4c-0.6,0-1.1-0.1-1.6-0.4c-0.5-0.2-0.8-0.6-1.2-1c-0.3-0.4-0.6-0.9-0.7-1.4
			c-0.2-0.5-0.2-1.1-0.2-1.7c0-0.6,0.1-1.1,0.2-1.7c0.2-0.5,0.4-1,0.7-1.4c0.3-0.4,0.7-0.7,1.2-1c0.5-0.2,1-0.4,1.6-0.4
			c0.6,0,1.1,0.1,1.6,0.4c0.5,0.2,0.8,0.6,1.2,1c0.3,0.4,0.6,0.9,0.7,1.4c0.1,0.4,0.2,0.8,0.2,1.2h-4.8V59.8z"/>
		<path class="st0" d="M96.4,57.7c-0.2-0.6-0.5-1.1-0.8-1.6c-0.4-0.5-0.8-0.8-1.4-1.1c-0.5-0.3-1.2-0.4-1.9-0.4
			c-0.7,0-1.4,0.1-1.9,0.4c-0.5,0.3-1,0.7-1.4,1.1c-0.4,0.5-0.7,1-0.8,1.6c-0.2,0.6-0.3,1.2-0.3,1.9c0,0.7,0.1,1.3,0.3,1.9
			c0.2,0.6,0.5,1.1,0.8,1.6c0.4,0.5,0.8,0.8,1.4,1.1c0.5,0.3,1.2,0.4,1.9,0.4c0.7,0,1.4-0.1,1.9-0.4c0.5-0.3,1-0.7,1.4-1.1
			c0.4-0.5,0.7-1,0.8-1.6c0.2-0.6,0.3-1.2,0.3-1.9C96.7,59,96.6,58.3,96.4,57.7 M95.8,61.3c-0.2,0.5-0.4,1-0.7,1.4
			c-0.3,0.4-0.7,0.7-1.2,1c-0.5,0.2-1,0.4-1.6,0.4c-0.6,0-1.1-0.1-1.6-0.4c-0.5-0.2-0.8-0.6-1.2-1c-0.3-0.4-0.6-0.9-0.7-1.4
			c-0.2-0.5-0.2-1.1-0.2-1.7c0-0.6,0.1-1.1,0.2-1.7c0.2-0.5,0.4-1,0.7-1.4c0.3-0.4,0.7-0.7,1.2-1c0.5-0.2,1-0.4,1.6-0.4
			c0.6,0,1.1,0.1,1.6,0.4c0.5,0.2,0.8,0.6,1.2,1c0.3,0.4,0.6,0.9,0.7,1.4c0.2,0.5,0.2,1.1,0.2,1.7C96,60.2,95.9,60.8,95.8,61.3"/>
		<path class="st1" d="M96.4,57.7c-0.2-0.6-0.5-1.1-0.8-1.6c-0.4-0.5-0.8-0.8-1.4-1.1c-0.5-0.3-1.2-0.4-1.9-0.4
			c-0.7,0-1.4,0.1-1.9,0.4c-0.5,0.3-1,0.7-1.4,1.1c-0.4,0.5-0.7,1-0.8,1.6c-0.2,0.6-0.3,1.2-0.3,1.9c0,0.7,0.1,1.3,0.3,1.9
			c0.2,0.6,0.5,1.1,0.8,1.6c0.4,0.5,0.8,0.8,1.4,1.1c0.5,0.3,1.2,0.4,1.9,0.4c0.7,0,1.4-0.1,1.9-0.4c0.5-0.3,1-0.7,1.4-1.1
			c0.4-0.5,0.7-1,0.8-1.6c0.2-0.6,0.3-1.2,0.3-1.9C96.7,59,96.6,58.3,96.4,57.7z M95.8,61.3c-0.2,0.5-0.4,1-0.7,1.4
			c-0.3,0.4-0.7,0.7-1.2,1c-0.5,0.2-1,0.4-1.6,0.4c-0.6,0-1.1-0.1-1.6-0.4c-0.5-0.2-0.8-0.6-1.2-1c-0.3-0.4-0.6-0.9-0.7-1.4
			c-0.2-0.5-0.2-1.1-0.2-1.7c0-0.6,0.1-1.1,0.2-1.7c0.2-0.5,0.4-1,0.7-1.4c0.3-0.4,0.7-0.7,1.2-1c0.5-0.2,1-0.4,1.6-0.4
			c0.6,0,1.1,0.1,1.6,0.4c0.5,0.2,0.8,0.6,1.2,1c0.3,0.4,0.6,0.9,0.7,1.4c0.2,0.5,0.2,1.1,0.2,1.7C96,60.2,95.9,60.8,95.8,61.3z"/>
	</g>
</g>
<g id="Capa_3">
	<rect x="0.5" y="0.5" class="st4" width="113.9" height="113.9"/>
</g>
</svg>
