<?xml version="1.0" encoding="utf-8"?>
<!-- Generator: Adobe Illustrator 21.0.2, SVG Export Plug-In . SVG Version: 6.00 Build 0)  -->
<svg version="1.1" id="Capa_1" xmlns="http://www.w3.org/2000/svg" xmlns:xlink="http://www.w3.org/1999/xlink" x="0px" y="0px"
	 viewBox="0 0 393 167.9" style="enable-background:new 0 0 393 167.9;" xml:space="preserve">
<style type="text/css">
	.st0{fill:#FFFFFF;}
	.st1{clip-path:url(#XMLID_2_);fill:#FFFFFF;}
	.st2{clip-path:url(#XMLID_4_);fill:#FFFFFF;}
</style>
<g>
	<g>
		<path class="st0" d="M28.1,111.4H15.2v41.1c0,9.5,4.5,10.4,12.7,10.2v3.8c-8.9,0.6-17.5-0.7-17.1-14v-41.1H0v-3.8h10.9V89.3h4.4
			v18.3h12.8V111.4z"/>
		<path class="st0" d="M39.8,120.7h0.3c2.3-7.7,11.9-13.9,22.6-13.4v4.4c-4.6-0.6-11,0.6-16.3,5.7c-4.3,4.5-6.2,8.1-6.6,17v32.2
			h-4.3v-58.9h4.3V120.7z"/>
		<path class="st0" d="M107.2,155.6c0,3.4,0,7.1,3.9,7.1c0.8,0,1.8-0.1,3.2-0.3v3.7c-1.3,0.2-2.4,0.5-3.6,0.5
			c-6.9,0-7.9-3.8-7.9-8.6v-3.1h-0.2c-2.8,7-10.7,13.1-21.9,13.1c-11.1,0-19.7-4.2-19.7-16.6c0-13.8,11.9-16.6,21.7-17.4
			c19.5-1.4,20.3-2.6,20.3-12.3c0-2.6-3-11.6-16.4-11.6c-10.5,0-17.5,5.5-18.1,15.7h-4.4c0.6-13,8.6-19.5,22.5-19.5
			c10.3,0,20.6,3.2,20.6,15.4V155.6z M102.9,133.1c-3.4,3.9-12.8,3.4-21.3,4.6c-10.3,1.2-16.1,4.8-16.1,13.6
			c0,7.1,5.2,12.8,15.5,12.8c19.8,0,22-17,22-20.1V133.1z"/>
		<path class="st0" d="M143,166.5h-5.4l-23.7-58.9h5l21.3,53.9h0.2l19.9-53.9h4.8L143,166.5z"/>
		<path class="st0" d="M170.5,137.7c-0.2,13.9,7.1,26.5,21.6,26.5c11.1,0,19-6.6,21.1-17.5h4.4c-2.3,13.7-11.5,21.3-25.4,21.3
			c-17.2,0-26.2-13.5-26-29.8c-0.2-16.2,8.3-31.8,26-31.8c18.4,0,26.7,14.6,25.9,31.4H170.5z M213.7,133.9
			c-0.2-12.4-8-23.8-21.5-23.8c-13.1,0-20.7,12.1-21.6,23.8H213.7z"/>
		<g>
			<path class="st0" d="M231.7,84.7v81.8h-4.4V84.7H231.7z"/>
			<path class="st0" d="M248.6,84.7v81.8h-4.4V84.7H248.6z"/>
		</g>
		<path class="st0" d="M261.2,137.7c-0.2,13.9,7.1,26.5,21.7,26.5c11.1,0,19-6.6,21.1-17.5h4.4c-2.3,13.7-11.5,21.3-25.4,21.3
			c-17.2,0-26.2-13.5-26-29.8c-0.2-16.2,8.2-31.8,26-31.8c18.4,0,26.7,14.6,25.9,31.4H261.2z M304.4,133.9
			c-0.2-12.4-8-23.8-21.5-23.8c-13.1,0-20.7,12.1-21.7,23.8H304.4z"/>
		<path class="st0" d="M323.2,120.7h0.3c2.3-7.7,11.9-13.9,22.6-13.4v4.4c-4.6-0.6-11,0.6-16.3,5.7c-4.4,4.5-6.2,8.1-6.6,17v32.2
			h-4.4v-58.9h4.4V120.7z"/>
		<path class="st0" d="M350.5,146.9c0.7,10.9,8.8,17.2,19.5,17.2c7.7,0,18.7-2.3,18.7-12.5c0-10-10.1-11.5-20.2-13.5
			c-10.2-2.1-20.3-4.7-20.3-16.7c0-11.7,11.3-15.1,21.3-15.1c12.5,0,21.8,5.4,21.8,18.8h-4.3c-0.1-10.7-7.6-15-17.4-15
			c-8,0-17,3-17,11.3c0,9.4,10.1,10.9,19.6,12.9c11.7,2.2,20.9,4.9,20.9,17.3c0,12.7-12.7,16.3-23,16.3c-13.4,0-23.5-7.2-23.8-21
			H350.5z"/>
	</g>
	<g>
		<path id="XMLID_120_" class="st0" d="M172.9,40.1c-0.7,6.1-6.1,10.5-12.2,9.9c-6.1-0.7-10.5-6.1-9.9-12.2
			c0.7-6.1,6.1-10.5,12.2-9.9C169.1,28.5,173.5,34,172.9,40.1"/>
		<g id="XMLID_117_">
			<defs>
				<path id="XMLID_118_" d="M137.2,12.1c-0.4,3.3,2.1,6.3,5.4,6.7c3.3,0.4,6.3-2,6.7-5.4c0.4-3.3-2.1-6.3-5.4-6.7
					C140.5,6.3,137.5,8.7,137.2,12.1"/>
			</defs>
			<use xlink:href="#XMLID_118_"  style="overflow:visible;fill:#FFFFFF;"/>
			<clipPath id="XMLID_2_">
				<use xlink:href="#XMLID_118_"  style="overflow:visible;"/>
			</clipPath>
			<polygon id="XMLID_119_" class="st1" points="137.8,6 149.9,7.3 148.6,19.4 136.5,18.1 			"/>
		</g>
		<path id="XMLID_116_" class="st0" d="M144.8,84.7c-0.3,2.9-2.9,5-5.8,4.7c-2.9-0.3-5-2.9-4.7-5.8c0.3-2.9,2.9-5,5.8-4.7
			C143,79.3,145.1,81.9,144.8,84.7"/>
		<g id="XMLID_114_">
			<defs>
				<path id="XMLID_115_" d="M49.1,15.5c-1,9.5,5.9,18.1,15.4,19.1c9.5,1,18.1-5.9,19.1-15.4c1-9.5-5.9-18.1-15.4-19.1
					C58.7-0.9,50.2,6,49.1,15.5"/>
			</defs>
			<use xlink:href="#XMLID_115_"  style="overflow:visible;fill:#FFFFFF;"/>
			<clipPath id="XMLID_3_">
				<use xlink:href="#XMLID_115_"  style="overflow:visible;"/>
			</clipPath>
		</g>
		<path id="XMLID_113_" class="st0" d="M83.3,75.9c5.4,0.6,10.3-3.3,10.9-8.8c0.6-5.4-3.3-10.3-8.8-10.9C80,55.6,75.1,59.5,74.5,65
			C74,70.4,77.9,75.3,83.3,75.9"/>
		<g id="XMLID_110_">
			<defs>
				<path id="XMLID_111_" d="M107.4,32.5c-0.5,4.3,2.7,8.2,7,8.7c4.3,0.5,8.2-2.7,8.7-7c0.5-4.3-2.7-8.2-7-8.7
					C111.8,25.1,107.9,28.2,107.4,32.5"/>
			</defs>
			<use xlink:href="#XMLID_111_"  style="overflow:visible;fill:#FFFFFF;"/>
			<clipPath id="XMLID_4_">
				<use xlink:href="#XMLID_111_"  style="overflow:visible;"/>
			</clipPath>
			<polygon id="XMLID_112_" class="st2" points="108.3,24.7 124,26.4 122.3,42.1 106.6,40.4 			"/>
		</g>
		<path id="XMLID_109_" class="st0" d="M121.6,64.8c-0.2,2.1-2.1,3.6-4.2,3.4c-2.1-0.2-3.7-2.1-3.4-4.2c0.2-2.1,2.1-3.7,4.2-3.4
			C120.3,60.8,121.8,62.7,121.6,64.8"/>
	</g>
</g>
</svg>
