<?xml version="1.0" encoding="utf-8"?>
<!-- Generator: Adobe Illustrator 21.0.2, SVG Export Plug-In . SVG Version: 6.00 Build 0)  -->
<svg version="1.1" id="Layer_1" xmlns="http://www.w3.org/2000/svg" xmlns:xlink="http://www.w3.org/1999/xlink" x="0px" y="0px"
	 viewBox="0 0 1370.5 944.8" style="enable-background:new 0 0 1370.5 944.8;" xml:space="preserve">
<style type="text/css">
	.st0{fill:#FFFFFF;}
</style>
<path class="st0" d="M629.6,27.1c216.8,0,251.3,131.2,251.3,302c0,52.6-1.9,115.2-13.5,173.9h131c18.5-46.9,28-96.9,27.9-147.3
	c0-127.8-53.1-239.6-163.5-307.8C807.6,13.9,750.3,0,633.5,0h-3.9L629.6,27.1L629.6,27.1z M855.1,551.3c-0.2,0.8-0.5,1.7-0.7,2.5
	c-45.7,139.5-138,131-272.9,131V0H341.5v26.6l104,0v658.3h-104v26.6h255.9c88.1,0,179.4,2.1,260.1-42.6
	c50.3-27.9,89.6-69.2,117.5-117.6L855.1,551.3L855.1,551.3z M747.7,902.4v-0.3c0-26.3,19.1-41.8,38.3-41.8
	c14.9,0,24.5,8.1,30.7,17.1v-48.5h11.9v113.4h-11.9v-16.2c-6.5,9.6-15.9,17.9-30.7,17.9C766.7,944.1,747.7,928.8,747.7,902.4
	 M817.1,902.3V902c0-18.5-14.1-30.9-29-30.9c-15.5,0-28.2,11.5-28.2,30.9v0.3c0,19,13,31.1,28.2,31.1
	C803,933.4,817.1,920.8,817.1,902.3 M877.9,933.8c11,0,18.8-4.5,25.3-11.4l7.4,6.7c-8,9-17.8,15.1-33,15.1c-22,0-40-16.9-40-42
	c0-23.3,16.3-42,38.4-42c23.7,0,37.3,19,37.3,42.6c0,1.1,0,2.3-0.1,4.2h-63.5C851.4,924,863.8,933.8,877.9,933.8 M901.3,897.5
	c-1.4-14.6-9.8-27.1-25.6-27.1c-13.8,0-24.3,11.5-26,27.1H901.3L901.3,897.5z M0,828.9h39.5c35.7,0,60.3,24.6,60.3,56.7v0.3
	c0,32.1-24.7,57-60.3,57H0L0,828.9L0,828.9z M39.5,931c28.7,0,47-19.5,47-44.8v-0.3c0-25.2-18.3-45.1-47-45.1H12.8V931L39.5,931
	L39.5,931z M118.3,828.9h12.8v113.9h-12.8V828.9z M147.2,926.3l7.9-9.4c11.8,10.7,23.2,16.1,38.9,16.1c15.3,0,25.3-8.1,25.3-19.4
	v-0.3c0-10.6-5.7-16.6-29.5-21.6c-26.1-5.7-38.1-14.2-38.1-32.9v-0.3c0-17.9,15.7-31.1,37.3-31.1c16.6,0,28.4,4.7,39.9,14l-7.5,9.9
	c-10.6-8.6-21.1-12.4-32.8-12.4c-14.8,0-24.2,8.2-24.2,18.4v0.3c0,10.8,5.8,16.8,30.8,22.2c25.3,5.5,37,14.8,37,32.2v0.3
	c0,19.5-16.2,32.2-38.8,32.2C175.5,944.5,160.8,938.5,147.2,926.3 M276.3,840.8h-38.1v-11.9h89.2v11.9h-38.1v102.1h-13L276.3,840.8
	L276.3,840.8z M341.7,828.9h48.8c13.9,0,25.1,4.2,32.3,11.4c5.5,5.5,8.8,13.5,8.8,22.5v0.3c0,18.9-13,29.9-30.8,33.2l34.9,46.6
	h-15.8l-32.9-44.3h-32.4v44.3h-12.8L341.7,828.9L341.7,828.9z M389.4,887c17,0,29.2-8.8,29.2-23.4v-0.3c0-14-10.7-22.5-29.1-22.5
	h-35V887L389.4,887L389.4,887z M450.4,828.9h12.8v113.9h-12.8L450.4,828.9L450.4,828.9z M516.7,840.8h-38.1v-11.9h89.3v11.9h-38.1
	v102.1h-13L516.7,840.8L516.7,840.8z M569.3,886.2v-0.3c0-31.4,23.5-58.9,58.1-58.9c34.5,0,57.7,27.2,57.7,58.6v0.3
	c0,31.4-23.5,58.9-58.1,58.9S569.3,917.6,569.3,886.2 M671.8,886.2v-0.3c0-25.9-18.8-47.1-44.8-47.1s-44.5,20.8-44.5,46.7v0.3
	c0,25.9,18.8,47.1,44.8,47.1C653.3,932.9,671.8,912.1,671.8,886.2 M982.1,828.9h12.8V931h63.9v11.9h-76.7L982.1,828.9L982.1,828.9z
	 M1067.8,895.2v-66.2h12.8v65.5c0,24.6,13,38.4,34.7,38.4c20.9,0,34.2-12.7,34.2-37.6v-66.2h12.8v65.3c0,33.2-19,50.5-47.4,50.5
	C1086.9,944.7,1067.8,927.4,1067.8,895.2 M1168.7,924.3l9.2-8c7,10.6,14.1,16.3,26,16.3c12.8,0,22.2-9.3,22.2-27.4v-76.3h13v76.2
	c0,13.4-3.9,23.4-10.4,30c-6.3,6.2-14.9,9.4-25,9.4C1186.7,944.5,1175.8,936,1168.7,924.3 M1254.7,886.2v-0.3
	c0-31.4,23.6-58.9,58.1-58.9c34.6,0,57.8,27.2,57.8,58.6v0.3c0,31.4-23.5,58.9-58.1,58.9S1254.7,917.6,1254.7,886.2 M1357.2,886.2
	v-0.3c0-25.9-18.8-47.1-44.8-47.1c-25.9,0-44.4,20.8-44.4,46.7v0.3c0,25.9,18.8,47.1,44.8,47.1
	C1338.7,932.9,1357.2,912.1,1357.2,886.2"/>
</svg>
