<?xml version="1.0" encoding="utf-8"?>
<!-- Generator: Adobe Illustrator 21.0.2, SVG Export Plug-In . SVG Version: 6.00 Build 0)  -->
<svg version="1.1" id="Capa_1" xmlns="http://www.w3.org/2000/svg" xmlns:xlink="http://www.w3.org/1999/xlink" x="0px" y="0px"
	 viewBox="0 0 488 180" style="enable-background:new 0 0 488 180;" xml:space="preserve">
<style type="text/css">
	.st0{fill:#C4291B;}
</style>
<g id="XMLID_1_">
	<g id="XMLID_73_">
		<path id="XMLID_100_" class="st0" d="M419.3,136.6c21.2,0,42.2,0,63.2,0c0-5.2,0-10.2,0-15.4c-21.2,0-42.2,0-63.3,0
			c0-8.4,0-16.6,0-25.1c21.6,0,43.1,0,64.6,0c0-5.1,0-10,0-15c-27.1,0-54.2,0-81.4,0c0,32.4,0,64.6,0,96.8c27.9,0,55.6,0,83.4,0
			c0-5.2,0-10.1,0-15.3c-22.3,0-44.5,0-66.5,0C419.3,153.8,419.3,145.3,419.3,136.6z"/>
		<path id="XMLID_97_" class="st0" d="M193,116.3c-7.9-17.9-15.8-35.8-23.6-53.7c-0.6-1.3-1.2-1.8-2.5-1.7c-2.9,0.1-5.7,0.1-8.6,0
			c-1.4-0.1-2.2,0.4-2.7,1.8c-2.7,6.3-5.4,12.6-8.1,18.9c-13.6,31.4-27.3,62.9-40.9,94.3c-0.3,0.6-0.5,1.3-0.8,2.2
			c5.4,0,10.4-0.1,15.5,0c1.5,0,2.1-0.5,2.7-1.8c4.3-10.2,8.8-20.3,13.1-30.5c0.7-1.7,1.6-2.2,3.5-2.2c15,0.1,30.1,0.1,45.1,0
			c1.5,0,2.2,0.4,2.9,1.8c4.4,10.4,9,20.8,13.6,31.2c0.3,0.6,0.9,1.4,1.4,1.4c5.4,0.1,10.9,0.1,16.7,0.1c-0.4-1-0.6-1.5-0.8-2.1
			C210.5,156.1,201.8,136.2,193,116.3z M144.6,128.1c5.9-13.7,11.7-27.3,17.7-41.2c6.1,13.9,12,27.5,18.1,41.2
			C168.4,128.1,156.6,128.1,144.6,128.1z"/>
		<path id="XMLID_96_" class="st0" d="M100.7,152.5c-13.5,8.6-28,13.4-44.3,10.6c-9.8-1.7-18.4-5.9-25.2-13.2
			c-9.2-9.9-12.9-21.6-11.6-35c0.6-6.5,2.6-12.6,6-18.2C36.9,78.2,57.4,73,76.1,75.9c8.6,1.4,16.4,5,24.1,9c0.8,0.4,1.5,0.7,2.6,1.3
			c0-4.6-0.3-8.9,0.1-13.2c0.3-3.5-1-5-4.1-6.4c-14.4-6.7-29.3-9-45.1-6.5C39.3,62.3,27,68.6,17.1,79.3C3.8,93.7-1.2,110.8,2.2,130
			c3,17,12.1,30.1,26.5,39.5c8.5,5.5,17.8,8.9,27.9,10c6.2,0.7,12.4,0.7,18.5-0.1c9.9-1.4,18.9-5.3,27.7-9.8c0.5-0.2,0.9-1,0.9-1.5
			c0.1-5.7,0-11.3,0-17.4C102.5,151.4,101.6,151.9,100.7,152.5z"/>
		<path id="XMLID_95_" class="st0" d="M316.7,60.9c-2,0-2.5,0.5-2.5,2.5c0.1,26.8,0,53.6,0,80.4c0,10.7,0,21.5,0,32.2
			c0,1.7,0.5,2.2,2.2,2.2c4.2-0.1,8.3-0.1,12.5,0c2,0.1,2.4-0.6,2.4-2.4c-0.1-15.8,0-31.6,0-47.4c0-0.8,0-1.6,0-2.7
			c21.4,0,42.5,0,63.6,0c0-5.2,0-10.1,0-15.4c-21.2,0-42.3,0-63.4,0c0-11.5,0-22.8,0-34.2c21.3,0,42.5,0,63.6,0c0-5.1,0-10,0-15.1
			c-0.9,0-1.6,0-2.2,0C367.4,61,342.1,61,316.7,60.9z"/>
		<path id="XMLID_94_" class="st0" d="M226.1,63.9c0,34.5,0,69,0,103.5c0,2.9,0.1,5.9,0,8.8c0,1.4,0.4,1.9,1.9,1.9
			c3.3-0.1,6.7,0,10,0c1.7,0,3.4,0,5.3,0c0-17.6,0-35,0-52.5c21.3,0,42.4,0,63.4,0c0-5.2,0-10.2,0-15.4c-21.2,0-42.3,0-63.3,0
			c0-11.5,0-22.7,0-34.2c21.3,0,42.4,0,63.6,0c0-5.1,0-10,0-14.9c-27,0-53.8,0-80.8,0C226.1,62.1,226.1,63,226.1,63.9z"/>
		<path id="XMLID_89_" class="st0" d="M485.9,44.2c-1-0.3-2.1-0.5-3.1-0.8c0-13,0-26,0-39c3.1-0.2,3.1-0.2,3-1.6
			c-7.2,0-14.4,0-21.7,0C464,4,464,4,467.1,4.6c0,9.3,0,18.6,0,28.3c-6.4-9.8-12.6-19.3-18.8-28.8c-0.3-0.5-0.9-1.3-1.4-1.3
			c-2.8-0.1-5.6-0.1-8.4,0c-0.3,0-0.8,0.5-0.7,0.7c0.1,0.4,0.5,0.8,0.8,0.9c0.8,0.1,1.6,0,2.3,0c0,13.3,0,26.3,0,39.4
			c-1.2,0-2.2-0.1-3.2,0c-1.5,0.2-2.2-0.3-2.7-1.9c-2.9-8.8-5.9-17.6-8.9-26.4c-1.7-4.8-3.3-9.7-5.1-14.9c-0.3,0.8-0.5,1.1-0.6,1.5
			c-4.4,12.4-8.7,24.8-13.1,37.2c-1.6,4.7-1.6,4.7-6.8,4.3c0-13.2,0-26.2,0-39.2c3-0.2,3-0.2,2.9-1.7c-2.3,0-4.6,0.1-6.9,0
			c-1.4-0.1-2,0.3-2.5,1.7c-1.6,5-3.4,10-5.1,15c-1.7,4.9-3.4,9.8-5.2,15.1c-0.3-0.7-0.4-1-0.5-1.3c-3.5-9.6-7-19.2-10.5-28.8
			c-0.2-0.6-0.9-1.5-1.4-1.5c-2.6-0.2-5.3-0.1-8-0.1c-0.1,2.9,2.4,0.8,3.2,2c0,12.9,0,25.9,0,38.8c-0.2,0.1-0.3,0.2-0.5,0.2
			c-1.6,0-3.1,0-4.7,0c-3.1,0-4.5-1.4-4.6-4.5c0-2.3,0-4.6,0-7c-0.1-4.1-1.4-7.5-5.5-9.3c0.2-0.2,0.3-0.3,0.5-0.4
			c4.2-2.3,6.3-5.9,5.7-10.6c-0.6-4.9-3.7-8.1-9.1-8.7c-5.5-0.6-11-0.4-16.5-0.4c-0.3,0-0.7,0.8-1.3,1.6c1.7,0,2.6,0,3.6,0
			c0,13.2,0,26.2,0,39.2c-2.2,0-4.2,0-6.4,0c-4.8-14.2-9.7-28.4-14.6-42.8c-0.4,0.4-0.5,0.4-0.5,0.6c-4.7,13.5-9.4,27-14.1,40.5
			c-0.4,1.2-0.8,2.1-2.4,1.9c-1.4-0.2-1.4,0.5-1,1.5c2.8,0,5.5,0,8.5,0c-0.3-2.6-2.4-0.9-3.5-1.9c1.2-3.4,2.4-7,3.8-10.6
			c0.1-0.4,1-0.7,1.5-0.7c3.6-0.1,7.2-0.1,10.9,0c0.5,0,1.4,0.3,1.5,0.6c1.3,3.5,2.4,7.1,3.7,10.9c-1.3,0-2.3,0-3.4,0
			c-1.7,0-1.7,0-1.4,1.5c9.5,0,19.1,0,29.1,0c-1.5-2.8-4-0.7-5.6-1.8c0-6.4,0-12.9,0-19.4c1.7,0,3.4-0.1,5,0c3.6,0.2,5.5,2.4,5.6,6
			c0.1,2.4,0.1,4.9,0.4,7.3c0.4,3.9,3.5,7.7,6.9,7.9c4.7,0.3,9.4,0.1,14.2,0.1c0-0.5,0.1-1.1,0-1.1c-1.1-0.3-2.3-0.5-3.5-0.8
			c0-10.7,0-21.5,0-32.2c0.1,0,0.2-0.1,0.4-0.1c4.3,11.5,8.6,23.1,13.1,35.2c4.3-12.6,8.4-24.6,12.7-37.1c0,11.9,0,23.1,0,34.3
			c-3,0.3-3,0.3-2.9,1.6c6.6,0,13.2,0,19.8,0c-0.1-1.3-0.1-1.3-3.5-1.7c1.2-3.5,2.4-7.1,3.7-10.6c0.2-0.4,1-0.8,1.6-0.9
			c3.6-0.1,7.2-0.1,10.9,0c0.6,0,1.5,0.4,1.6,0.8c1.2,3.5,2.3,7,3.6,10.8c-1.3,0-2.3,0-3.3,0c-1.7,0-1.7,0-1.4,1.5
			c7.2,0,14.4,0,21.8,0c0-0.4,0.1-1,0-1c-1-0.3-2.1-0.5-3.1-0.8c0-11.9,0-23.8,0-36.1c8.7,13.4,17.2,26.4,25.7,39.4
			c0.2-0.1,0.3-0.1,0.5-0.2c0-14,0-28.1,0-42c2.6,0,4.9,0,7.3,0c0,13.1,0,26.1,0,39c-3.1,0.5-3.1,0.5-3,1.8c4.1,0,8.2,0,12.3,0
			C485.9,44.8,486,44.2,485.9,44.2z M304.3,30.1c2-5.9,4-11.6,6.1-17.8c2.1,6.2,4,11.9,6,17.8C312.3,30.1,308.4,30.1,304.3,30.1z
			 M349.5,18c-1.9,3.4-4.7,4.5-9.8,3.8c0-5.8,0-11.5,0-17.1c3.5-0.9,7.4,0.3,9.2,2.7C351.1,10.2,351.3,14.8,349.5,18z M412.5,30.1
			c2-5.8,4-11.5,6.1-17.9c2.1,6.2,4,12,6,17.9C420.5,30.1,416.7,30.1,412.5,30.1z"/>
		<path id="XMLID_88_" class="st0" d="M483.8,61c-27.2,0-54.2,0-81.3,0c0,5.1,0,10,0,14.9c27.2,0,54.3,0,81.3,0
			C483.8,70.9,483.8,66,483.8,61z"/>
		<path id="XMLID_84_" class="st0" d="M39.5,45.6c1.5,0,1.7-0.6,1.2-2c-1.1,0-2.2,0-3.3,0c0-11,0-21.9,0-32.7c0.1,0,0.2,0,0.3-0.1
			c4.3,11.6,8.7,23.3,13.2,35.4c4.2-12.4,8.3-24.2,12.3-36.1c0.1,0,0.2,0.1,0.3,0.1c0,11,0,22.1,0,33.2c-1.1,0.1-2.1,0.1-3.1,0.2
			c-0.4,1.3,0,1.8,1.3,1.8c7.7,0,15.5,0,23.2,0c1.6,0,1.6-0.1,1.2-2c-0.9,0-1.9,0-2.9,0c0-5.2,0-10.3,0-15.5c1.7,0,3.2,0.1,4.8,0
			c4.9-0.5,9.2-2,11.6-6.7c4.2-8.5-1.2-18.1-10.7-18.6c-8.4-0.4-16.8-0.1-25.3-0.1c-3.6,10.5-7.2,21-11,31.8
			c-0.3-0.9-0.5-1.3-0.7-1.7c-3.4-9.4-6.8-18.9-10.3-28.3c-0.3-0.7-1-1.6-1.6-1.7c-2.6-0.2-5.3-0.1-7.9-0.1c-0.1,1.4-0.1,1.4,3,1.9
			c0,13,0,26,0,39.1c-1.1,0.1-2.1,0.1-3.1,0.1c-0.1,0.2-0.2,0.4-0.3,0.7c0.5,0.4,1,1.1,1.6,1.1C35.4,45.7,37.5,45.6,39.5,45.6z
			 M83.3,4.5c7.1-0.6,11,2.9,11.1,9.9c0,1.6,0.2,3.2-0.2,4.7c-1.2,5.7-4.7,7.9-10.9,6.9C83.3,18.8,83.3,11.7,83.3,4.5z M69.8,4.4
			c2.5,0,4.8,0,7.2,0c0,13.1,0,26.1,0,39.2c-2.4,0-4.7,0-7.2,0C69.8,30.6,69.8,17.6,69.8,4.4z"/>
		<path id="XMLID_81_" class="st0" d="M142.1,43.8c-0.5,1.6,0.2,1.9,1.4,1.9c3.8,0,7.5,0,11.3,0c1.5,0,1.7-0.6,1.2-2
			c-1.5,0-3,0-4.6,0c0-6.6,0-13.1,0-19.6c2,0,3.8-0.2,5.6,0c2.5,0.3,4.2,1.9,4.6,4.5c0.4,2.4,0.3,4.9,0.4,7.3
			c0.3,5.6,4.1,9.5,8.5,9.6c5.1,0,10.2,0.2,15.3,0.2c0.5,0,0.9-0.9,1.4-1.3c-0.2-0.2-0.3-0.3-0.4-0.5c-0.9,0-1.9-0.1-2.9-0.1
			c0-13.1,0-26.1,0-39.1c3.1-0.4,3.1-0.4,2.8-1.7c-4.1,0-8.2,0-12.3,0c0,2.8,2.5,0.7,3.3,1.9c0,12.9,0,25.9,0,38.8
			c-0.2,0.1-0.4,0.2-0.5,0.2c-1.6,0-3.1,0-4.7,0c-2.9,0-4.2-1.3-4.3-4.2c-0.1-2.1,0.1-4.2,0-6.4c-0.2-4.2-1-8.2-5.7-10.1
			c0.3-0.3,0.4-0.4,0.6-0.5c4.5-2.8,6.3-6.4,5.6-11.3c-0.6-4-4.1-7.6-8.9-8C153.9,2.7,148,3.1,142,3.1c0,0.2-0.1,0.9,0,0.9
			c1,0.2,2.1,0.4,3.1,0.5c0,13.1,0,26.1,0,39.3C144,43.8,143,43.8,142.1,43.8z M151.3,4.4c3.7-0.3,7.2,0.1,9.3,3.4
			c2.1,3.3,2.3,6.9,0.3,10.4c-2.2,3.7-5.6,4.2-9.6,3.7C151.3,16,151.3,10.3,151.3,4.4z"/>
		<path id="XMLID_78_" class="st0" d="M133,42.1c5.2-4.7,7.3-10.8,7.7-17.5c-0.2-7.2-2.7-13.3-7.7-18.2c-6.3-6.3-15.2-6.5-21.5-0.7
			c-10.2,9.4-10.9,24.9-1.7,35.2C116.3,47.9,126,48.5,133,42.1z M111,20.6c0.4-3.7,1-7.4,2.3-10.9c1.9-5.3,6.9-7.5,11.8-5.8
			c2.8,1,4.6,3.1,5.8,5.7c2.1,4.6,2.4,9.6,2.5,13.4c0,5.8-0.4,10.5-2.1,14.9c-1.8,4.5-4.8,6.7-9.2,6.6c-4.3,0-7.3-2.1-9-6.6
			C110.8,32.4,110.3,26.5,111,20.6z"/>
		<path id="XMLID_75_" class="st0" d="M196.6,5.6c-5.6,4.8-7.9,11.2-8.3,17.6c0.1,6.1,1.6,11,4.7,15.3c6.3,8.9,16.7,10.6,24.4,4.1
			c5.3-4.5,7.8-10.4,8.2-17.2c0.4-7.2-2.3-13.5-7.2-18.7C212.2,0.2,203.3-0.2,196.6,5.6z M215.8,38.7c-2.9,6.6-9.5,7.2-13.5,4.7
			c-1.7-1-3.3-2.8-4-4.7c-3.6-9.7-3.7-19.6,0-29.2c2.5-6.5,10.3-8.3,14.8-3.7c1.8,1.9,2.8,4.7,3.9,7.2c0.5,1.2,0.7,2.6,0.8,4
			c0.3,2.4,0.4,4.7,0.5,6.6C218.1,29.1,217.8,34.1,215.8,38.7z"/>
		<path id="XMLID_74_" class="st0" d="M1.4,43.8C1.3,44,1.1,44.2,1,44.3c0.5,0.4,1,1.2,1.5,1.2c8.7,0.1,17.3,0.1,26,0
			c0.4,0,1.2-0.7,1.2-1.1c0.1-3.9,0.1-7.8,0.1-11.7c-0.7,0-1.2,0-1.9,0c0,0.8,0.1,1.6,0,2.3c-0.4,3.3-1.4,6.2-4.9,7.6
			c-4.1,1.6-8.4,1-12.6,1c0-6.4,0-12.5,0-18.6c5.5-0.8,7.3,0.3,8.7,5.3c0.1,0.4,0.6,0.8,1,0.9c0.2,0.1,0.8-0.5,0.8-0.8
			c0.1-4.5,0-9.1,0-13.7c-1.8,0-1.9,0-2,1.4c-0.2,2.4-1.5,4-3.8,4.5c-1.5,0.3-3.2,0.1-4.8,0.1c0-6.1,0-12.1,0-18.3
			c0.8,0,1.5,0,2.1,0c2.4,0,4.8-0.1,7.2,0c5.1,0.2,7.2,2,8.2,6.6c0.2,0.8,0,1.7,0.2,2.4c0.1,0.5,0.6,0.8,0.9,1.2
			c0.3-0.4,0.9-0.7,0.9-1.1c0.1-3.5,0-7.1,0-10.7c-9.6,0-19,0-28.5,0c0,0.5-0.1,1.2,0,1.2c1,0.2,2.1,0.4,3,0.5c0,13.1,0,26.1,0,39.1
			C3.3,43.7,2.3,43.7,1.4,43.8z"/>
	</g>
	<g id="XMLID_52_">
		<path id="XMLID_72_" class="st0" d="M302.8,9.8c0,3-2.2,5.4-4.9,5.4h-21.6l4.1-5.4H302.8z"/>
		<path id="XMLID_71_" class="st0" d="M308.8,2.2c0,3-2.2,5.4-4.9,5.4h-21.6l4.1-5.4H308.8z"/>
		<path id="XMLID_70_" class="st0" d="M225,9.8c0,2.9,2.2,5.3,4.8,5.3H251l-4-5.3H225z"/>
		<path id="XMLID_69_" class="st0" d="M219.2,2.2c0,2.9,2.2,5.3,4.8,5.3h21.1l-4-5.3H219.2z"/>
		<path id="XMLID_68_" class="st0" d="M295.5,17.3c0,2.9-2.2,5.3-4.8,5.3h-54.5c-2.7,0-4.8-2.4-4.8-5.3h22.2l2.3,2.3v-2.3H270
			l2.3,2.3l1.5-2.3H295.5z"/>
		<polygon id="XMLID_67_" class="st0" points="255.9,9.8 255.9,15.1 269.2,15.1 267.8,9.8 		"/>
		<path id="XMLID_66_" class="st0" d="M255.9,7.2V6.9c0-2.5,0-4.7,2.7-4.7h10.6c2.7,0,4.8,2,4.8,4.6h-4.2c0,0-1.1-0.3-1.1,0.8h-12.8
			V7.2z"/>
		<g id="XMLID_53_">
			<path id="XMLID_65_" class="st0" d="M253,33.7c0,0.6,0,1.2,0.1,1.8c0,0.6,0.1,1.2,0.2,1.7c0,0.1,0.1,0.2,0.1,0.4h6.7
				c0-0.1,0-0.1,0-0.2v-1.7h-2.3v-0.3h5.3v0.3h-1.4v1.9h3.5l1.8-5.7l-14,0C253,32.6,253,33.1,253,33.7z"/>
			<path id="XMLID_64_" class="st0" d="M251,33.7c0-0.6,0.1-1.2,0.2-1.7l-7.2,0v0.8c0,2.7,2.2,4.8,4.8,4.8h3.2
				c-0.1-0.3-0.3-0.5-0.4-0.8C251.1,35.9,251,34.9,251,33.7z"/>
			<polygon id="XMLID_63_" class="st0" points="266.5,34.7 270.3,34.7 269.4,31.9 267.4,32 			"/>
			<polygon id="XMLID_62_" class="st0" points="270.4,35 266.4,35 265.5,37.7 271.3,37.7 			"/>
			<path id="XMLID_61_" class="st0" d="M278.5,37.7c2.7,0,4.8-2.2,4.8-4.8v-0.9l-12,0l1.9,5.7H278.5z"/>
			<path id="XMLID_60_" class="st0" d="M260.6,29.2c-0.1-0.5-0.3-0.9-0.6-1.4c-0.3-0.4-0.7-0.8-1.1-1.1c-0.5-0.3-1.1-0.5-1.8-0.5
				c-0.9,0-1.6,0.2-2.1,0.6c-0.5,0.4-0.9,1-1.2,1.7c-0.2,0.4-0.3,0.8-0.4,1.3h7.5C260.7,29.7,260.7,29.5,260.6,29.2z"/>
			<path id="XMLID_59_" class="st0" d="M238.2,24.4v0.7c0,2.7,2.2,4.8,4.8,4.8h8.8c0.2-0.4,0.4-0.8,0.6-1.1c0.2-0.3,0.4-0.6,0.6-0.7
				c0.5-0.6,1.1-1.1,1.8-1.5c0.7-0.4,1.4-0.6,2.3-0.6c0.4,0,0.8,0,1.1,0.1c0.3,0.1,0.5,0.2,0.7,0.3c0.2,0.1,0.4,0.2,0.6,0.3
				c0.2,0.1,0.4,0.1,0.6,0.1c0.2,0,0.4,0,0.5-0.1c0.1-0.1,0.2-0.2,0.3-0.3h0.3v3.5h6.6L269,26h0.4l1.3,3.9h13.6
				c2.7,0,4.8-2.2,4.8-4.8v-0.8L238.2,24.4z"/>
			<path id="XMLID_58_" class="st0" d="M254.5,40c0.3,0.4,0.7,0.6,1.1,0.8c0.4,0.1,0.9,0.2,1.4,0.2c0.4,0,0.7-0.1,1.1-0.2
				c0.4-0.1,0.7-0.4,1-0.6c0.2-0.2,0.3-0.4,0.5-0.7h-5.5C254.2,39.7,254.3,39.8,254.5,40z"/>
			<path id="XMLID_57_" class="st0" d="M275.7,40.7V41h-5.4v-0.3h1.9l-0.4-1.2h-6.9l-0.4,1.2h1.9V41h-3.8v-0.3h1.5l0.4-1.2h-2.9v0.9
				h-0.2c-0.1-0.2-0.2-0.3-0.3-0.3c-0.1-0.1-0.2-0.1-0.4-0.1c-0.2,0-0.4,0.1-0.6,0.2c-0.2,0.1-0.5,0.3-0.8,0.4
				c-0.3,0.2-0.6,0.3-1,0.4c-0.4,0.1-0.8,0.2-1.4,0.2c-0.8,0-1.6-0.2-2.2-0.5c-0.6-0.3-1.1-0.8-1.7-1.3h-2.8v0.8
				c0,2.7,2.2,4.8,4.8,4.8h16.3c2.7,0,4.8-2.2,4.8-4.8v-0.8h-2.7l0.4,1.2H275.7z"/>
		</g>
	</g>
</g>
</svg>
