<?xml version="1.0" encoding="utf-8"?>
<!-- Generator: Adobe Illustrator 21.0.2, SVG Export Plug-In . SVG Version: 6.00 Build 0)  -->
<svg version="1.1" id="Layer_1" xmlns="http://www.w3.org/2000/svg" xmlns:xlink="http://www.w3.org/1999/xlink" x="0px" y="0px"
	 viewBox="0 0 177.7 180" style="enable-background:new 0 0 177.7 180;" xml:space="preserve">
<style type="text/css">
	.st0{fill:#40704E;}
</style>
<g>
	<line class="st0" x1="137.8" y1="172.5" x2="137.8" y2="178.1"/>
	<polyline class="st0" points="142.2,171.8 144.1,176.6 144.1,176.6 	"/>
	<path class="st0" d="M97.8,39.9L97.8,39.9c-0.8-0.1-4.6-0.8-9-0.8c-4.4,0-8.1,0.6-8.9,0.8c-0.5,0.1-0.6-0.4-0.3-0.6
		c0.3-0.2,9.2-7,9.2-7s8.9,6.8,9.2,7C98.4,39.6,98.2,40,97.8,39.9z M82.4,83.8L82.4,83.8c0,0-0.5,0.2-0.6,0.6c1.9,1.4,3.1,4.7,7,4.7
		c3.9,0,5.2-3.3,7.1-4.7c-0.1-0.4-0.6-0.6-0.6-0.6s-2.5,0.6-6.5,0.6C84.8,84.4,82.4,83.8,82.4,83.8z M88.8,78.4L88.8,78.4
		c-1.1,0-1.3-0.4-2-0.4c-0.7,0-2.1,0.6-2.4,1.1c0,0.3,0.1,0.5,0.3,0.7c1.6,0.2,2.3,1.1,4.1,1.1c1.8,0,2.5-0.9,4.1-1.1
		c0.2-0.2,0.3-0.4,0.3-0.7C93,78.5,91.6,78,90.9,78C90.2,78,89.9,78.4,88.8,78.4z M177.5,95.1L177.5,95.1c-0.1,2.1-0.3,4.2-0.6,6.3
		c-10,1.7-13.7-7.3-23.9-6.8c0.6,2.2,1.1,4.4,1.5,6.7c8.5,0,11.9,7.9,21.4,6.7c-0.5,2.4-1.1,4.8-1.8,7.2c-7.5,0.7-10.1-6.7-18.7-6.5
		c0.1,1.2,0.1,2.5,0.1,3.7c0,0.7,0,1.4,0,2.1c7.4-0.1,9.8,6.7,16.8,6.4c-0.8,2.4-1.8,4.7-2.9,7c-5.1-0.2-6.8-6.7-14.5-6.2
		c-0.2,1.6-0.5,3.3-0.9,4.9c6.7-0.5,8.1,5.7,12.9,6.2c-1.2,2.2-2.5,4.4-3.9,6.5c-2.8-1.5-5.3-6.1-10.6-6.3c0.5-1.7,1-3.4,1.4-5.2
		c-4.8,0-10.2-1.9-14.8-6c1.5-8.4-11.6-17-11.6-23.1c0-6.7,3.4-10.4,3.4-19.4c0-6.7-3.3-14-8.2-18.9c-0.9-1-1.9-1.8-3.1-2.5
		c4.5,5.6,8,12.2,8,19.8c0,8.5-3.9,13-3.9,20.8c0,7.8,11.5,14.6,11.5,22.7c0,3.2-1,6.3-4.4,12.4c5.2,5.2,11.9,8,16.2,8
		c1.4,0,2.1-0.5,2.7-1.5c0.4-0.9,0.8-1.9,1.2-2.9c4.7,0.2,6.8,4.4,9.4,6.1c-1.4,1.9-2.9,3.7-4.5,5.5c-1.7-1.9-4.1-5.1-7.5-6
		c-0.6,1.2-1.2,2.3-1.9,3.5c2.9,0.8,5,3.8,6.5,5.7c-1.7,1.8-3.4,3.4-5.2,5c-1.1-1.8-2.9-4-4.9-5.2c-0.7,1-1.5,2-2.2,2.9
		c1.7,1.1,3.2,3.2,4.1,4.8c-2.1,1.7-4.2,3.3-6.5,4.8c-1.1-9-13.4-15.2-10.1-25.6c-1.1,1.8-2.4,4.1-2.4,6.9c0,7.6,8.1,13.6,8.7,21.1
		c-1.7,1-3.4,1.9-5.1,2.8c-0.3-8.2-8.8-17.3-8.8-24.1c0-7.6,9.9-15.2,9.9-24.1c0-8.9-11.5-15.1-11.5-23c0-7.9,4.9-12.4,4.9-22.4
		c0-7.4-3.5-14.8-8.9-19.6c-0.9-0.8-1.9-1.5-3-2.1c5.1,6.1,8,11.7,8,20.1c0,9.5-5.6,14.7-5.6,23.9c0,9.3,11.2,14.4,11.2,23
		c0,8.7-10.5,15.9-10.5,24.8c0,8.1,9.2,16.1,9.4,25.7c-2,0.9-4.1,1.7-6.2,2.4c1.2-9.7-9.2-19.7-9.2-27.6c0-8.6,10.8-16,10.8-25.4
		c0-9.3-11-13.6-11-23.2c0-9.5,6.8-14.8,6.8-25.3c0-8.2-4.1-15.6-10-20.2c-0.1-0.1-0.2-0.2-0.4-0.3c-0.6-0.4-1,0.1-0.6,0.6
		c4.2,5.2,6.4,10.6,6.4,18.4c0,9.7-7.8,17.5-7.8,26.9c0,11,10.4,14.2,10.4,23.2c0,9.1-11.2,16.3-11.2,25.9c0,8.9,10.6,18.8,8.8,29.1
		c-2.1,0.5-4.3,1-6.5,1.4c2-12.8-8.4-22-8.4-30.4c0-9.1,11.6-17.2,11.6-26.1c0-8.3-8.3-11.1-9.4-19.6c-0.1-1.2-1.1-2-2.4-1.8
		c-1.7,0.3-3.9,1.4-7.3,1.4c-3.4,0-5.5-1.1-7.3-1.4c-1.3-0.2-2.2,0.7-2.4,1.8c-1.1,8.6-9.4,11.3-9.4,19.6c0,8.9,11.6,17,11.6,26.1
		c0,8.3-10.4,17.6-8.4,30.4c-2.2-0.4-4.4-0.9-6.5-1.4c-1.8-10.3,8.8-20.2,8.8-29.1c0-9.6-11.2-16.8-11.2-25.9
		c0-9,10.5-12.2,10.5-23.2c0-9.4-7.8-17.2-7.8-26.9c0-7.8,2.2-13.2,6.5-18.4c0.4-0.5-0.1-1-0.6-0.6c-0.1,0.1-0.2,0.2-0.4,0.3
		c-5.9,4.6-10,12-10,20.2C62.2,83.1,69,88.4,69,98c0,9.6-11,13.9-11,23.2c0,9.3,10.8,16.7,10.8,25.4c0,7.9-10.4,17.9-9.2,27.6
		c-2.1-0.7-4.1-1.5-6.2-2.4c0.1-9.6,9.4-17.6,9.4-25.7c0-8.9-10.5-16.1-10.5-24.8c0-8.6,11.2-13.8,11.2-23c0-9.3-5.6-14.5-5.6-23.9
		c0-8.4,2.9-14,8.1-20.1c-1.2,0.6-2.1,1.3-3.1,2.1c-5.4,4.8-8.9,12.2-8.9,19.6c0,10,4.9,14.6,4.9,22.4c0,7.9-11.4,14.1-11.4,23
		c0,8.9,9.9,16.6,9.9,24.1c0,6.8-8.6,15.8-8.8,24.1c-1.8-0.9-3.4-1.8-5.1-2.8c0.6-7.5,8.7-13.5,8.7-21.1c0-2.8-1.3-5.1-2.4-6.9
		c3.3,10.5-9,16.6-10.1,25.6c-2.2-1.5-4.4-3.1-6.5-4.8c1-1.7,2.5-3.7,4.1-4.8c-0.8-0.9-1.5-1.9-2.3-2.9c-2,1.2-3.8,3.4-4.9,5.2
		c-1.8-1.6-3.5-3.2-5.2-5c1.5-1.9,3.6-4.9,6.5-5.7c-0.7-1.2-1.3-2.3-1.9-3.5c-3.4,0.9-5.7,4.1-7.5,6c-1.5-1.8-3.1-3.6-4.5-5.5
		c2.6-1.7,4.7-5.9,9.4-6.1c0.4,0.9,0.8,1.9,1.2,2.9c0.5,1.1,1.2,1.5,2.7,1.5c4.3,0,11-2.8,16.2-8c-3.3-6.1-4.4-9.2-4.4-12.4
		c0-8.1,11.5-14.9,11.5-22.7c0-7.9-4-12.3-4-20.8c0-7.6,3.5-14.3,8-19.8c-1.1,0.7-2.1,1.5-3.1,2.5C50.2,65.2,47,72.5,47,79.1
		c0,9,3.4,12.7,3.4,19.4c0,6.2-13.1,14.7-11.6,23.1c-4.6,4.2-10,6-14.8,6c0.4,1.7,0.9,3.5,1.4,5.2c-5.3,0.3-7.8,4.8-10.6,6.3
		c-1.4-2.1-2.7-4.2-3.9-6.5c4.8-0.5,6.2-6.6,12.9-6.2c-0.4-1.6-0.6-3.3-0.9-4.9c-7.7-0.5-9.4,6-14.5,6.2c-1.1-2.3-2-4.6-2.9-7
		c7,0.3,9.4-6.5,16.8-6.4c0-0.7,0-1.4,0-2.1c0-1.3,0-2.5,0.1-3.7c-8.6-0.2-11.3,7.2-18.7,6.5c-0.7-2.4-1.3-4.8-1.8-7.2
		c9.4,1.2,12.9-6.8,21.4-6.7c0.4-2.3,0.9-4.5,1.5-6.7c-10.3-0.5-13.9,8.5-23.9,6.8c-0.3-2.1-0.5-4.2-0.6-6.3
		c11.7,1.3,16-8.3,26.7-7.1c1-2.6,2.2-5,3.5-7.4C17,78.3,12.5,89.5,0.1,87.8C1.4,39.9,40.6,1.6,88.8,1.6s87.4,38.4,88.8,86.2
		c-12.4,1.7-17-9.4-30.3-7.1c1.3,2.3,2.5,4.8,3.5,7.4C161.4,86.8,165.8,96.5,177.5,95.1z M50.7,57.9L50.7,57.9
		c-6.5-2.7-14.5-2.1-21.2,2.3C28.4,54,25,48.3,20.1,45c-0.7-0.5-1.4,0-1.3,0.8c1,13.3-6.7,24.8-16.3,34.9c9.8,2.9,18.2-9.7,31-5.3
		C38.1,68.6,43.9,62.6,50.7,57.9z M88.8,49.9L88.8,49.9c-8.3,0-15.1,4.6-17,10.7c-0.1,0.5,0.1,0.8,0.6,0.5c1.5-0.7,3.2-1,5-1
		c3.4,0,6.3,1.2,8.1,3.4c0.8,2.6,0.8,6.2,0,8.4c-1.4-0.3-1.9-1.4-3.2-1.4c-1.3,0-2.4,0.9-4.7,0.9c-2.3,0-2.6-1.1-4.1-1.1
		c-1.8,0-2.1,1.8-2.1,3.9c0,9.2,8.4,21.8,17.4,21.8c9,0,17.4-12.6,17.4-21.8c0-2-0.4-3.8-2.2-4.1c-0.9,0.7-1.8,1.3-3.9,1.3
		c-2.3,0-2.9-0.9-4.3-0.9c-1.6,0-1.5,3.4-3.4,3.6C91.1,71,91,67,92.1,63.5c1.8-2.1,4.7-3.4,8.1-3.4c1.8,0,3.5,0.3,5,1
		c0.5,0.2,0.7-0.1,0.6-0.5C104,54.5,97.1,49.9,88.8,49.9z M102,63.1L102,63.1c-2,0-4.3,0.6-5.8,2.2c-0.1,0.4-0.1,1.1,0.1,1.5
		c3.6-1.2,6.7-1.3,8.3,0.5c0.8-0.7,1.1-1.4,1.1-2.2C105.6,63.9,104.4,63.1,102,63.1z M73.1,67.3L73.1,67.3c1.7-1.8,5.4-1.7,9.2-0.3
		c0.1-1.9-3.2-3.9-6.6-3.9c-2.4,0-3.7,0.8-3.7,2C72,65.9,72.3,66.5,73.1,67.3z M129.9,36.2L129.9,36.2c-6.5,0.5-12.2,2.7-16.7,6.4
		c2-5.5,4.4-10.3,7.5-15c-8.3,0.9-15.2,3.9-20.3,9.1l-3.9-10.4l8.8-7.8l-11.8-0.8L88.8,6.9l-4.7,10.9l-11.8,0.8l8.8,7.8l-4,10.4
		c-5.1-5.2-12-8.2-20.3-9.1c3.1,4.7,5.6,9.5,7.5,15c-4.6-3.7-10.2-6-16.7-6.4c3.9,5,7.4,10.3,9.9,16.1c0.3,0.7,0.9,0.9,1.6,0.5
		c8.9-4.4,19-6.9,29.6-6.9c10.6,0,20.7,2.5,29.6,6.9c0.7,0.4,1.3,0.1,1.6-0.5C122.6,46.6,126,41.2,129.9,36.2z M144.2,75.4
		L144.2,75.4c12.7-4.4,21.1,8.2,31,5.3c-9.5-10.1-17.3-21.6-16.3-34.9c0-0.8-0.7-1.2-1.3-0.8c-4.8,3.4-8.3,9-9.3,15.3
		c-6.8-4.4-14.7-4.9-21.2-2.3C133.7,62.6,139.6,68.6,144.2,75.4z"/>
	<polygon class="st0" points="137.8,178.1 137.8,178.1 137,178.1 137,172.5 134.9,172.5 134.9,171.8 139.9,171.8 139.9,172.5 
		137.8,172.5 	"/>
	<polygon class="st0" points="144.1,176.6 144.1,176.6 146,171.8 147.4,171.8 147.4,178.1 146.4,178.1 146.4,172.8 144.3,178.1 
		143.7,178.1 141.6,172.8 141.6,178.1 140.8,178.1 140.8,171.8 142.2,171.8 	"/>
</g>
</svg>
